<?xml version="1.0" standalone="no"?>
<!DOCTYPE svg PUBLIC "-//W3C//DTD SVG 1.1//EN" "http://www.w3.org/Graphics/SVG/1.1/DTD/svg11.dtd" >
<svg xmlns="http://www.w3.org/2000/svg">
<metadata></metadata>
<defs>
<font id="franchisebold" horiz-adv-x="757" >
<font-face units-per-em="2048" ascent="1536" descent="-512" />
<missing-glyph horiz-adv-x="270" />
<glyph unicode=" "  horiz-adv-x="270" />
<glyph unicode="&#x09;" horiz-adv-x="270" />
<glyph unicode="&#xa0;" horiz-adv-x="270" />
<glyph unicode="!" horiz-adv-x="446" d="M266 348h-86l-78 516v570h242v-570zM92 117q0 -54 38.5 -92.5t92.5 -38.5t92.5 38.5t38.5 92.5t-38.5 92.5t-92.5 38.5t-92.5 -38.5t-38.5 -92.5z" />
<glyph unicode="&#x22;" horiz-adv-x="593" d="M330 1434h213l-127 -459h-86v459zM51 975v459h213l-127 -459h-86z" />
<glyph unicode="#" horiz-adv-x="1159" d="M1087 795h-317l-25 -152h342v-102h-360l-57 -330h-103l58 330h-152l-57 -330h-103l58 330h-299v102h317l25 152h-342v102h360l57 330h103l-57 -330h151l57 330h103l-58 -330h299v-102zM643 643l25 152h-152l-24 -152h151z" />
<glyph unicode="$" horiz-adv-x="737" d="M666 1008l-240 -62v160q0 20 -14.5 34.5t-34.5 14.5h-17q-20 0 -34.5 -14.5t-14.5 -34.5v-113q3 -47 31 -71l268 -201q30 -26 41.5 -54.5t14.5 -70.5v-277q0 -95 -61 -166.5t-152 -86.5v-107h-168v107q-91 15 -152 86.5t-61 166.5v148l239 61v-198q0 -20 14.5 -34.5 t34.5 -14.5h17q20 0 34.5 14.5t14.5 34.5v194q-3 57 -33 84l-264 203q-31 28 -44 58t-13 75v172q0 94 60.5 165.5t152.5 88.5v105h168v-105q92 -17 152.5 -88.5t60.5 -165.5v-108z" />
<glyph unicode="%" horiz-adv-x="1128" d="M889 158v385q0 12 -8.5 20t-20.5 8h-16q-12 0 -20.5 -8t-8.5 -20v-385q0 -12 8.5 -20.5t20.5 -8.5h16q12 0 20.5 8.5t8.5 20.5zM883 715q67 0 115.5 -48.5t48.5 -115.5v-401q0 -68 -48.5 -116t-115.5 -48h-62q-67 0 -115.5 48t-48.5 116v401q0 67 48.5 115.5t115.5 48.5 h62zM313 891v385q0 12 -8 20.5t-20 8.5h-17q-12 0 -20 -8.5t-8 -20.5v-385q0 -12 8 -20.5t20 -8.5h17q12 0 20 8.5t8 20.5zM307 1448q67 0 115.5 -48t48.5 -116v-401q0 -67 -48.5 -115.5t-115.5 -48.5h-61q-68 0 -116 48.5t-48 115.5v401q0 68 48 116t116 48h61zM299 0h-168 l696 1434h168z" />
<glyph unicode="&#x26;" horiz-adv-x="868" d="M776 473v-82l-90 25v-172q0 -106 -76 -182t-182 -76h-78q-106 0 -182 76t-76 182v368q0 86 34.5 128t90.5 42q-57 0 -91 38.5t-34 113.5v256q0 106 76 182t182 76h78q106 0 182 -76t76 -182v-238l-240 64v164q0 20 -14.5 34.5t-34.5 14.5h-16q-20 0 -34.5 -14.5 t-14.5 -34.5v-252q0 -22 12.5 -34.5t34.5 -12.5h121v-201h-121q-47 0 -47 -45v-381q0 -20 14.5 -34.5t34.5 -14.5h16q20 0 34.5 14.5t14.5 34.5v305z" />
<glyph unicode="'" horiz-adv-x="315" d="M51 975v459h213l-127 -459h-86z" />
<glyph unicode="(" horiz-adv-x="487" d="M389 -150q-7 3 -20 10.5t-50.5 38.5t-71 71t-75 111.5t-71 156.5t-50 210.5t-20.5 268.5t19.5 268.5t51.5 211t70 155.5t76 111.5t70 70t52 38.5l19 11l68 -76q-5 -4 -13 -11t-32 -37t-45.5 -67t-47.5 -103.5t-45 -143.5t-32 -189t-13 -239t12.5 -239t32.5 -190 t44.5 -142.5t49 -104t44.5 -67t32 -38.5l13 -10z" />
<glyph unicode=")" horiz-adv-x="487" d="M98 1583q8 -3 20.5 -10.5t50 -38.5t71.5 -70.5t75.5 -111t71 -156.5t50 -210.5t20.5 -268.5q0 -113 -12.5 -214.5t-33 -178t-47.5 -144t-56.5 -114.5t-59.5 -85.5t-57 -62t-47.5 -39.5t-33.5 -23l-12 -6l-67 76q5 4 13 11t31.5 37t45 67.5t48 103.5t45 143t31.5 189.5 t13 239.5t-12.5 239t-32.5 190t-44.5 142.5t-48.5 103.5t-44 66.5t-32 37.5l-13 11z" />
<glyph unicode="*" horiz-adv-x="581" d="M348 950h-117l11 160l-129 -92l-62 106l144 66l-144 72l60 100l133 -86l-11 158h117l-10 -160l129 92l61 -106l-143 -66l143 -72l-57 -100l-133 86z" />
<glyph unicode="+" horiz-adv-x="917" d="M846 856v-213h-281v-281h-213v281h-280v213h280v281h213v-281h281z" />
<glyph unicode="," horiz-adv-x="374" d="M84 -199v45q6 1 16 3.5t35 15t44.5 31t35.5 55t16 82.5q-2 -5 -7.5 -11.5t-25.5 -18t-44 -11.5q-55 0 -79 31t-24 92q0 52 33 85t96 33q57 0 100.5 -49.5t43.5 -142.5q0 -57 -26 -106t-64 -78t-78.5 -44t-71.5 -12z" />
<glyph unicode="-" horiz-adv-x="630" d="M559 856v-213h-487v213h487z" />
<glyph unicode="." horiz-adv-x="364" d="M51 117q0 54 38.5 92.5t92.5 38.5t92.5 -38.5t38.5 -92.5t-38.5 -92.5t-92.5 -38.5t-92.5 38.5t-38.5 92.5z" />
<glyph unicode="/" horiz-adv-x="638" d="M178 0h-168l451 1434h168z" />
<glyph unicode="0" horiz-adv-x="798" d="M438 1448q106 0 182 -76t76 -182v-946q0 -106 -76 -182t-182 -76h-78q-106 0 -182 76t-76 182v946q0 106 76 182t182 76h78zM457 254v926q0 20 -14.5 34.5t-34.5 14.5h-17q-20 0 -34.5 -14.5t-14.5 -34.5v-926q0 -20 14.5 -34.5t34.5 -14.5h17q20 0 34.5 14.5t14.5 34.5z " />
<glyph unicode="1" horiz-adv-x="557" d="M252 1434h203v-1434h-240v1079q-8 -7 -22.5 -16.5t-60 -26t-91.5 -16.5v176q9 3 23 8.5t50.5 27t64 46.5t50.5 67t23 89z" />
<glyph unicode="2" horiz-adv-x="759" d="M332 231h336v-231h-576q-16 43 -16 139q0 63 35 158t85.5 185t101 171t85.5 131l35 50q8 16 8 43v303q0 20 -14.5 34.5t-34.5 14.5h-17q-20 0 -34.5 -14.5t-14.5 -34.5v-166l-239 -62v238q0 106 76 182t182 76h78q106 0 182 -76t76 -182v-244q0 -137 -66 -235 q-3 -4 -24.5 -35t-37 -54t-42.5 -64.5t-47 -73.5t-43.5 -73t-38.5 -72t-25 -60.5t-10 -47.5z" />
<glyph unicode="3" horiz-adv-x="778" d="M561 782q56 0 90.5 -42t34.5 -128v-368q0 -106 -76 -182t-182 -76h-78q-106 0 -182 76t-76 182v254l240 61v-305q0 -20 14.5 -34.5t34.5 -14.5h16q20 0 34.5 14.5t14.5 34.5v381q0 45 -47 45h-120v201h120q22 0 34.5 12.5t12.5 34.5v252q0 20 -14.5 34.5t-34.5 14.5h-16 q-20 0 -34.5 -14.5t-14.5 -34.5v-164l-240 -64v238q0 106 76 182t182 76h78q106 0 182 -76t76 -182v-256q0 -75 -34 -113.5t-91 -38.5z" />
<glyph unicode="4" horiz-adv-x="819" d="M406 512v471h-13q-10 -66 -49.5 -199t-99.5 -272h162zM635 512h92v-225h-92v-287h-240v287h-344v223q11 23 28.5 63.5t64 158t84 226t72.5 243t44 233.5h291v-922z" />
<glyph unicode="5" horiz-adv-x="778" d="M465 922q83 0 152 -57t69 -154v-467q0 -106 -76 -182t-182 -76h-78q-106 0 -182 76t-76 182v164l240 61v-215q0 -20 14.5 -34.5t34.5 -14.5h16q20 0 34.5 14.5t14.5 34.5v403q0 29 -13 45.5t-36 16.5h-16q-19 0 -34 -17t-15 -45v-82l-240 62v797h549v-232h-309v-330 q6 6 16 14t45 22t72 14z" />
<glyph unicode="6" horiz-adv-x="778" d="M381 719q-19 0 -34 -17t-15 -45v-403q0 -20 14.5 -34.5t34.5 -14.5h16q20 0 34.5 14.5t14.5 34.5v403q0 29 -13 45.5t-36 16.5h-16zM686 1075l-240 -61v166q0 20 -14.5 34.5t-34.5 14.5h-16q-20 0 -34.5 -14.5t-14.5 -34.5v-308q6 6 16 14t45 22t72 14q83 0 152 -57 t69 -154v-467q0 -106 -76 -182t-182 -76h-78q-106 0 -182 76t-76 182v946q0 106 76 182t182 76h78q106 0 182 -76t76 -182v-115z" />
<glyph unicode="7" horiz-adv-x="669" d="M51 1434h557v-217q-89 -236 -127.5 -507t-38.5 -710h-241q0 230 19.5 452t48.5 377.5t49.5 245t35.5 133.5h-303v226z" />
<glyph unicode="8" horiz-adv-x="778" d="M332 1180v-252q0 -23 13 -39.5t34 -16.5h20q21 0 34 16.5t13 39.5v252q0 20 -14.5 34.5t-34.5 14.5h-16q-20 0 -34.5 -14.5t-14.5 -34.5zM446 254v381q0 23 -12 38t-35 15h-20q-23 0 -35 -15t-12 -38v-381q0 -20 14.5 -34.5t34.5 -14.5h16q20 0 34.5 14.5t14.5 34.5z M686 956q0 -75 -44 -124.5t-101 -49.5q54 0 99.5 -50.5t45.5 -119.5v-114v-254q0 -106 -76 -182t-182 -76h-78q-106 0 -182 76t-76 182v254v114q0 73 45 121.5t101 48.5q-58 0 -102 49.5t-44 124.5v234q0 106 76 182t182 76h78q106 0 182 -76t76 -182v-234z" />
<glyph unicode="9" horiz-adv-x="778" d="M397 715q19 0 34 16.5t15 44.5v404q0 20 -14.5 34.5t-34.5 14.5h-16q-20 0 -34.5 -14.5t-14.5 -34.5v-404q0 -61 49 -61h16zM92 358l240 62v-166q0 -20 14.5 -34.5t34.5 -14.5h16q20 0 34.5 14.5t14.5 34.5v307q-6 -5 -16 -13.5t-45 -22t-72 -13.5q-83 0 -152 57t-69 154 v467q0 106 76 182t182 76h78q106 0 182 -76t76 -182v-946q0 -106 -76 -182t-182 -76h-78q-106 0 -182 76t-76 182v114z" />
<glyph unicode=":" horiz-adv-x="364" d="M51 905q0 54 38.5 92.5t92.5 38.5t92.5 -38.5t38.5 -92.5t-38.5 -92.5t-92.5 -38.5t-92.5 38.5t-38.5 92.5zM51 444q0 54 38.5 92.5t92.5 38.5t92.5 -38.5t38.5 -92.5t-38.5 -92.5t-92.5 -38.5t-92.5 38.5t-38.5 92.5z" />
<glyph unicode=";" horiz-adv-x="372" d="M180 575q56 0 99 -48.5t43 -139.5q0 -57 -25.5 -106t-63.5 -78t-78 -44t-71 -12v46q6 1 16 3t35 14t44.5 30t35.5 54.5t16 82.5q-2 -5 -7.5 -11.5t-26 -18t-45.5 -11.5q-54 0 -77.5 31t-23.5 92q0 50 33 83t96 33zM174 791q-51 0 -87 36t-36 86q0 51 36 87t87 36 q50 0 86.5 -36t36.5 -87q0 -49 -36.5 -85.5t-86.5 -36.5z" />
<glyph unicode="&#x3c;" horiz-adv-x="671" d="M600 489v-258l-549 459v53l549 459v-258l-276 -221v-12z" />
<glyph unicode="=" horiz-adv-x="741" d="M72 791v213h598v-213h-598zM72 483v213h598v-213h-598z" />
<glyph unicode="&#x3e;" horiz-adv-x="671" d="M72 944v258l549 -459v-53l-549 -459v258l276 222v12z" />
<glyph unicode="?" horiz-adv-x="802" d="M211 117q0 -54 38 -92.5t93 -38.5q54 0 92.5 38.5t38.5 92.5t-38.5 92.5t-92.5 38.5q-55 0 -93 -38.5t-38 -92.5zM322 981l-240 -59v180q0 167 81.5 256.5t231.5 89.5q79 0 139.5 -24t95.5 -62t56 -90.5t27.5 -102.5t5.5 -106q-2 -66 -5 -93t-18.5 -62.5t-40 -65 t-77.5 -92.5q-10 -11 -15 -17q-12 -14 -36.5 -40.5t-38 -42.5t-29.5 -39t-25 -44q-7 -16 -21 -70.5t-24 -100.5l-10 -46h-86q-43 197 -43 217q-2 44 15.5 89.5t39 76.5t62.5 85t63 87q24 37 34 63.5t11.5 42t1.5 56.5q0 78 -16 114t-66 36q-37 0 -55 -28.5t-18 -76.5v-131z " />
<glyph unicode="@" horiz-adv-x="1134" d="M827 1006l-71 -373q-22 -109 22 -109q39 0 71 31.5t50 78.5t27.5 93t9.5 82q0 76 -22 144t-64.5 124t-113.5 88.5t-161 32.5q-72 0 -146.5 -32.5t-125.5 -104.5q-108 -154 -108 -348q0 -223 100 -344q51 -62 124 -95.5t156 -33.5q49 0 93 10.5t72.5 25t50 29t31.5 25.5 l9 10l82 -102q-120 -120 -331 -129q-68 -3 -133 14t-110 42.5t-80 52t-52 44.5l-17 19q-139 157 -139 436q0 259 152 438q72 85 167.5 131.5t204.5 46.5q111 0 201 -35.5t145.5 -90.5t93.5 -126.5t53 -139.5t15 -134q0 -86 -22 -157t-56.5 -116.5t-79 -76.5t-86.5 -44.5 t-81 -13.5q-48 0 -83.5 23.5t-46.5 46.5l-12 23q-1 -3 -4 -8.5t-16 -19t-29.5 -23.5t-46 -18.5t-65.5 -8.5q-47 0 -82.5 22.5t-52.5 54t-27 63.5t-12 54l-2 23q0 72 26 143t65 121.5t86.5 81.5t90.5 31q17 0 32.5 -3t27.5 -8t21.5 -11t17 -13t12.5 -11.5t8 -9.5l4 -4l12 58 h145zM602 604l45 248q-2 4 -6.5 10t-24 16.5t-43.5 10.5q-61 0 -112 -74t-51 -170q0 -56 21.5 -83t55.5 -27q36 0 65 17.5t40 34.5z" />
<glyph unicode="A" horiz-adv-x="743" d="M365 1075l-41 -596h96l-39 596h-16zM293 0h-242l150 1434h342l149 -1434h-241l-15 250h-127z" />
<glyph unicode="B" horiz-adv-x="768" d="M457 915v250q0 20 -14.5 34.5t-34.5 14.5h-66v-348h66q20 0 34.5 14.5t14.5 34.5zM457 268v326q0 20 -14.5 34.5t-34.5 14.5h-66v-424h66q20 0 34.5 14.5t14.5 34.5zM545 760q55 0 103 -51.5t48 -147.5v-303q0 -106 -76 -182t-182 -76h-336v1434h336q106 0 182 -76 t76 -182v-220q0 -100 -45.5 -148t-105.5 -48z" />
<glyph unicode="C" horiz-adv-x="747" d="M436 565l240 -30v-291q0 -106 -76 -182t-182 -76h-78q-106 0 -182 76t-76 182v946q0 106 76 182t182 76h78q106 0 182 -76t76 -182v-197l-240 -37v224q0 20 -14.5 34.5t-34.5 14.5h-16q-20 0 -34.5 -14.5t-14.5 -34.5v-926q0 -20 14.5 -34.5t34.5 -14.5h16 q20 0 34.5 14.5t14.5 34.5v311z" />
<glyph unicode="D" horiz-adv-x="778" d="M457 268v897q0 20 -14.5 34.5t-34.5 14.5h-66v-995h66q20 0 34.5 14.5t14.5 34.5zM438 1434q106 0 182 -76t76 -182v-918q0 -106 -76 -182t-182 -76h-336v1434h336z" />
<glyph unicode="E" horiz-adv-x="696" d="M342 240h262v-240h-502v1434h502v-240h-262v-348h231v-240h-231v-366z" />
<glyph unicode="F" horiz-adv-x="675" d="M102 1434h502v-240h-262v-348h231v-240h-231v-606h-240v1434z" />
<glyph unicode="G" d="M676 1098l-240 -88v170q0 20 -14.5 34.5t-34.5 14.5h-16q-20 0 -34.5 -14.5t-14.5 -34.5v-926q0 -20 14.5 -34.5t34.5 -14.5h16q20 0 34.5 14.5t14.5 34.5v364h-57v234h297v-608q0 -106 -76 -182t-182 -76h-78q-106 0 -182 76t-76 182v946q0 106 76 182t182 76h78 q106 0 182 -76t76 -182v-92z" />
<glyph unicode="H" horiz-adv-x="819" d="M477 1434h240v-1434h-240v606h-135v-606h-240v1434h240v-588h135v588z" />
<glyph unicode="I" horiz-adv-x="444" d="M102 0v1434h240v-1434h-240z" />
<glyph unicode="J" horiz-adv-x="747" d="M416 1434h239v-1190q0 -106 -76 -182t-182 -76h-78q-106 0 -182 76t-76 182v291l240 61v-342q0 -20 14.5 -34.5t34.5 -14.5h17q20 0 34.5 14.5t14.5 34.5v1180z" />
<glyph unicode="K" horiz-adv-x="854" d="M803 1434l-287 -633l279 -801h-260l-158 483l-35 -84v-399h-240v1434h240v-469l199 469h262z" />
<glyph unicode="L" horiz-adv-x="696" d="M352 1434v-1194h283v-240h-522v1434h239z" />
<glyph unicode="M" horiz-adv-x="1003" d="M670 1434h231v-1434h-254v676h-8l-127 -553h-20l-127 553h-9v-676h-254v1434h232l164 -762h8z" />
<glyph unicode="N" horiz-adv-x="860" d="M342 0h-240v1434h197l209 -664h10v664h240v-1434h-193l-215 696h-8v-696z" />
<glyph unicode="O" d="M418 1448q106 0 182 -76t76 -182v-946q0 -106 -76 -182t-182 -76h-78q-106 0 -182 76t-76 182v946q0 106 76 182t182 76h78zM436 254v926q0 20 -14.5 34.5t-34.5 14.5h-16q-20 0 -34.5 -14.5t-14.5 -34.5v-926q0 -20 14.5 -34.5t34.5 -14.5h16q20 0 34.5 14.5t14.5 34.5z " />
<glyph unicode="P" horiz-adv-x="747" d="M457 852v313q0 20 -14.5 34.5t-34.5 14.5h-66v-411h66q20 0 34.5 14.5t14.5 34.5zM438 1434q106 0 182 -76t76 -182v-334q0 -106 -76 -182t-182 -76h-96v-584h-240v1354v51v29h29h72h235z" />
<glyph unicode="Q" horiz-adv-x="776" d="M387 205q20 0 34.5 14.5t14.5 34.5v926q0 20 -14.5 34.5t-34.5 14.5h-16q-20 0 -34.5 -14.5t-14.5 -34.5v-926q0 -20 14.5 -34.5t34.5 -14.5h16zM694 -106l-196 -89l-121 181h-37q-106 0 -182 76t-76 182v946q0 106 76 182t182 76h78q106 0 182 -76t76 -182v-946 q0 -117 -86 -193z" />
<glyph unicode="R" horiz-adv-x="776" d="M457 831v334q0 20 -14.5 34.5t-34.5 14.5h-66v-432h66q20 0 34.5 14.5t14.5 34.5zM518 592l207 -592h-225l-148 539h-18v-539h-232v1434h336q106 0 182 -76t76 -182v-408q0 -71 -49 -123.5t-129 -52.5z" />
<glyph unicode="S" horiz-adv-x="737" d="M610 721q30 -26 41.5 -54.5t14.5 -70.5v-352q0 -106 -76 -182t-182 -76h-78q-106 0 -182 76t-76 182v231l239 64v-285q0 -20 14.5 -34.5t34.5 -14.5h17q20 0 34.5 14.5t14.5 34.5v270q-3 57 -33 84l-264 203q-31 28 -44 58t-13 75v246q0 106 76 182t182 76h78 q106 0 182 -76t76 -182v-109l-240 -63v162q0 20 -14.5 34.5t-34.5 14.5h-17q-20 0 -34.5 -14.5t-14.5 -34.5v-187q3 -47 31 -71z" />
<glyph unicode="T" horiz-adv-x="708" d="M61 1434h586v-240h-174v-1194h-240v1194h-172v240z" />
<glyph unicode="U" d="M436 1434h240v-1190q0 -106 -76 -182t-182 -76h-78q-106 0 -182 76t-76 182v1190h240v-1180q0 -20 14.5 -34.5t34.5 -14.5h16q20 0 34.5 14.5t14.5 34.5v1180z" />
<glyph unicode="V" horiz-adv-x="798" d="M492 1434h276l-262 -1434h-213l-262 1434h272l92 -959h8z" />
<glyph unicode="W" horiz-adv-x="1191" d="M885 1434h276l-266 -1434h-225l-70 526h-12l-62 -526h-227l-268 1434h274l101 -865h8l78 865h210l78 -865h8z" />
<glyph unicode="X" horiz-adv-x="815" d="M72 1434h245l82 -496h17l82 496h245l-178 -715l178 -719h-245l-82 496h-17l-82 -496h-245l182 719z" />
<glyph unicode="Y" horiz-adv-x="786" d="M272 0v557l-241 877h270l88 -566h8l88 566h271l-242 -877v-557h-242z" />
<glyph unicode="Z" horiz-adv-x="743" d="M379 229h293v-229h-600l288 1204h-288v230h596z" />
<glyph unicode="[" horiz-adv-x="491" d="M31 1671h430v-196h-225v-1516h225v-197h-430v1909z" />
<glyph unicode="\" horiz-adv-x="638" d="M461 0l-451 1434h168l451 -1434h-168z" />
<glyph unicode="]" horiz-adv-x="491" d="M461 -238h-430v197h225v1516h-225v196h430v-1909z" />
<glyph unicode="^" horiz-adv-x="581" d="M315 1434l256 -332h-151l-123 153h-8l-123 -153h-156l260 332h45z" />
<glyph unicode="_" horiz-adv-x="876" d="M825 0v-184h-774v184h774z" />
<glyph unicode="`" horiz-adv-x="409" d="M358 1495h-102l-205 168h158z" />
<glyph unicode="a" horiz-adv-x="743" d="M365 911l-41 -432h96l-39 432h-16zM293 0h-242l150 1229h342l149 -1229h-241l-15 250h-127z" />
<glyph unicode="b" horiz-adv-x="768" d="M457 813v148q0 20 -14.5 34.5t-34.5 14.5h-66v-246h66q20 0 34.5 14.5t14.5 34.5zM457 268v224q0 20 -14.5 34.5t-34.5 14.5h-66v-322h66q20 0 34.5 14.5t14.5 34.5zM545 657q55 0 103 -51t48 -147v-201q0 -106 -76 -182t-182 -76h-336v1229h336q106 0 182 -76t76 -182 v-117q0 -100 -45.5 -148.5t-105.5 -48.5z" />
<glyph unicode="c" horiz-adv-x="747" d="M436 524l240 -30v-250q0 -106 -76 -182t-182 -76h-78q-106 0 -182 76t-76 182v741q0 106 76 182t182 76h78q106 0 182 -76t76 -182v-197l-240 -36v223q0 20 -14.5 34.5t-34.5 14.5h-16q-20 0 -34.5 -14.5t-14.5 -34.5v-721q0 -20 14.5 -34.5t34.5 -14.5h16 q20 0 34.5 14.5t14.5 34.5v270z" />
<glyph unicode="d" horiz-adv-x="778" d="M457 268v693q0 20 -14.5 34.5t-34.5 14.5h-66v-791h66q20 0 34.5 14.5t14.5 34.5zM438 1229q106 0 182 -76t76 -182v-713q0 -106 -76 -182t-182 -76h-336v1229h336z" />
<glyph unicode="e" horiz-adv-x="696" d="M342 240h262v-240h-502v1229h502v-240h-262v-295h231v-239h-231v-215z" />
<glyph unicode="f" horiz-adv-x="675" d="M102 1229h502v-240h-262v-295h231v-239h-231v-455h-240v1229z" />
<glyph unicode="g" d="M676 893l-240 -88v170q0 20 -14.5 34.5t-34.5 14.5h-16q-20 0 -34.5 -14.5t-14.5 -34.5v-721q0 -20 14.5 -34.5t34.5 -14.5h16q20 0 34.5 14.5t14.5 34.5v207h-57v233h297v-450q0 -106 -76 -182t-182 -76h-78q-106 0 -182 76t-76 182v741q0 106 76 182t182 76h78 q106 0 182 -76t76 -182v-92z" />
<glyph unicode="h" horiz-adv-x="819" d="M477 1229h240v-1229h-240v455h-135v-455h-240v1229h240v-535h135v535z" />
<glyph unicode="i" horiz-adv-x="444" d="M102 0v1229h240v-1229h-240z" />
<glyph unicode="j" horiz-adv-x="747" d="M416 1229h239v-985q0 -106 -76 -182t-182 -76h-78q-106 0 -182 76t-76 182v291l240 61v-342q0 -20 14.5 -34.5t34.5 -14.5h17q20 0 34.5 14.5t14.5 34.5v975z" />
<glyph unicode="k" horiz-adv-x="854" d="M803 1229l-287 -531l279 -698h-260l-158 446l-35 -63v-383h-240v1229h240v-367l199 367h262z" />
<glyph unicode="l" horiz-adv-x="696" d="M352 1229v-989h283v-240h-522v1229h239z" />
<glyph unicode="m" horiz-adv-x="1003" d="M670 1229h231v-1229h-254v573h-8l-127 -450h-20l-127 450h-9v-573h-254v1229h232l164 -660h8z" />
<glyph unicode="n" horiz-adv-x="860" d="M342 0h-240v1229h197l209 -561h10v561h240v-1229h-193l-215 594h-8v-594z" />
<glyph unicode="o" d="M418 1243q106 0 182 -76t76 -182v-741q0 -106 -76 -182t-182 -76h-78q-106 0 -182 76t-76 182v741q0 106 76 182t182 76h78zM436 254v721q0 20 -14.5 34.5t-34.5 14.5h-16q-20 0 -34.5 -14.5t-14.5 -34.5v-721q0 -20 14.5 -34.5t34.5 -14.5h16q20 0 34.5 14.5t14.5 34.5z " />
<glyph unicode="p" horiz-adv-x="747" d="M457 750v211q0 20 -14.5 34.5t-34.5 14.5h-66v-310h66q20 0 34.5 15t14.5 35zM438 1229q106 0 182 -76t76 -182v-232q0 -106 -76 -182t-182 -76h-96v-481h-240v1149v51v29h29h72h235z" />
<glyph unicode="q" horiz-adv-x="776" d="M387 205q20 0 34.5 14.5t14.5 34.5v721q0 20 -14.5 34.5t-34.5 14.5h-16q-20 0 -34.5 -14.5t-14.5 -34.5v-721q0 -20 14.5 -34.5t34.5 -14.5h16zM694 -106l-196 -89l-121 181h-37q-106 0 -182 76t-76 182v741q0 106 76 182t182 76h78q106 0 182 -76t76 -182v-741 q0 -117 -86 -193z" />
<glyph unicode="r" horiz-adv-x="776" d="M457 729v232q0 20 -14.5 34.5t-34.5 14.5h-66v-330h66q20 0 34.5 14.5t14.5 34.5zM518 489l207 -489h-225l-148 436h-18v-436h-232v1229h336q106 0 182 -76t76 -182v-305q0 -71 -49 -124t-129 -53z" />
<glyph unicode="s" horiz-adv-x="737" d="M610 578q30 -26 41.5 -54.5t14.5 -70.5v-209q0 -106 -76 -182t-182 -76h-78q-106 0 -182 76t-76 182v139l239 63v-192q0 -20 14.5 -34.5t34.5 -14.5h17q20 0 34.5 14.5t14.5 34.5v127q-3 57 -33 84l-264 203q-31 28 -44 58t-13 75v184q0 106 76 182t182 76h78 q106 0 182 -76t76 -182v-108l-240 -64v162q0 20 -14.5 34.5t-34.5 14.5h-17q-20 0 -34.5 -14.5t-14.5 -34.5v-125q3 -48 31 -72z" />
<glyph unicode="t" horiz-adv-x="708" d="M61 1229h586v-240h-174v-989h-240v989h-172v240z" />
<glyph unicode="u" d="M436 1229h240v-985q0 -106 -76 -182t-182 -76h-78q-106 0 -182 76t-76 182v985h240v-975q0 -20 14.5 -34.5t34.5 -14.5h16q20 0 34.5 14.5t14.5 34.5v975z" />
<glyph unicode="v" horiz-adv-x="798" d="M492 1229h276l-262 -1229h-213l-262 1229h272l92 -754h8z" />
<glyph unicode="w" horiz-adv-x="1191" d="M885 1229h276l-266 -1229h-225l-70 526h-12l-62 -526h-227l-268 1229h274l101 -660h8l78 660h210l78 -660h8z" />
<glyph unicode="x" horiz-adv-x="815" d="M72 1229h245l82 -393h17l82 393h245l-178 -613l178 -616h-245l-82 393h-17l-82 -393h-245l182 616z" />
<glyph unicode="y" horiz-adv-x="786" d="M272 0v557l-241 672h270l88 -361h8l88 361h271l-242 -672v-557h-242z" />
<glyph unicode="z" horiz-adv-x="743" d="M379 229h293v-229h-600l288 999h-288v230h596z" />
<glyph unicode="{" horiz-adv-x="626" d="M182 635h-90v164h90q5 0 14 1t31.5 7t40 16t31.5 30t14 46q0 48 -22.5 101t-49 95.5t-49 112t-22.5 146.5q0 41 10.5 75.5t25.5 58.5t41.5 43t47.5 31t55.5 20.5t53.5 12t53 5.5t43.5 2h34.5v-187q-4 1 -10.5 1.5t-25 0.5t-35.5 -2t-37.5 -8.5t-35.5 -17.5t-25 -30.5 t-10 -45.5q0 -57 22 -122.5t48 -114t48 -103t22 -90.5q0 -54 -34 -100.5t-102 -65.5q68 -19 102 -65.5t34 -100.5q0 -36 -22 -90.5t-48 -103t-48 -114t-22 -122.5q0 -36 18.5 -59.5t45 -32t52.5 -11.5t44 -2l19 2v-186h-34.5t-43.5 2t-53 5.5t-53.5 12t-55.5 20.5t-47.5 31 t-41.5 43t-25.5 58.5t-10.5 75.5q0 77 22.5 146.5t49 112t49 95.5t22.5 101q0 26 -13.5 46t-32.5 30t-38.5 16t-32.5 7z" />
<glyph unicode="|" horiz-adv-x="348" d="M256 -195h-164v1823h164v-1823z" />
<glyph unicode="}" horiz-adv-x="626" d="M444 799h91v-164h-91q-5 0 -14 -1t-31.5 -7t-40 -16t-31.5 -30t-14 -46q0 -48 22.5 -101t49.5 -95.5t49.5 -112t22.5 -146.5q0 -41 -10.5 -75.5t-25.5 -58.5t-41.5 -43t-47.5 -31t-55.5 -20.5t-53.5 -12t-53 -5.5t-43.5 -2h-34.5v186q7 -1 19 -2t43 2t54.5 11.5t42.5 32 t19 59.5q0 72 -35 156t-69.5 156.5t-34.5 117.5q0 54 33.5 100.5t101.5 65.5q-68 19 -101.5 65.5t-33.5 100.5q0 45 34.5 117.5t69.5 156.5t35 156q0 36 -18.5 59.5t-44.5 31.5t-52 11.5t-45 1.5l-18 -2v187h34.5t43.5 -2t53 -5.5t53.5 -12t55.5 -20.5t47.5 -31t41.5 -43 t25.5 -58.5t10.5 -75.5q0 -77 -22.5 -146.5t-49.5 -112t-49.5 -95.5t-22.5 -101q0 -26 13.5 -46t32.5 -30t38.5 -16t32.5 -7z" />
<glyph unicode="~" horiz-adv-x="1038" d="M813 741h154q0 -36 -9.5 -74.5t-31 -77.5t-52.5 -69.5t-78 -49.5t-104 -19q-45 0 -85.5 18t-70 44t-58 52t-63 44t-71.5 18q-49 0 -87 -35t-38 -105h-147q0 131 79.5 215t192.5 84q49 0 100 -28t86.5 -61t79.5 -61t80 -28q52 0 87.5 35.5t35.5 97.5z" />
<glyph unicode="&#xa1;" horiz-adv-x="446" d="M180 1085h86l78 -516v-569h-242v569zM354 1317q0 -54 -38.5 -92.5t-92.5 -38.5t-92.5 38.5t-38.5 92.5t38.5 92.5t92.5 38.5t92.5 -38.5t38.5 -92.5z" />
<glyph unicode="&#xa2;" horiz-adv-x="747" d="M436 678l240 -33v-188q0 -95 -61 -167t-152 -87v-203h-168v203q-91 15 -152 87t-61 167v528q0 94 60.5 165.5t152.5 88.5v195h168v-195q92 -17 152.5 -88.5t60.5 -165.5v-92l-240 -37v119q0 20 -14.5 34.5t-34.5 14.5h-16q-20 0 -34.5 -14.5t-14.5 -34.5v-508 q0 -20 14.5 -34.5t34.5 -14.5h16q20 0 34.5 14.5t14.5 34.5v211z" />
<glyph unicode="&#xa3;" horiz-adv-x="905" d="M811 1014l-240 -62v228q0 20 -14.5 34.5t-34.5 14.5h-16q-20 0 -34.5 -14.5t-14.5 -34.5v-381h209v-131h-209v-138q0 -63 -7 -116.5t-16.5 -84.5t-19 -52.5t-16.5 -30.5l-7 -8q-1 -1 18.5 -8.5t52.5 -15t60 -7.5q49 0 49 49v166l240 -62v-114q0 -109 -71 -184.5 t-185 -75.5q-50 0 -143.5 34.5t-147.5 34.5q-56 0 -114.5 -13.5t-88.5 -26.5l-30 -13v39q8 8 20.5 21.5t44.5 54.5t56.5 80t44.5 90t20 92v289h-67v131h67v391q0 106 76 182t182 76h78q106 0 182 -76t76 -182v-176z" />
<glyph unicode="&#xa4;" horiz-adv-x="976" d="M489 485q91 0 155.5 65.5t64.5 156.5t-64.5 155t-155.5 64t-156 -64t-65 -155t65 -156.5t156 -65.5zM807 461l139 -139l-72 -74l-141 139q-108 -84 -244 -84q-137 0 -245 84l-140 -139l-73 74l139 139q-82 105 -82 246q0 135 84 243h-2l-139 140l73 73l140 -139 q108 84 245 84q132 0 244 -84l141 139l72 -73l-139 -140q84 -108 84 -243q0 -138 -84 -246z" />
<glyph unicode="&#xa5;" horiz-adv-x="786" d="M514 557v-139h137v-111h-137v-82h137v-110h-137v-115h-242v115h-137v110h137v82h-137v111h137v139l-241 877h270l88 -566h8l88 566h271z" />
<glyph unicode="&#xa6;" horiz-adv-x="348" d="M256 803h-164v825h164v-825zM92 541h164v-736h-164v736z" />
<glyph unicode="&#xa7;" horiz-adv-x="753" d="M440 307zM440 877zM465 817q0 35 -25 60v0q-3 3 -15.5 13t-36.5 29.5t-44 36.5q-55 -36 -55 -106v-166q0 -18 0.5 -25t6.5 -19t19 -24q5 -5 26.5 -21.5t54 -41.5t59.5 -47q10 17 10 35v276zM682 1204l-213 -41v133q0 44 -26 73.5t-64 29.5q-36 0 -63 -30t-27 -73v-43 q0 -18 0.5 -25t6.5 -18.5t19 -23.5l320 -254l10.5 -10.5t15 -17.5t11.5 -25.5t6 -38.5v-295q0 -110 -84 -150l41 -33l10.5 -10.5t15 -17.5t11.5 -25.5t6 -38.5v-131q0 -37 -9.5 -72.5t-31.5 -69.5t-53.5 -59.5t-79 -41t-105.5 -15.5h-49q-123 0 -200.5 80.5t-77.5 177.5v152 l213 41v-197q0 -42 27 -72t63 -30q40 0 65 29t25 73v113q0 34 -25 59v0l-329 271q-35 22 -35 86v182q0 71 42 128t107 79l-114 94q-35 22 -35 86v59q0 96 81 177t197 81h49q126 0 202.5 -79.5t76.5 -178.5v-88z" />
<glyph unicode="&#xa8;" horiz-adv-x="704" d="M51 1626q0 54 38.5 92.5t92.5 38.5t92.5 -38.5t38.5 -92.5t-38.5 -92.5t-92.5 -38.5t-92.5 38.5t-38.5 92.5zM391 1626q0 54 38.5 92.5t92.5 38.5t92.5 -38.5t38.5 -92.5t-38.5 -92.5t-92.5 -38.5t-92.5 38.5t-38.5 92.5z" />
<glyph unicode="&#xa9;" horiz-adv-x="552" d="M276 1448q94 0 160 -65.5t66 -159.5t-66 -160t-160 -66t-159.5 66t-65.5 160t65.5 159.5t159.5 65.5zM276 1038q76 0 130.5 54t54.5 131q0 76 -54 130t-131 54q-76 0 -130 -53.5t-54 -130.5t54 -131t130 -54zM291 1200l61 -10v-55q0 -28 -18.5 -47t-46.5 -19h-21 q-28 0 -46.5 19t-18.5 47v178q0 28 18.5 46.5t46.5 18.5h21q28 0 46.5 -18.5t18.5 -46.5v-49l-61 -13v60q0 5 -3.5 8.5t-8.5 3.5h-5q-4 0 -8 -3.5t-4 -8.5v-174q0 -5 4 -9t8 -4h5q4 0 8 4t4 9v63z" />
<glyph unicode="&#xaa;" horiz-adv-x="106" />
<glyph unicode="&#xab;" horiz-adv-x="673" d="M602 625v-174l-270 241v53l270 238v-168l-108 -92v-8zM322 451l-271 241v53l271 238v-168l-109 -92v-8l109 -90v-174z" />
<glyph unicode="&#xac;" horiz-adv-x="993" d="M72 1008h850v-519h-183v357h-667v162z" />
<glyph unicode="&#xad;" horiz-adv-x="630" d="M559 856v-213h-487v213h487z" />
<glyph unicode="&#xae;" horiz-adv-x="552" d="M264 1081h-51v281q0 8 6 8h68q26 0 42.5 -19t16.5 -46v-37q0 -45 -37 -56l47 -131h-59l-33 111v-111zM264 1315v-62h17q4 0 8 4t4 9v37q0 5 -3.5 8.5t-8.5 3.5h-17zM276 1448q94 0 160 -65.5t66 -159.5t-66 -160t-160 -66t-159.5 66t-65.5 160t65.5 159.5t159.5 65.5z M276 1038q76 0 130.5 54t54.5 131q0 76 -54 130t-131 54q-76 0 -130 -53.5t-54 -130.5t54 -131t130 -54z" />
<glyph unicode="&#xaf;" horiz-adv-x="126" />
<glyph unicode="&#xb0;" horiz-adv-x="364" d="M182 1462q54 0 92.5 -38.5t38.5 -92.5t-38.5 -92.5t-92.5 -38.5t-92.5 38.5t-38.5 92.5t38.5 92.5t92.5 38.5zM182 1253q32 0 55 23t23 55t-23 55t-55 23t-55 -23t-23 -55t23 -55t55 -23z" />
<glyph unicode="&#xb1;" horiz-adv-x="917" d="M846 434v-213h-774v213h774zM846 995v-213h-281v-280h-213v280h-280v213h280v281h213v-281h281z" />
<glyph unicode="&#xb2;" horiz-adv-x="137" />
<glyph unicode="&#xb3;" horiz-adv-x="86" />
<glyph unicode="&#xb4;" horiz-adv-x="409" d="M51 1495l150 168h157l-204 -168h-103z" />
<glyph unicode="&#xb5;" horiz-adv-x="1032" d="M723 967h207v-967h-207v137q-2 -5 -6 -14t-21 -31t-38.5 -39t-59.5 -31t-82 -14q-41 0 -77.5 10.5t-59 25.5t-39.5 30.5t-24 25.5l-7 11v-598h-207v1454h207v-549q0 -260 207 -260q105 0 156 82.5t51 228.5v498z" />
<glyph unicode="&#xb6;" horiz-adv-x="974" d="M406 803v411h-66q-20 0 -34.5 -14.5t-14.5 -34.5v-313q0 -20 14.5 -34.5t34.5 -14.5h66zM309 1434h563v-1434h-149v1214h-78v-1214h-239v584h-97q-106 0 -182 76t-76 182v334q0 106 76 182t182 76z" />
<glyph unicode="&#xb7;" horiz-adv-x="86" />
<glyph unicode="&#xb8;" horiz-adv-x="360" d="M152 0h79l-45 -92q51 0 87 -46t36 -102q0 -63 -44 -107t-107 -44q-28 0 -55 10.5t-39 21.5l-13 11l51 47q15 -23 60 -23q36 0 53.5 24t17.5 60q0 43 -24.5 71t-65.5 28q-23 0 -39.5 -9.5t-21.5 -19.5l-6 -10l-23 6z" />
<glyph unicode="&#xb9;" horiz-adv-x="86" />
<glyph unicode="&#xba;" horiz-adv-x="86" />
<glyph unicode="&#xbb;" horiz-adv-x="673" d="M72 809v174l270 -242v-53l-270 -237v165l108 93v10zM352 983l271 -242v-53l-271 -237v165l109 93v10l-109 90v174z" />
<glyph unicode="&#xbc;" horiz-adv-x="116" />
<glyph unicode="&#xbd;" horiz-adv-x="137" />
<glyph unicode="&#xbe;" horiz-adv-x="178" />
<glyph unicode="&#xbf;" horiz-adv-x="802" d="M592 1317q0 -54 -38.5 -92.5t-92.5 -38.5t-92.5 38.5t-38.5 92.5t38.5 92.5t92.5 38.5t92.5 -38.5t38.5 -92.5zM481 453l240 59v-180q0 -167 -81.5 -256.5t-231.5 -89.5q-79 0 -139.5 24t-95.5 62t-56.5 90.5t-28 102.5t-4.5 106q3 112 21 153t112 150q5 5 8 8.5t7 8.5 t8 9q11 13 36 40.5t38 43t29.5 38.5t25.5 44q7 16 21 70.5t24 100.5l10 46h86q41 -197 43 -217q2 -44 -15.5 -89.5t-39 -76.5t-62.5 -85t-63 -87q-24 -37 -34 -63t-11.5 -41.5t-1.5 -56.5q0 -78 16 -114t66 -36q37 0 55 28.5t18 76.5v131z" />
<glyph unicode="&#xc0;" horiz-adv-x="743" d="M362 1075l-38 -596h94l-39 596h-17zM291 0h-240l150 1434h340l151 -1434h-241l-17 250h-127zM422 1495h-103l-204 168h157z" />
<glyph unicode="&#xc1;" horiz-adv-x="743" d="M362 1075l-38 -596h94l-39 596h-17zM291 0h-240l150 1434h340l151 -1434h-241l-17 250h-127zM319 1495l150 168h158l-205 -168h-103z" />
<glyph unicode="&#xc2;" horiz-adv-x="743" d="M365 1075l-39 -596h94l-39 596h-16zM293 0h-242l152 1434h340l149 -1434h-241l-15 250h-127zM397 1663l201 -168h-141l-78 72h-8l-76 -72h-148l205 168h45z" />
<glyph unicode="&#xc3;" horiz-adv-x="743" d="M362 1075l-38 -596h94l-39 596h-17zM291 0h-240l150 1434h340l151 -1434h-241l-17 250h-127zM532 1655h76q0 -63 -37.5 -111.5t-101.5 -48.5q-31 0 -55.5 11.5t-39.5 28.5t-28 33.5t-30 28t-37 11.5q-27 0 -47.5 -22.5t-20.5 -69.5h-78q0 81 45.5 122t100.5 41 q30 0 58.5 -18t46.5 -39t41 -39t42 -18q27 0 46 24.5t19 65.5z" />
<glyph unicode="&#xc4;" horiz-adv-x="743" d="M365 1075l-39 -596h94l-39 596h-16zM293 0h-242l152 1434h340l149 -1434h-241l-15 250h-127zM72 1626q0 54 38 92.5t93 38.5q54 0 92.5 -38.5t38.5 -92.5t-38.5 -92.5t-92.5 -38.5q-55 0 -93 38.5t-38 92.5zM412 1626q0 54 38 92.5t93 38.5q54 0 92.5 -38.5t38.5 -92.5 t-38.5 -92.5t-92.5 -38.5q-55 0 -93 38.5t-38 92.5z" />
<glyph unicode="&#xc5;" horiz-adv-x="743" d="M362 1075l-38 -596h94l-39 596h-17zM291 0h-240l150 1434h340l151 -1434h-241l-17 250h-127zM371 1757q55 0 93 -38.5t38 -92.5t-38 -92.5t-93 -38.5q-54 0 -92.5 38.5t-38.5 92.5t38.5 92.5t92.5 38.5zM371 1548q32 0 55 23t23 55t-23 55t-55 23t-55 -23t-23 -55t23 -55 t55 -23z" />
<glyph unicode="&#xc6;" horiz-adv-x="1144" d="M408 414h133v426h-9zM1042 1194h-262v-348h232v-240h-232v-366h262v-240h-501v174h-215l-60 -174h-235l510 1434h501v-240z" />
<glyph unicode="&#xc7;" horiz-adv-x="747" d="M436 565l240 -30v-291q0 -106 -76 -182t-182 -76h-78q-106 0 -182 76t-76 182v946q0 106 76 182t182 76h78q106 0 182 -76t76 -182v-197l-240 -37v224q0 20 -14.5 34.5t-34.5 14.5h-16q-20 0 -34.5 -14.5t-14.5 -34.5v-926q0 -20 14.5 -34.5t34.5 -14.5h16 q20 0 34.5 14.5t14.5 34.5v311zM350 0l-98 -174l22 -6q2 4 6 10.5t21.5 17.5t40.5 11q41 0 65.5 -28t24.5 -71q0 -35 -18 -59.5t-54 -24.5q-20 0 -35 6t-19 12l-5 5l-51 -47q5 -5 14 -12t36.5 -19t55.5 -12q63 0 107.5 44t44.5 107q0 56 -36 102t-87 46l45 92h-80z" />
<glyph unicode="&#xc8;" horiz-adv-x="702" d="M348 240h262v-240h-501v1434h501v-240h-262v-348h232v-240h-232v-366zM410 1495h-103l-205 168h158z" />
<glyph unicode="&#xc9;" horiz-adv-x="700" d="M342 240h262v-240h-502v1434h502v-240h-262v-348h231v-240h-231v-366zM301 1495l150 168h157l-205 -168h-102z" />
<glyph unicode="&#xca;" horiz-adv-x="696" d="M342 240h262v-240h-502v1434h502v-240h-262v-348h231v-240h-231v-366zM379 1663l201 -168h-142l-78 72h-8l-76 -72h-147l205 168h45z" />
<glyph unicode="&#xcb;" horiz-adv-x="796" d="M391 240h262v-240h-501v1434h501v-240h-262v-348h232v-240h-232v-366zM102 1626q0 54 38 92.5t93 38.5q54 0 93 -38.5t39 -92.5t-39 -92.5t-93 -38.5q-55 0 -93 38.5t-38 92.5zM442 1626q0 54 38 92.5t93 38.5q54 0 93 -38.5t39 -92.5t-39 -92.5t-93 -38.5 q-55 0 -93 38.5t-38 92.5z" />
<glyph unicode="&#xcc;" horiz-adv-x="458" d="M117 0v1434h239v-1434h-239zM287 1495h-103l-204 168h157z" />
<glyph unicode="&#xcd;" horiz-adv-x="456" d="M102 0h240v1434h-240v-1434zM170 1495l149 168h158l-205 -168h-102z" />
<glyph unicode="&#xce;" horiz-adv-x="444" d="M102 0h240v1434h-240v-1434zM248 1663l201 -168h-142l-78 72h-8l-76 -72h-147l205 168h45z" />
<glyph unicode="&#xcf;" horiz-adv-x="491" d="M125 0v1434h240v-1434h-240zM-55 1626q0 54 38 92.5t93 38.5q54 0 92.5 -38.5t38.5 -92.5t-38.5 -92.5t-92.5 -38.5q-55 0 -93 38.5t-38 92.5zM285 1626q0 54 38 92.5t93 38.5q54 0 92.5 -38.5t38.5 -92.5t-38.5 -92.5t-92.5 -38.5q-55 0 -93 38.5t-38 92.5z" />
<glyph unicode="&#xd0;" horiz-adv-x="901" d="M551 1434q106 0 182 -76t76 -182v-918q0 -106 -76 -182t-182 -76h-336v606h-123v240h123v588h336zM569 268v897q0 20 -14.5 34.5t-34.5 14.5h-65v-995h65q20 0 34.5 14.5t14.5 34.5z" />
<glyph unicode="&#xd1;" horiz-adv-x="860" d="M342 0h-240v1434h197l209 -664h10v664h240v-1434h-193l-215 696h-8v-696zM592 1655h76q0 -63 -38.5 -111.5t-103.5 -48.5q-31 0 -54.5 11.5t-38.5 28.5t-28.5 33.5t-30 28t-36.5 11.5q-27 0 -47.5 -22.5t-20.5 -69.5h-77q0 81 45 122t100 41q30 0 58.5 -18t46.5 -39 t41 -39t42 -18q27 0 46.5 24.5t19.5 65.5z" />
<glyph unicode="&#xd2;" d="M418 1448q107 0 182.5 -76t75.5 -182v-946q0 -106 -75.5 -182t-182.5 -76h-78q-106 0 -182 76t-76 182v946q0 106 76 182t182 76h78zM436 254v926q0 21 -14 35t-35 14h-16q-20 0 -34.5 -14.5t-14.5 -34.5v-926q0 -20 14.5 -34.5t34.5 -14.5h16q21 0 35 14t14 35z M430 1495h-102l-205 168h158z" />
<glyph unicode="&#xd3;" d="M82 1190q0 106 76 182t182 76h78q107 0 182.5 -76t75.5 -182v-946q0 -106 -75.5 -182t-182.5 -76h-78q-106 0 -182 76t-76 182v946zM322 1180v-926q0 -20 14.5 -34.5t34.5 -14.5h16q21 0 35 14t14 35v926q0 21 -14 35t-35 14h-16q-20 0 -34.5 -14.5t-14.5 -34.5z M328 1495l149 168h158l-205 -168h-102z" />
<glyph unicode="&#xd4;" d="M403 1663l201 -168h-141l-78 72h-8l-76 -72h-147l204 168h45zM82 1190q0 106 76 182t182 76h78q106 0 182 -76t76 -182v-946q0 -106 -76 -182t-182 -76h-78q-106 0 -182 76t-76 182v946zM322 1180v-926q0 -20 14.5 -34.5t34.5 -14.5h16q20 0 34.5 14.5t14.5 34.5v926 q0 20 -14.5 34.5t-34.5 14.5h-16q-20 0 -34.5 -14.5t-14.5 -34.5z" />
<glyph unicode="&#xd5;" d="M541 1655h75q0 -63 -38 -111.5t-103 -48.5q-38 0 -66.5 17.5t-43 39t-34.5 39t-44 17.5q-27 0 -47.5 -22.5t-20.5 -69.5h-78q0 81 45 122t101 41q30 0 58 -18t46.5 -39t40.5 -39t41 -18q29 0 48.5 24.5t19.5 65.5zM82 1190q0 106 75.5 182t182.5 76h78q106 0 182 -76 t76 -182v-946q0 -106 -76 -182t-182 -76h-78q-107 0 -182.5 76t-75.5 182v946zM322 1180v-926q0 -21 14 -35t35 -14h16q20 0 34.5 14.5t14.5 34.5v926q0 20 -14.5 34.5t-34.5 14.5h-16q-21 0 -35 -14t-14 -35z" />
<glyph unicode="&#xd6;" horiz-adv-x="765" d="M82 1626q0 54 38.5 92.5t92.5 38.5q55 0 93 -38.5t38 -92.5t-38 -92.5t-93 -38.5q-54 0 -92.5 38.5t-38.5 92.5zM422 1626q0 54 38.5 92.5t92.5 38.5q55 0 93 -38.5t38 -92.5t-38 -92.5t-93 -38.5q-54 0 -92.5 38.5t-38.5 92.5zM86 1190q0 106 76 182t182 76h78 q106 0 182 -76t76 -182v-946q0 -106 -76 -182t-182 -76h-78q-106 0 -182 76t-76 182v946zM326 1180v-926q0 -20 14.5 -34.5t34.5 -14.5h16q20 0 34.5 14.5t14.5 34.5v926q0 20 -14.5 34.5t-34.5 14.5h-16q-20 0 -34.5 -14.5t-14.5 -34.5z" />
<glyph unicode="&#xd7;" horiz-adv-x="841" d="M770 551l-152 -150l-198 197l-199 -197l-149 150l198 199l-198 198l149 150l199 -199l198 199l152 -150l-199 -198z" />
<glyph unicode="&#xd8;" horiz-adv-x="858" d="M831 1434l-106 -222v-22v-946q0 -106 -76 -182t-182 -76h-78q-63 0 -118 28.5t-91 77.5l-45 -92h-110l108 221q-2 8 -2 23v946q0 106 76 182t182 76h78q63 0 118 -29t91 -78l45 93h110zM371 1180v-467l114 235v232q0 20 -14.5 34.5t-34.5 14.5h-16q-20 0 -34.5 -14.5 t-14.5 -34.5zM485 254v467l-114 -236v-231q0 -20 14.5 -34.5t34.5 -14.5h16q20 0 34.5 14.5t14.5 34.5z" />
<glyph unicode="&#xd9;" d="M436 1434h240v-1190q0 -106 -75.5 -182t-182.5 -76h-78q-106 0 -182 76t-76 182v1190h240v-1180q0 -20 14.5 -34.5t34.5 -14.5h16q21 0 35 14t14 35v1180zM430 1495h-102l-205 168h158z" />
<glyph unicode="&#xda;" d="M436 1434h240v-1190q0 -106 -75.5 -182t-182.5 -76h-78q-106 0 -182 76t-76 182v1190h240v-1180q0 -20 14.5 -34.5t34.5 -14.5h16q21 0 35 14t14 35v1180zM328 1495l149 168h158l-205 -168h-102z" />
<glyph unicode="&#xdb;" d="M436 1434h240v-1190q0 -106 -76 -182t-182 -76h-78q-106 0 -182 76t-76 182v1190h240v-1180q0 -20 14.5 -34.5t34.5 -14.5h16q20 0 34.5 14.5t14.5 34.5v1180zM403 1663l201 -168h-141l-78 72h-8l-76 -72h-147l204 168h45z" />
<glyph unicode="&#xdc;" horiz-adv-x="765" d="M440 1434h240v-1190q0 -106 -76 -182t-182 -76h-78q-106 0 -182 76t-76 182v1190h240v-1180q0 -20 14.5 -34.5t34.5 -14.5h16q20 0 34.5 14.5t14.5 34.5v1180zM82 1626q0 54 38.5 92.5t92.5 38.5t92.5 -38.5t38.5 -92.5t-38.5 -92.5t-92.5 -38.5t-92.5 38.5t-38.5 92.5z M422 1626q0 54 38.5 92.5t92.5 38.5t92.5 -38.5t38.5 -92.5t-38.5 -92.5t-92.5 -38.5t-92.5 38.5t-38.5 92.5z" />
<glyph unicode="&#xdd;" horiz-adv-x="786" d="M274 0v557l-243 877h270l90 -566h8l88 566h269l-240 -877v-557h-242zM342 1495l150 168h157l-205 -168h-102z" />
<glyph unicode="&#xde;" horiz-adv-x="747" d="M457 559v313q0 22 -14.5 36t-34.5 14h-66v-412h66q20 0 34.5 14.5t14.5 34.5zM438 1141q106 0 182 -75.5t76 -182.5v-334q0 -106 -76 -182t-182 -76h-96v-291h-240v1434h240v-293h96z" />
<glyph unicode="&#xdf;" horiz-adv-x="1257" d="M897 901q6 -2 16 -6.5t39 -21t55.5 -37t58.5 -56t55 -76t39 -98.5t16 -123q0 -130 -69 -242t-184.5 -176.5t-246.5 -64.5h-129v176h129q128 0 217.5 90t89.5 217q0 128 -90 218t-217 90v0h-70v176h70q62 0 104.5 42t42.5 103q0 62 -43 105t-104 43h-70q-122 0 -195 -105 t-73 -297v-430v-428h-236v440v443q0 139 41.5 248.5t113.5 177.5t165 103.5t201 35.5h41q135 0 242.5 -102t107.5 -234q0 -43 -12 -80t-29 -60t-34.5 -40t-29.5 -24z" />
<glyph unicode="&#xe0;" horiz-adv-x="743" d="M422 1290h-103l-204 168h157zM362 911l-38 -432h94l-39 432h-17zM293 0h-242l150 1229h340l151 -1229h-241l-17 250h-127z" />
<glyph unicode="&#xe1;" horiz-adv-x="743" d="M319 1290l150 168h158l-205 -168h-103zM362 911l-38 -432h94l-39 432h-17zM293 0h-242l150 1229h340l151 -1229h-241l-17 250h-127z" />
<glyph unicode="&#xe2;" horiz-adv-x="745" d="M397 1458l201 -168h-141l-78 72h-8l-76 -72h-148l205 168h45zM365 911l-39 -432h94l-39 432h-16zM293 0h-242l152 1229h340l151 -1229h-241l-17 250h-127z" />
<glyph unicode="&#xe3;" horiz-adv-x="743" d="M532 1450h76q0 -63 -37.5 -111.5t-101.5 -48.5q-38 0 -66.5 17.5t-43 39t-34.5 39t-44 17.5q-27 0 -48.5 -22.5t-21.5 -69.5h-78q0 81 46 122.5t102 41.5q29 0 57 -18t46 -39.5t41 -39.5t42 -18q29 0 47 24t18 66zM362 911l-38 -432h94l-39 432h-17zM293 0h-242l150 1229 h340l151 -1229h-241l-17 250h-127z" />
<glyph unicode="&#xe4;" horiz-adv-x="743" d="M72 1421q0 54 38 92.5t93 38.5q54 0 92.5 -38.5t38.5 -92.5t-38.5 -92.5t-92.5 -38.5q-55 0 -93 38.5t-38 92.5zM412 1421q0 54 38 92.5t93 38.5q54 0 92.5 -38.5t38.5 -92.5t-38.5 -92.5t-92.5 -38.5q-55 0 -93 38.5t-38 92.5zM365 911l-41 -432h96l-39 432h-16zM293 0 h-242l152 1229h340l149 -1229h-241l-15 250h-127z" />
<glyph unicode="&#xe5;" horiz-adv-x="743" d="M371 1552q55 0 93 -38.5t38 -92.5t-38 -92.5t-93 -38.5q-54 0 -92.5 38.5t-38.5 92.5t38.5 92.5t92.5 38.5zM371 1343q32 0 55 23t23 55t-23 55t-55 23t-55 -23t-23 -55t23 -55t55 -23zM362 911l-38 -432h96l-41 432h-17zM293 0h-242l150 1229h340l151 -1229h-241 l-17 250h-127z" />
<glyph unicode="&#xe6;" horiz-adv-x="1144" d="M408 414h133v323h-9zM1042 989h-262v-246h232v-239h-232v-264h262v-240h-501v174h-215l-60 -174h-235l510 1229h501v-240z" />
<glyph unicode="&#xe7;" horiz-adv-x="747" d="M676 788l-240 -36v223q0 21 -14 35t-35 14h-16q-20 0 -34.5 -14.5t-14.5 -34.5v-721q0 -20 14.5 -34.5t34.5 -14.5h16q21 0 35 14t14 35v270l240 -30v-250q0 -104 -74 -180.5t-178 -77.5l-39 -78q52 0 88.5 -46t36.5 -102q0 -63 -45.5 -107t-108.5 -44q-27 0 -53.5 10.5 t-39.5 21.5l-13 11l51 47q16 -23 61 -23q36 0 54 24.5t18 59.5q0 43 -24.5 71t-65.5 28q-14 0 -26.5 -4t-19.5 -9.5t-12.5 -11.5t-7.5 -10l-2 -4l-22 6l90 160h-4q-106 0 -182 76t-76 182v741q0 106 76 182t182 76h78q107 0 182.5 -76t75.5 -182v-197z" />
<glyph unicode="&#xe8;" horiz-adv-x="702" d="M348 240h262v-240h-501v1229h501v-240h-262v-246h232v-239h-232v-264zM410 1290h-103l-205 168h158z" />
<glyph unicode="&#xe9;" horiz-adv-x="700" d="M342 240h262v-240h-502v1229h502v-240h-262v-246h231v-239h-231v-264zM301 1290l150 168h157l-205 -168h-102z" />
<glyph unicode="&#xea;" horiz-adv-x="696" d="M342 240h262v-240h-502v1229h502v-240h-262v-246h231v-239h-231v-264zM379 1458l201 -168h-142l-78 72h-8l-76 -72h-147l205 168h45z" />
<glyph unicode="&#xeb;" horiz-adv-x="796" d="M391 240h262v-240h-501v1229h501v-240h-262v-246h232v-239h-232v-264zM102 1421q0 54 38 92.5t93 38.5q54 0 93 -38.5t39 -92.5t-39 -92.5t-93 -38.5q-55 0 -93 38.5t-38 92.5zM442 1421q0 54 38 92.5t93 38.5q54 0 93 -38.5t39 -92.5t-39 -92.5t-93 -38.5 q-55 0 -93 38.5t-38 92.5z" />
<glyph unicode="&#xec;" horiz-adv-x="458" d="M117 0v1229h239v-1229h-239zM287 1290h-103l-204 168h157z" />
<glyph unicode="&#xed;" horiz-adv-x="456" d="M102 0h240v1229h-240v-1229zM170 1290l149 168h158l-205 -168h-102z" />
<glyph unicode="&#xee;" horiz-adv-x="444" d="M102 0h240v1229h-240v-1229zM248 1458l201 -168h-142l-78 72h-8l-76 -72h-147l205 168h45z" />
<glyph unicode="&#xef;" horiz-adv-x="491" d="M125 0v1229h240v-1229h-240zM-55 1421q0 54 38 92.5t93 38.5q54 0 92.5 -38.5t38.5 -92.5t-38.5 -92.5t-92.5 -38.5q-55 0 -93 38.5t-38 92.5zM285 1421q0 54 38 92.5t93 38.5q54 0 92.5 -38.5t38.5 -92.5t-38.5 -92.5t-92.5 -38.5q-55 0 -93 38.5t-38 92.5z" />
<glyph unicode="&#xf0;" horiz-adv-x="901" d="M551 1229q106 0 182 -76t76 -182v-713q0 -106 -76 -182t-182 -76h-336v504h-123v239h123v486h336zM569 268v693q0 20 -14.5 34.5t-34.5 14.5h-65v-791h65q20 0 34.5 14.5t14.5 34.5z" />
<glyph unicode="&#xf1;" horiz-adv-x="860" d="M594 1450h74q0 -64 -37.5 -112t-102.5 -48q-38 0 -66.5 17.5t-43 39t-34.5 39t-44 17.5q-27 0 -47.5 -22.5t-20.5 -69.5h-79q0 81 45.5 122.5t101.5 41.5q29 0 57 -18t46.5 -39.5t41 -39.5t41.5 -18q29 0 48.5 24.5t19.5 65.5zM342 0h-240v1229h197l211 -561h8v561h240 v-1229h-193l-215 594h-8v-594z" />
<glyph unicode="&#xf2;" d="M418 1243q107 0 182.5 -76t75.5 -182v-741q0 -106 -75.5 -182t-182.5 -76h-78q-106 0 -182 76t-76 182v741q0 106 76 182t182 76h78zM436 254v721q0 21 -14 35t-35 14h-16q-20 0 -34.5 -14.5t-14.5 -34.5v-721q0 -20 14.5 -34.5t34.5 -14.5h16q21 0 35 14t14 35z M430 1290h-102l-205 168h158z" />
<glyph unicode="&#xf3;" d="M82 985q0 106 76 182t182 76h78q107 0 182.5 -76t75.5 -182v-741q0 -106 -75.5 -182t-182.5 -76h-78q-106 0 -182 76t-76 182v741zM322 975v-721q0 -20 14.5 -34.5t34.5 -14.5h16q21 0 35 14t14 35v721q0 21 -14 35t-35 14h-16q-20 0 -34.5 -14.5t-14.5 -34.5zM328 1290 l149 168h158l-205 -168h-102z" />
<glyph unicode="&#xf4;" d="M403 1458l201 -168h-141l-78 72h-8l-76 -72h-147l204 168h45zM82 985q0 106 76 182t182 76h78q106 0 182 -76t76 -182v-741q0 -106 -76 -182t-182 -76h-78q-106 0 -182 76t-76 182v741zM322 975v-721q0 -20 14.5 -34.5t34.5 -14.5h16q20 0 34.5 14.5t14.5 34.5v721 q0 20 -14.5 34.5t-34.5 14.5h-16q-20 0 -34.5 -14.5t-14.5 -34.5z" />
<glyph unicode="&#xf5;" d="M541 1450h75q0 -63 -38 -111.5t-103 -48.5q-38 0 -66.5 17.5t-43 39t-34.5 39t-44 17.5q-27 0 -47.5 -22.5t-20.5 -69.5h-78q0 82 45 123t101 41q30 0 58 -18t46.5 -39.5t40.5 -39.5t41 -18q29 0 48.5 24.5t19.5 65.5zM82 985q0 106 75.5 182t182.5 76h78q106 0 182 -76 t76 -182v-741q0 -106 -76 -182t-182 -76h-78q-107 0 -182.5 76t-75.5 182v741zM322 975v-721q0 -21 14 -35t35 -14h16q20 0 34.5 14.5t14.5 34.5v721q0 20 -14.5 34.5t-34.5 14.5h-16q-21 0 -35 -14t-14 -35z" />
<glyph unicode="&#xf6;" horiz-adv-x="765" d="M82 1421q0 54 38.5 92.5t92.5 38.5q55 0 93 -38.5t38 -92.5t-38 -92.5t-93 -38.5q-54 0 -92.5 38.5t-38.5 92.5zM422 1421q0 54 38.5 92.5t92.5 38.5q55 0 93 -38.5t38 -92.5t-38 -92.5t-93 -38.5q-54 0 -92.5 38.5t-38.5 92.5zM86 985q0 106 76 182t182 76h78 q106 0 182 -76t76 -182v-741q0 -106 -76 -182t-182 -76h-78q-106 0 -182 76t-76 182v741zM326 975v-721q0 -20 14.5 -34.5t34.5 -14.5h16q20 0 34.5 14.5t14.5 34.5v721q0 20 -14.5 34.5t-34.5 14.5h-16q-20 0 -34.5 -14.5t-14.5 -34.5z" />
<glyph unicode="&#xf7;" horiz-adv-x="917" d="M72 856h774v-213h-774v213zM459 924q-54 0 -92.5 38.5t-38.5 92.5t38.5 92.5t92.5 38.5t92.5 -38.5t38.5 -92.5t-38.5 -92.5t-92.5 -38.5zM459 575q54 0 92.5 -38.5t38.5 -92.5t-38.5 -92.5t-92.5 -38.5t-92.5 38.5t-38.5 92.5t38.5 92.5t92.5 38.5z" />
<glyph unicode="&#xf8;" horiz-adv-x="868" d="M838 1229l-107 -221v-23v-741q0 -106 -75.5 -182t-182.5 -76h-78q-63 0 -118 28.5t-91 77.5l-45 -92h-110l108 221q-2 8 -2 23v741q0 106 76 182t182 76h78q63 0 118 -28.5t91 -77.5l45 92h111zM377 975v-365l115 236v129q0 20 -15 34.5t-35 14.5h-16q-20 0 -34.5 -14.5 t-14.5 -34.5zM492 254v364l-115 -235v-129q0 -20 14.5 -34.5t34.5 -14.5h16q20 0 35 14.5t15 34.5z" />
<glyph unicode="&#xf9;" d="M436 1229h240v-985q0 -106 -75.5 -182t-182.5 -76h-78q-106 0 -182 76t-76 182v985h240v-975q0 -20 14.5 -34.5t34.5 -14.5h16q21 0 35 14t14 35v975zM430 1290h-102l-205 168h158z" />
<glyph unicode="&#xfa;" d="M436 1229h240v-985q0 -106 -75.5 -182t-182.5 -76h-78q-106 0 -182 76t-76 182v985h240v-975q0 -20 14.5 -34.5t34.5 -14.5h16q21 0 35 14t14 35v975zM328 1290l149 168h158l-205 -168h-102z" />
<glyph unicode="&#xfb;" d="M436 1229h240v-985q0 -106 -76 -182t-182 -76h-78q-106 0 -182 76t-76 182v985h240v-975q0 -20 14.5 -34.5t34.5 -14.5h16q20 0 34.5 14.5t14.5 34.5v975zM403 1458l201 -168h-141l-78 72h-8l-76 -72h-147l204 168h45z" />
<glyph unicode="&#xfc;" horiz-adv-x="765" d="M440 1229h240v-985q0 -106 -76 -182t-182 -76h-78q-106 0 -182 76t-76 182v985h240v-975q0 -20 14.5 -34.5t34.5 -14.5h16q20 0 34.5 14.5t14.5 34.5v975zM82 1421q0 54 38.5 92.5t92.5 38.5t92.5 -38.5t38.5 -92.5t-38.5 -92.5t-92.5 -38.5t-92.5 38.5t-38.5 92.5z M422 1421q0 54 38.5 92.5t92.5 38.5t92.5 -38.5t38.5 -92.5t-38.5 -92.5t-92.5 -38.5t-92.5 38.5t-38.5 92.5z" />
<glyph unicode="&#xfd;" horiz-adv-x="786" d="M342 1290l150 168h157l-205 -168h-102zM272 0v557l-241 672h270l88 -361h8l88 361h271l-242 -672v-557h-242z" />
<glyph unicode="&#xfe;" horiz-adv-x="747" d="M457 559v109q0 21 -14 35t-35 14h-66v-207h66q20 0 34.5 14.5t14.5 34.5zM438 936q106 0 182 -75.5t76 -182.5v-129q0 -106 -76 -182t-182 -76h-96v-291h-240v1229h240v-293h96z" />
<glyph unicode="&#xff;" horiz-adv-x="786" d="M92 1421q0 54 38.5 92.5t92.5 38.5q55 0 93 -38.5t38 -92.5t-38 -92.5t-93 -38.5q-54 0 -92.5 38.5t-38.5 92.5zM432 1421q0 54 38.5 92.5t92.5 38.5q55 0 93 -38.5t38 -92.5t-38 -92.5t-93 -38.5q-54 0 -92.5 38.5t-38.5 92.5zM274 0v557l-243 672h270l90 -361h8l88 361 h269l-240 -672v-557h-242z" />
<glyph unicode="&#x131;" horiz-adv-x="86" />
<glyph unicode="&#x141;" horiz-adv-x="819" d="M475 240h283v-240h-522v637l-123 -98v104l123 100v691h239v-498l137 111v-105l-137 -111v-591z" />
<glyph unicode="&#x142;" horiz-adv-x="819" d="M475 240h283v-240h-522v432l-123 -98v104l123 101v690h239v-498l137 111v-105l-137 -110v-387z" />
<glyph unicode="&#x152;" horiz-adv-x="1040" d="M371 219h65v995h-65q-20 0 -34.5 -14.5t-14.5 -34.5v-897q0 -20 14.5 -34.5t34.5 -14.5zM676 1194v-348h231v-240h-231v-366h262v-240h-598q-106 0 -182 76t-76 182v918q0 106 76 182t182 76h598v-240h-262z" />
<glyph unicode="&#x153;" horiz-adv-x="1040" d="M371 219h65v791h-65q-20 0 -34.5 -14.5t-14.5 -34.5v-693q0 -20 14.5 -34.5t34.5 -14.5zM676 989v-295h231v-239h-231v-215h262v-240h-598q-106 0 -182 76t-76 182v713q0 106 76 182t182 76h598v-240h-262z" />
<glyph unicode="&#x160;" horiz-adv-x="737" d="M610 721q30 -26 41.5 -54.5t14.5 -70.5v-352q0 -106 -76 -182t-182 -76h-78q-106 0 -182 76t-76 182v231l239 64v-285q0 -20 14.5 -34.5t34.5 -14.5h17q20 0 34.5 14.5t14.5 34.5v270q-3 57 -33 84l-264 203q-31 28 -44 58t-13 75v246q0 106 76 182t182 76h78 q106 0 182 -76t76 -182v-109l-240 -63v162q0 20 -14.5 34.5t-34.5 14.5h-17q-20 0 -34.5 -14.5t-14.5 -34.5v-187q3 -47 31 -71zM344 1495l-201 168h142l77 -72h9l75 72h148l-205 -168h-45z" />
<glyph unicode="&#x161;" horiz-adv-x="737" d="M344 1290l-201 168h142l77 -72h9l75 72h148l-205 -168h-45zM610 578q30 -26 41.5 -54.5t14.5 -70.5v-209q0 -106 -76 -182t-182 -76h-78q-106 0 -182 76t-76 182v139l239 63v-192q0 -20 14.5 -34.5t34.5 -14.5h17q20 0 34.5 14.5t14.5 34.5v127q-3 57 -33 84l-264 203 q-31 28 -44 58t-13 75v184q0 106 76 182t182 76h78q106 0 182 -76t76 -182v-108l-240 -64v162q0 20 -14.5 34.5t-34.5 14.5h-17q-20 0 -34.5 -14.5t-14.5 -34.5v-125q3 -48 31 -72z" />
<glyph unicode="&#x178;" horiz-adv-x="786" d="M272 0v557l-241 877h270l88 -566h8l88 566h271l-242 -877v-557h-242zM92 1626q0 54 38.5 92.5t92.5 38.5t92.5 -38.5t38.5 -92.5t-38.5 -92.5t-92.5 -38.5t-92.5 38.5t-38.5 92.5zM432 1626q0 54 38.5 92.5t92.5 38.5t92.5 -38.5t38.5 -92.5t-38.5 -92.5t-92.5 -38.5 t-92.5 38.5t-38.5 92.5z" />
<glyph unicode="&#x17d;" horiz-adv-x="743" d="M379 229h293v-229h-600l288 1204h-288v230h596zM348 1495l-201 168h142l78 -72h8l76 72h147l-205 -168h-45z" />
<glyph unicode="&#x17e;" horiz-adv-x="743" d="M379 229h293v-229h-600l288 999h-288v230h596zM348 1290l-201 168h142l78 -72h8l76 72h147l-205 -168h-45z" />
<glyph unicode="&#x192;" horiz-adv-x="1028" d="M731 1671q54 0 103.5 -18.5t81.5 -45.5t56 -54t35 -45l11 -19l-139 -57q-2 4 -6.5 11t-19 24.5t-30 31t-39 24.5t-47.5 11q-71 0 -112 -44t-41 -159v-579h176v-103h-176v-596q0 -147 -80.5 -219t-208.5 -72q-54 0 -103.5 19t-81 45.5t-55.5 53.5t-35 46l-10 19l140 57 q2 -4 6.5 -11t19 -24.5t30 -31t38.5 -24.5t47 -11q67 0 98 42t31 160v547h-154v103h154v626q0 75 26 133t70.5 92t99 51t115.5 17z" />
<glyph unicode="&#x2c6;" horiz-adv-x="552" d="M301 1663l201 -168h-142l-77 72h-9l-75 -72h-148l205 168h45z" />
<glyph unicode="&#x2c7;" horiz-adv-x="552" d="M252 1495l-201 168h142l77 -72h9l75 72h148l-205 -168h-45z" />
<glyph unicode="&#x2d8;" horiz-adv-x="456" d="M399 1624l7 -2q-9 -28 -29 -51q-15 -24 -39 -41q-50 -35 -111 -35t-108 35q-22 16 -41 41q-19 26 -27 51l6 2h109q0 -22 17 -41.5t44 -19.5q29 0 45.5 19t16.5 42h110z" />
<glyph unicode="&#x2d9;" horiz-adv-x="364" d="M51 1317q0 54 38.5 92.5t92.5 38.5t92.5 -38.5t38.5 -92.5t-38.5 -92.5t-92.5 -38.5t-92.5 38.5t-38.5 92.5z" />
<glyph unicode="&#x2da;" horiz-adv-x="364" d="M182 1757q54 0 92.5 -38.5t38.5 -92.5t-38.5 -92.5t-92.5 -38.5t-92.5 38.5t-38.5 92.5t38.5 92.5t92.5 38.5zM182 1548q32 0 55 23t23 55t-23 55t-55 23t-55 -23t-23 -55t23 -55t55 -23z" />
<glyph unicode="&#x2db;" horiz-adv-x="452" d="M317 -188l84 -35q-1 -6 -4.5 -15.5t-17.5 -34.5t-33 -44t-54.5 -34.5t-78.5 -15.5q-68 0 -115 49t-47 119q0 37 14.5 71t34.5 56t40.5 39t35.5 25l14 8h84q-5 -2 -14 -7t-32 -21.5t-40.5 -35t-32 -49t-14.5 -63.5q0 -32 20.5 -58t55.5 -26q25 0 44.5 7.5t29.5 18t16.5 21 t8.5 17.5z" />
<glyph unicode="&#x2dc;" horiz-adv-x="577" d="M451 1655h75q0 -63 -38 -111.5t-103 -48.5q-31 0 -54.5 11.5t-38.5 28.5t-28.5 33.5t-30 28t-36.5 11.5q-27 0 -47.5 -22.5t-20.5 -69.5h-78q0 81 45.5 122t100.5 41q30 0 58.5 -18t46.5 -39t41 -39t42 -18q27 0 46.5 24.5t19.5 65.5z" />
<glyph unicode="&#x2dd;" horiz-adv-x="620" d="M262 1266l150 168h157l-204 -168h-103zM51 1266l150 168h157l-204 -168h-103z" />
<glyph unicode="&#x3c0;" horiz-adv-x="1038" d="M967 905q0 -90 -54.5 -175.5t-158.5 -108.5v-621h-164v641q-32 17 -80.5 59t-63.5 52v-752h-163v776q-64 -37 -64 -125h-147q0 131 79.5 215t192.5 84q49 0 100 -28t86.5 -61t79.5 -61t80 -28q52 0 87.5 35.5t35.5 97.5h154z" />
<glyph unicode="&#x2000;" horiz-adv-x="878" />
<glyph unicode="&#x2001;" horiz-adv-x="1757" />
<glyph unicode="&#x2002;" horiz-adv-x="878" />
<glyph unicode="&#x2003;" horiz-adv-x="1757" />
<glyph unicode="&#x2004;" horiz-adv-x="585" />
<glyph unicode="&#x2005;" horiz-adv-x="439" />
<glyph unicode="&#x2006;" horiz-adv-x="292" />
<glyph unicode="&#x2007;" horiz-adv-x="292" />
<glyph unicode="&#x2008;" horiz-adv-x="219" />
<glyph unicode="&#x2009;" horiz-adv-x="351" />
<glyph unicode="&#x200a;" horiz-adv-x="97" />
<glyph unicode="&#x2010;" horiz-adv-x="630" d="M559 856v-213h-487v213h487z" />
<glyph unicode="&#x2011;" horiz-adv-x="630" d="M559 856v-213h-487v213h487z" />
<glyph unicode="&#x2012;" horiz-adv-x="630" d="M559 856v-213h-487v213h487z" />
<glyph unicode="&#x2013;" horiz-adv-x="741" d="M670 856v-213h-598v213h598z" />
<glyph unicode="&#x2014;" horiz-adv-x="917" d="M846 856v-213h-774v213h774z" />
<glyph unicode="&#x2018;" horiz-adv-x="374" d="M291 1448v-45q-6 -1 -16 -3t-35.5 -14.5t-45 -31t-35.5 -55t-16 -82.5q2 4 7 11t25.5 18t45.5 11q103 0 103 -122q0 -52 -33 -85.5t-96 -33.5q-57 0 -100.5 49.5t-43.5 140.5q0 76 43.5 135.5t98 85t98.5 21.5z" />
<glyph unicode="&#x2019;" horiz-adv-x="374" d="M84 1016v45q6 1 16 3t35 14.5t44.5 31t35.5 55t16 82.5q-2 -5 -7.5 -11.5t-25.5 -18t-44 -11.5q-55 0 -79 31t-24 92q0 52 33 85.5t96 33.5q57 0 100.5 -50t43.5 -143q0 -57 -26 -106t-64 -77.5t-78.5 -43.5t-71.5 -12z" />
<glyph unicode="&#x201a;" horiz-adv-x="374" d="M84 -199v45q6 1 16 3.5t35 15t44.5 31t35.5 55t16 82.5q-2 -5 -7.5 -11.5t-25.5 -18t-44 -11.5q-55 0 -79 31t-24 92q0 52 33 85t96 33q57 0 100.5 -49.5t43.5 -142.5q0 -57 -26 -106t-64 -78t-78.5 -44t-71.5 -12z" />
<glyph unicode="&#x201c;" horiz-adv-x="710" d="M291 1448v-45q-6 -1 -16 -3t-35.5 -14.5t-45 -31t-35.5 -55t-16 -82.5q2 4 7 11t25.5 18t45.5 11q103 0 103 -122q0 -52 -33 -85.5t-96 -33.5q-57 0 -100.5 49.5t-43.5 140.5q0 76 43.5 135.5t98 85t98.5 21.5zM627 1448v-45q-6 -1 -16 -3t-35.5 -14.5t-45 -31t-35.5 -55 t-16 -82.5q2 4 7 11t25.5 18t45.5 11q102 0 102 -122q0 -52 -33 -85.5t-96 -33.5q-57 0 -100 49t-43 141q0 76 43.5 135.5t98 85t98.5 21.5z" />
<glyph unicode="&#x201d;" horiz-adv-x="710" d="M420 1016v45q6 1 16 3t35 14.5t44.5 31t35.5 55t16 82.5q-3 -5 -8 -11.5t-25.5 -18t-44.5 -11.5q-55 0 -78.5 31t-23.5 92q0 52 33 85.5t96 33.5q57 0 100 -50t43 -143q0 -57 -26 -106t-64 -77.5t-78 -43.5t-71 -12zM84 1016v45q6 1 16 3t35 14.5t44.5 31t35.5 55 t16 82.5q-2 -5 -7.5 -11.5t-25.5 -18t-44 -11.5q-55 0 -79 31t-24 92q0 52 33 85.5t96 33.5q57 0 100.5 -50t43.5 -143q0 -57 -26 -106t-64 -77.5t-78.5 -43.5t-71.5 -12z" />
<glyph unicode="&#x201e;" horiz-adv-x="710" d="M420 -197v45q6 1 16 3.5t35 15t44.5 31t35.5 55t16 82.5q-3 -5 -8 -11.5t-25.5 -18t-44.5 -11.5q-55 0 -78.5 31t-23.5 92q0 52 33 85.5t96 33.5q57 0 100 -50t43 -143q0 -57 -26 -106t-64 -78t-78 -44t-71 -12zM84 -197v45q6 1 16 3.5t35 15t44.5 31t35.5 55t16 82.5 q-2 -5 -7.5 -11.5t-25.5 -18t-44 -11.5q-55 0 -79 31t-24 92q0 52 33 85.5t96 33.5q57 0 100.5 -50t43.5 -143q0 -57 -26 -106t-64 -78t-78.5 -44t-71.5 -12z" />
<glyph unicode="&#x2020;" horiz-adv-x="741" d="M670 1036v-131h-181v-905h-239v905h-178v131h178v398h239v-398h181z" />
<glyph unicode="&#x2021;" horiz-adv-x="741" d="M670 905h-181v-344h181v-131h-181v-430h-239v430h-178v131h178v344h-178v131h178v398h239v-398h181v-131z" />
<glyph unicode="&#x2022;" horiz-adv-x="528" d="M92 717q0 71 51 121.5t121 50.5t121 -50.5t51 -121.5t-51 -121.5t-121 -50.5t-121 50.5t-51 121.5z" />
<glyph unicode="&#x2026;" horiz-adv-x="1044" d="M51 117q0 54 38.5 92.5t92.5 38.5t92.5 -38.5t38.5 -92.5t-38.5 -92.5t-92.5 -38.5t-92.5 38.5t-38.5 92.5zM391 117q0 54 38.5 92.5t92.5 38.5t92.5 -38.5t38.5 -92.5t-38.5 -92.5t-92.5 -38.5t-92.5 38.5t-38.5 92.5zM731 117q0 54 38.5 92.5t92.5 38.5t92.5 -38.5 t38.5 -92.5t-38.5 -92.5t-92.5 -38.5t-92.5 38.5t-38.5 92.5z" />
<glyph unicode="&#x202f;" horiz-adv-x="351" />
<glyph unicode="&#x2030;" horiz-adv-x="1579" d="M889 158v385q0 12 -8.5 20t-20.5 8h-16q-12 0 -20.5 -8t-8.5 -20v-385q0 -12 8.5 -20.5t20.5 -8.5h16q12 0 20.5 8.5t8.5 20.5zM883 715q67 0 115.5 -48.5t48.5 -115.5v-401q0 -68 -48.5 -116t-115.5 -48h-62q-67 0 -115.5 48t-48.5 116v401q0 67 48.5 115.5t115.5 48.5 h62zM1339 158v385q0 12 -8 20t-20 8h-17q-12 0 -20 -8t-8 -20v-385q0 -12 8 -20.5t20 -8.5h17q12 0 20 8.5t8 20.5zM1333 715q67 0 115.5 -48.5t48.5 -115.5v-401q0 -68 -48.5 -116t-115.5 -48h-61q-68 0 -116 48t-48 116v401q0 67 48 115.5t116 48.5h61zM313 891v385 q0 12 -8 20.5t-20 8.5h-17q-12 0 -20 -8.5t-8 -20.5v-385q0 -12 8 -20.5t20 -8.5h17q12 0 20 8.5t8 20.5zM307 1448q67 0 115.5 -48t48.5 -116v-401q0 -67 -48.5 -115.5t-115.5 -48.5h-61q-68 0 -116 48.5t-48 115.5v401q0 68 48 116t116 48h61zM299 0h-168l696 1434h168z " />
<glyph unicode="&#x2039;" horiz-adv-x="86" />
<glyph unicode="&#x203a;" horiz-adv-x="86" />
<glyph unicode="&#x2044;" horiz-adv-x="638" d="M178 0h-168l451 1434h168z" />
<glyph unicode="&#x205f;" horiz-adv-x="439" />
<glyph unicode="&#x20ac;" horiz-adv-x="815" d="M743 1034l-239 -37v183q0 20 -14.5 34.5t-34.5 14.5h-17q-20 0 -34.5 -14.5t-14.5 -34.5v-258h209v-131h-209v-66h209v-131h-209v-340q0 -20 14.5 -34.5t34.5 -14.5h17q20 0 34.5 14.5t14.5 34.5v268l239 -30v-248q0 -106 -76 -182t-182 -76h-77q-106 0 -182 76t-76 182 v350h-68v131h68v66h-68v131h68v268q0 106 76 182t182 76h77q106 0 182 -76t76 -182v-156z" />
<glyph unicode="&#x2122;" horiz-adv-x="571" d="M51 1434h187v-76h-56v-322h-76v322h-55v76zM346 1036h-80v398h76l51 -213l51 213h76v-398h-82v185l-43 -168h-6l-43 168v-185z" />
<glyph unicode="&#x2126;" horiz-adv-x="86" />
<glyph unicode="&#x2202;" horiz-adv-x="86" />
<glyph unicode="&#x2206;" horiz-adv-x="86" />
<glyph unicode="&#x220f;" horiz-adv-x="86" />
<glyph unicode="&#x2211;" horiz-adv-x="86" />
<glyph unicode="&#x2212;" horiz-adv-x="917" d="M846 856v-213h-774v213h774z" />
<glyph unicode="&#x221a;" horiz-adv-x="1355" d="M1130 1434h175l-611 -1434h-174l-213 555l-82 -193h-174l189 371h143l223 -528z" />
<glyph unicode="&#x221e;" horiz-adv-x="1482" d="M1163 795h-350q-23 0 -48.5 -22t-25.5 -46v-20q0 -24 25.5 -46t48.5 -22h350q19 0 34 24t15 46v16q0 22 -15 46t-34 24zM319 639h160q21 0 38.5 22.5t17.5 45.5v20q0 23 -17.5 45.5t-38.5 22.5h-160q-19 0 -34 -24t-15 -46v-16q0 -22 15 -46t34 -24zM461 993 q77 0 125.5 -35.5t48.5 -89.5q0 53 61 99.5t131 46.5h347q106 0 182 -76t76 -182v-78q0 -106 -76 -182t-182 -76h-347q-75 0 -133.5 45.5t-58.5 99.5q0 -55 -48 -89t-126 -34h-152q-108 0 -183 66t-75 170v78q0 104 75 170.5t183 66.5h152z" />
<glyph unicode="&#x222b;" horiz-adv-x="1028" d="M731 1671q54 0 103.5 -18.5t81.5 -45.5t56 -54t35 -45l11 -19l-139 -57q-2 4 -6.5 11t-19 24.5t-30 31t-39 24.5t-47.5 11q-71 0 -112 -44t-41 -159v-1278q0 -147 -80.5 -219t-208.5 -72q-54 0 -103.5 19t-81 45.5t-55.5 53.5t-35 46l-10 19l140 57q2 -4 6.5 -11 t19 -24.5t30 -31t38.5 -24.5t47 -11q67 0 98 42t31 160v1276q0 75 26 133t70.5 92t99 51t115.5 17z" />
<glyph unicode="&#x2248;" horiz-adv-x="1038" d="M813 879h154q0 -97 -69 -168.5t-206 -71.5q-55 0 -104.5 21t-80.5 46.5t-74.5 46.5t-88.5 21q-51 0 -88 -29.5t-37 -99.5h-147q0 126 76 187t196 61q49 0 100 -21.5t86.5 -47t79.5 -47t80 -21.5q53 0 88 31t35 92zM813 584h154q0 -97 -69 -168.5t-206 -71.5 q-55 0 -104.5 21t-80.5 46.5t-74.5 46.5t-88.5 21q-51 0 -88 -29.5t-37 -99.5h-147q0 126 76 187t196 61q49 0 100 -21.5t86.5 -47t79.5 -47t80 -21.5q53 0 88 31t35 92z" />
<glyph unicode="&#x2260;" horiz-adv-x="741" d="M670 791h-207l-47 -95h254v-213h-357l-59 -121h-137l59 121h-104v213h207l45 95h-252v213h356l59 120h138l-60 -120h105v-213z" />
<glyph unicode="&#x2264;" horiz-adv-x="692" d="M621 965l-236 -113v-12l236 -113v-258l-549 350v53l549 351v-258zM72 424h549v-213h-549v213z" />
<glyph unicode="&#x2265;" horiz-adv-x="692" d="M72 965v258l549 -351v-53l-549 -350v258l235 113v12zM621 424v-213h-549v213h549z" />
<glyph unicode="&#x25ca;" horiz-adv-x="1077" d="M815 711v12l-276 350l-277 -350v-12l277 -351zM539 1372l487 -649v-12l-487 -650l-488 650v12z" />
<glyph unicode="&#x25fc;" horiz-adv-x="1228" d="M0 1229h1229v-1229h-1229v1229z" />
<glyph horiz-adv-x="0" />
</font>
</defs>
</svg>
