<?xml version="1.0" encoding="utf-8"?>
<!-- Generator: Adobe Illustrator 19.2.1, SVG Export Plug-In . SVG Version: 6.00 Build 0)  -->
<svg version="1.1" id="Layer_1" xmlns="http://www.w3.org/2000/svg" xmlns:xlink="http://www.w3.org/1999/xlink" x="0px" y="0px"
	 viewBox="0 0 633.1 393.9" style="enable-background:new 0 0 633.1 393.9;" xml:space="preserve">
<style type="text/css">
	.st0{fill:#FFFFFF;}
</style>
<g>
	<g>
		<path class="st0" d="M89.4,249.3l-64.5,17.3v-27.5l9.9-2.7v-59.9l-13.1,3.6v20.9L0,206.7v-48.4l113.8-30.5v48.4L92.3,182v-20.9
			l-13.1,3.5v59.9l10.2-2.7V249.3z"/>
		<path class="st0" d="M162,229.8L116.5,242v-27.5l8.8-2.4l21.6-65.6l-9.3,2.5v-27.5l82.6-22.1v27.5l-9.3,2.5l21.9,54l8.5-2.2v27.5
			l-60,16.1v-25.2l10.1-2.7l-4.4-13.3l-29.4,7.9l-5.1,15.8l9.4-2.5V229.8z M172.8,141.2L162,175.9l20.6-5.5L172.8,141.2z"/>
		<path class="st0" d="M278.6,198.6l-25.8,6.9v-36.8l25.8-6.9c3.1,9.2,8.9,12.7,17.5,10.4c6.2-1.7,9.2-5,9.2-9.9
			c0-2.6-1.1-4.4-3.2-5.5c-2.3-1.3-7.2-2.6-14.6-3.9c-9.4-1.8-16.3-3.6-20.7-5.5c-4.1-1.7-7.6-4.6-10.5-8.8
			c-2.9-4.1-4.4-9.2-4.4-15.1c0-10.7,3.4-20,10.4-27.8c6.9-7.9,15.4-13.1,25.5-15.8c10.1-2.7,18.6-2.1,25.6,1.7v-7.1l26-7v32.7
			l-25.7,6.9c-3.1-8.2-8.7-11.2-16.7-9.1c-5.6,1.5-8.4,4.6-8.4,9.4c0,2.3,0.8,3.8,2.4,4.6c1.6,0.8,6.6,2.1,15,4
			c11.3,2.6,18.8,4.7,22.6,6.3c1.9,0.7,3.9,2,5.9,3.7c2,1.8,3.7,3.7,5,5.7c3.1,4.6,4.6,10,4.6,16.3c0,9.6-3.6,18.8-10.8,27.3
			c-7.1,8.7-16.2,14.5-27.1,17.4c-10.1,2.7-19.3,2.2-27.5-1.6V198.6z"/>
		<path class="st0" d="M443.4,154.4l-64.5,17.2v-27.5l9.9-2.6V81.6l-13.2,3.5v20.9l-21.5,5.8V63.5l113.8-30.5v48.4l-21.5,5.8V66.2
			l-13.1,3.5v59.8l10.1-2.7V154.4z"/>
		<path class="st0" d="M591,114.9l-109.6,29.3v-27.5l8.9-2.4V54.5l-9.1,2.4V29.4L591,0v36.7l-30.2,8.1v-9.2l-26.1,7v17.7l22.7-6
			v23.3l-22.7,6.1v18.8l26.1-7v-9.3l30.2-8.1V114.9z"/>
		<path class="st0" d="M34.2,384.8l-33.7,9V292.4l32.6-8.7v13l-19.6,5.2v28l13.8-3.7v13L13.6,343v34.3l20.6-5.5V384.8z"/>
		<path class="st0" d="M60.3,276.4l12.5,47.1v-50.4l13-3.5V371l-15.4,4.1l-13-51v54.5l-13,3.5V280.7L60.3,276.4z"/>
		<path class="st0" d="M97.4,266.5l13-3.5v88.4l15.4-4.1v13l-28.4,7.6V266.5z"/>
		<path class="st0" d="M134.3,256.6l13.1-3.5v101.4l-13.1,3.5V256.6z"/>
		<path class="st0" d="M183.1,273.9v-17.4l-11.1,3v75.3l11.1-2.9v-23.3l-4.4,1.1v-13l17.4-4.6v40.9c0,4.6-3.9,9.6-8.7,10.9
			l-19.7,5.3c-4.6,1.2-8.7-1.6-8.7-6.2v-84.2c0-4.6,4.1-9.8,8.7-11l19.7-5.3c5-1.3,8.7,1.7,8.7,6.4v21.8L183.1,273.9z"/>
		<path class="st0" d="M207.7,236.9l13-3.5v46.8l11-3v-46.8l13-3.5v101.4l-13,3.5v-41.6l-11,3v41.6l-13,3.5V236.9z"/>
		<path class="st0" d="M263.6,235l-11.6,3.1v-13l36.3-9.7v13l-11.6,3.1v88.4l-13.1,3.5V235z"/>
		<path class="st0" d="M329.2,305.8l-33.6,9V213.4l32.6-8.8v13.1l-19.6,5.2v28l13.8-3.7v13l-13.8,3.7v34.3l20.6-5.5V305.8z"/>
		<path class="st0" d="M355.2,197.4l12.5,47.1V194l13-3.5V292l-15.3,4.2l-13-51v54.5l-13.1,3.5V201.7L355.2,197.4z"/>
		<path class="st0" d="M437,276.9v-54.8L426.3,258l-10.6,2.8l-9.8-30.4v54.8l-13.5,3.6V187.4l13.1-3.4l15.5,46.5l16.1-55l13-3.5
			v101.4L437,276.9z"/>
		<path class="st0" d="M495.3,261.3l-33.6,9V168.9l32.6-8.8v13l-19.5,5.2v28l13.8-3.7v13l-13.8,3.7v34.3l20.6-5.5V261.3z"/>
		<path class="st0" d="M521.4,152.9l12.5,47.1v-50.4l13-3.5v101.4l-15.4,4.1l-13.1-51v54.5l-13,3.5V157.1L521.4,152.9z"/>
		<path class="st0" d="M565.7,154l-11.6,3.1v-13.1l36.3-9.7v13l-11.6,3.1v88.4l-13.1,3.5V154z"/>
	</g>
	<g>
		<path class="st0" d="M633.1,203.6c0,11.9-9.4,23.8-21.5,27c-12,3.2-21.7-3.6-21.7-15.5c0-11.7,9.6-23.6,21.7-26.8
			C623.7,185.1,633.1,192,633.1,203.6z M595.2,213.8c0,9.4,6.9,14.9,16.4,12.4c9.2-2.5,16-11.7,16-21c0-9.4-6.8-15.1-16.2-12.6
			C602.2,195.1,595.2,204.5,595.2,213.8z M608.2,221.3l-4.9,1.3l0-21c1.9-0.9,4.6-1.9,8.1-2.8c4-1.1,5.8-0.9,7.3-0.4
			c1.2,0.6,2.1,2,2.1,4.1c0,2.3-1.8,4.6-4.4,6v0.3c2,0.2,3.2,1.4,3.8,4.1c0.6,3,1,4.2,1.5,4.8l-5.3,1.4c-0.6-0.6-1-2.4-1.7-4.7
			c-0.4-2.2-1.7-2.9-4.4-2.2l-2.3,0.6L608.2,221.3z M608.3,209.4l2.3-0.6c2.7-0.7,4.9-2.2,4.9-4.4c0-1.9-1.4-2.8-4.5-2
			c-1.3,0.3-2.2,0.7-2.7,1L608.3,209.4z"/>
	</g>
</g>
</svg>
