<?xml version="1.0" standalone="no"?>
<!DOCTYPE svg PUBLIC "-//W3C//DTD SVG 1.1//EN" "http://www.w3.org/Graphics/SVG/1.1/DTD/svg11.dtd" >
<svg xmlns="http://www.w3.org/2000/svg">
<metadata></metadata>
<defs>
<font id="franchiseregular" horiz-adv-x="690" >
<font-face units-per-em="2048" ascent="1536" descent="-512" />
<missing-glyph horiz-adv-x="270" />
<glyph unicode=" "  horiz-adv-x="270" />
<glyph unicode="&#x09;" horiz-adv-x="270" />
<glyph unicode="&#xa0;" horiz-adv-x="270" />
<glyph unicode="!" horiz-adv-x="372" d="M225 297h-80l-51 756v381h182v-381zM186 195q-43 0 -73.5 -31t-30.5 -74t30.5 -73.5t73.5 -30.5t74 30.5t31 73.5t-31 74t-74 31z" />
<glyph unicode="&#x22;" horiz-adv-x="487" d="M276 1434h170l-106 -377h-64v377zM41 1057v377h170l-107 -377h-63z" />
<glyph unicode="#" horiz-adv-x="1138" d="M1077 795h-317l-25 -152h342v-102h-360l-58 -330h-102l57 330h-151l-57 -330h-103l57 330h-299v102h318l24 152h-342v102h361l57 330h103l-58 -330h152l57 330h103l-58 -330h299v-102zM633 643l24 152h-151l-25 -152h152z" />
<glyph unicode="$" horiz-adv-x="671" d="M610 1030l-174 -51v166q0 38 -26 64t-64 26h-20q-37 0 -63.5 -26t-26.5 -64v-154q1 -18 2.5 -26t7.5 -20t18 -23l295 -228q47 -43 49 -108v-301q0 -91 -61 -159t-150 -77v-90h-125v90q-90 9 -150.5 76.5t-60.5 159.5v245l172 52v-295q0 -37 27 -63.5t64 -26.5h20 q38 0 64 26.5t26 63.5v252q0 49 -26 71l-299 238q-46 40 -46 108v193q0 90 60.5 157t148.5 78v91h125v-91q90 -9 151.5 -76t61.5 -159v-119z" />
<glyph unicode="%" horiz-adv-x="1067" d="M879 147v406q0 26 -18.5 43.5t-43.5 17.5h-16q-25 0 -43.5 -17.5t-18.5 -43.5v-406q0 -26 18.5 -43.5t43.5 -17.5h16q25 0 43.5 17.5t18.5 43.5zM836 715q66 0 112.5 -46.5t46.5 -111.5v-414q0 -65 -46.5 -111t-112.5 -46h-54q-66 0 -112.5 46t-46.5 111v414 q0 65 46.5 111.5t112.5 46.5h54zM326 881v405q0 26 -17.5 44t-42.5 18h-18q-25 0 -42.5 -18t-17.5 -44v-405q0 -26 17.5 -44t42.5 -18h18q25 0 42.5 18t17.5 44zM285 1448q64 0 110.5 -46.5t46.5 -111.5v-413q0 -65 -46.5 -111.5t-110.5 -46.5h-56q-64 0 -110.5 46.5 t-46.5 111.5v413q0 65 46.5 111.5t110.5 46.5h56zM240 0h-111l696 1434h111z" />
<glyph unicode="&#x26;" horiz-adv-x="800" d="M455 569l264 -69v-82l-90 24v-219q0 -98 -70 -167.5t-168 -69.5h-72q-98 0 -167.5 69.5t-69.5 167.5v375q0 73 41 121.5t106 48.5q-65 0 -106 45.5t-41 114.5v282q0 98 69.5 168t167.5 70h72q98 0 168 -70t70 -168v-252l-174 54v194q0 38 -26 64t-64 26h-21 q-37 0 -63.5 -26t-26.5 -64v-274q0 -38 27 -64t65 -26h105v-144h-105q-40 0 -66 -26t-26 -64v-383q0 -37 26.5 -63.5t63.5 -26.5h21q38 0 64 26.5t26 63.5v344z" />
<glyph unicode="'" horiz-adv-x="251" d="M41 1057v377h170l-107 -377h-63z" />
<glyph unicode="(" horiz-adv-x="432" d="M360 -145q-7 4 -19.5 12t-47.5 40.5t-67 73.5t-71.5 113t-67.5 156t-47.5 206.5t-19.5 260.5q0 108 11.5 207t31.5 174.5t45.5 142t53.5 114.5t56 87t53.5 64t45.5 42t31 24l12 7l52 -57q-5 -4 -14 -11.5t-35 -38.5t-49.5 -69.5t-52.5 -106t-50 -145.5t-35 -192t-14 -242 t14 -241.5t36 -193t48.5 -146t53 -107t48.5 -68.5t36 -39l14 -12z" />
<glyph unicode=")" horiz-adv-x="432" d="M72 1579q7 -4 19.5 -12t47.5 -40.5t67 -73.5t71.5 -113t67.5 -156t47.5 -206.5t19.5 -260.5q0 -108 -11.5 -207t-31.5 -174.5t-45.5 -142t-53.5 -114.5t-56 -87t-53.5 -64t-45.5 -42t-31 -24l-12 -7l-52 55q5 4 14 11.5t35 39t49.5 69.5t52.5 106t50 146.5t35 192.5 t14 242t-14 241.5t-36 193t-48.5 145.5t-53 106.5t-48.5 68.5t-36 39l-14 11z" />
<glyph unicode="*" horiz-adv-x="489" d="M279 1167l10 -151h-88l10 151l-125 -86l-45 78l137 66l-137 65l45 78l125 -86l-10 152h88l-10 -152l124 86l46 -78l-138 -65l138 -66l-46 -78z" />
<glyph unicode="+" horiz-adv-x="860" d="M799 758v-148h-295v-295h-148v295h-295v148h295v295h148v-295h295z" />
<glyph unicode="," horiz-adv-x="307" d="M68 -166v37q5 1 13 3t29 12.5t37.5 25.5t29.5 45.5t13 69.5q-2 -4 -6.5 -10t-21 -15.5t-37.5 -9.5q-45 0 -64.5 25.5t-19.5 76.5q0 42 27.5 70.5t78.5 28.5q48 0 83.5 -41t35.5 -119q0 -92 -69 -149t-129 -50z" />
<glyph unicode="-" horiz-adv-x="610" d="M549 758v-148h-488v148h488z" />
<glyph unicode="." horiz-adv-x="290" d="M145 195q43 0 74 -31t31 -74t-31 -73.5t-74 -30.5t-73.5 30.5t-30.5 73.5t30.5 74t73.5 31z" />
<glyph unicode="/" horiz-adv-x="561" d="M111 0h-111l451 1434h110z" />
<glyph unicode="0" horiz-adv-x="731" d="M401 1448q98 0 168 -70t70 -168v-987q0 -98 -70 -167.5t-168 -69.5h-71q-98 0 -168 69.5t-70 167.5v987q0 98 70 168t168 70h71zM465 225v981q0 38 -26 64t-64 26h-21q-37 0 -63.5 -26t-26.5 -64v-981q0 -37 26.5 -63.5t63.5 -26.5h21q38 0 64 26.5t26 63.5z" />
<glyph unicode="1" horiz-adv-x="479" d="M248 1434h139v-1434h-172v1143q-9 -7 -25 -17.5t-64.5 -28.5t-94.5 -18v129q18 0 52.5 17t72 45t65 72.5t27.5 91.5z" />
<glyph unicode="2" horiz-adv-x="692" d="M242 164h368v-164h-524q-14 55 -14 139q0 34 9 74.5t23.5 80.5t36 85t43 84.5t48.5 83t48.5 76.5t47 69t40 56t31 42t17.5 23q10 15 14 23q2 4 6 34v74l-2 262q0 38 -26 64t-64 26h-20q-37 0 -64 -26t-27 -64v-143l-172 -47v194q0 98 70 168t168 70h72q98 0 167.5 -70 t69.5 -168v-266q0 -79 -8 -115q-4 -36 -55 -108q-3 -4 -33.5 -47t-60.5 -86t-69.5 -106t-69 -117t-50 -109.5t-20.5 -91.5z" />
<glyph unicode="3" horiz-adv-x="710" d="M629 928q0 -68 -41.5 -114t-106.5 -46q65 0 106.5 -48.5t41.5 -121.5v-375q0 -98 -70 -167.5t-168 -69.5h-72q-98 0 -167.5 69.5t-69.5 167.5v230l172 45v-273q0 -37 26.5 -63.5t63.5 -26.5h21q38 0 64 26.5t26 63.5l2 383q0 38 -26 64t-66 26h-107v144h107q38 0 65 26 t27 64l-2 274q0 38 -26 64t-64 26h-21q-37 0 -63.5 -26t-26.5 -64v-143l-172 -47v194q0 98 69.5 168t167.5 70h72q98 0 168 -70t70 -168v-282z" />
<glyph unicode="4" horiz-adv-x="741" d="M399 461v614l-12 -2q-23 -128 -88.5 -318.5t-110.5 -293.5h211zM563 461h96v-158h-96v-303h-170v303h-352v141q11 25 29.5 69t67.5 171t89 243t79 259.5t52 247.5h205v-973z" />
<glyph unicode="5" horiz-adv-x="710" d="M412 911q103 0 160 -62t57 -157v-469q0 -98 -70 -167.5t-168 -69.5h-72q-98 0 -167.5 69.5t-69.5 167.5v109l172 45v-152q0 -37 26.5 -63.5t63.5 -26.5h21q38 0 64 26.5t26 63.5v439q0 45 -25 72.5t-65 27.5h-21q-36 0 -63 -29.5t-27 -70.5v-84l-172 45v809h500v-164 h-328v-430q2 3 6.5 7.5t20 17t32.5 22t44 17t55 7.5z" />
<glyph unicode="6" horiz-adv-x="710" d="M344 764q-36 0 -63 -29.5t-27 -70.5v-439q0 -37 26.5 -63.5t63.5 -26.5h21q38 0 64 26.5t26 63.5v439q0 45 -25 72.5t-65 27.5h-21zM629 1106l-174 -51v151q0 38 -26 64t-64 26h-21q-37 0 -63.5 -26t-26.5 -64v-364q69 69 158 69q103 0 160 -62t57 -157v-469 q0 -98 -70 -167.5t-168 -69.5h-72q-98 0 -167.5 69.5t-69.5 167.5v987q0 98 69.5 168t167.5 70h72q98 0 168 -70t70 -168v-104z" />
<glyph unicode="7" horiz-adv-x="610" d="M41 1434h518v-152q-28 -73 -54 -165t-59 -249.5t-53 -383.5t-20 -484h-174q0 205 18 410.5t40.5 342t52.5 269t43 176.5t24 78h-336v158z" />
<glyph unicode="8" horiz-adv-x="710" d="M254 1206v-274q0 -38 27 -66t65 -28h19q38 0 64 27.5t26 66.5v274q0 38 -26 64t-64 26h-21q-37 0 -63.5 -26t-26.5 -64zM455 225v383q0 39 -25.5 66.5t-64.5 27.5h-19q-39 0 -65.5 -27.5t-26.5 -66.5v-383q0 -37 26.5 -63.5t63.5 -26.5h21q38 0 64 26.5t26 63.5zM82 1210 q0 98 69.5 168t167.5 70h72q98 0 168 -70t70 -168v-243q0 -5 -1 -27t-1 -25q-7 -61 -50.5 -99.5t-87.5 -43.5q-4 -4 0 -4q62 -4 101 -55.5t39 -114.5v-375q0 -98 -70 -167.5t-168 -69.5h-72q-98 0 -167.5 69.5t-69.5 167.5v375q0 66 38 116.5t99 53.5q4 0 0 4 q-43 5 -85.5 43t-49.5 98q-2 8 -2 54v243z" />
<glyph unicode="9" horiz-adv-x="710" d="M365 670q37 0 63.5 29.5t26.5 70.5v436q0 38 -26 64t-64 26h-21q-37 0 -63.5 -26t-26.5 -64v-436q0 -45 25.5 -72.5t64.5 -27.5h21zM82 328l172 51v-154q0 -37 26.5 -63.5t63.5 -26.5h21q38 0 64 26.5t26 63.5v367q-70 -70 -158 -70q-102 0 -158.5 61.5t-56.5 157.5v469 q0 98 69.5 168t167.5 70h72q98 0 168 -70t70 -168v-987q0 -98 -70 -167.5t-168 -69.5h-72q-98 0 -167.5 69.5t-69.5 167.5v105z" />
<glyph unicode=":" horiz-adv-x="290" d="M145 709q-43 0 -73.5 30.5t-30.5 73.5t30.5 74t73.5 31t74 -31t31 -74t-31 -73.5t-74 -30.5zM145 328q-43 0 -73.5 30.5t-30.5 73.5t30.5 74t73.5 31t74 -31t31 -74t-31 -73.5t-74 -30.5z" />
<glyph unicode=";" horiz-adv-x="307" d="M147 539q47 0 83 -41.5t36 -118.5q0 -92 -68.5 -148t-129.5 -51v37q5 1 13 3t29 12.5t37.5 25.5t29.5 45.5t13 69.5q-2 -4 -6.5 -10t-21 -15.5t-37.5 -9.5q-45 0 -64.5 25.5t-19.5 76.5q0 42 27.5 70.5t78.5 28.5zM141 717q-41 0 -70.5 29.5t-29.5 70.5t29.5 71t70.5 30 q40 0 70.5 -30t30.5 -71t-30.5 -70.5t-70.5 -29.5z" />
<glyph unicode="&#x3c;" horiz-adv-x="651" d="M590 369v-187l-549 461v49l549 461v-186l-363 -293v-12z" />
<glyph unicode="=" horiz-adv-x="720" d="M61 731v148h598v-148h-598zM61 483v148h598v-148h-598z" />
<glyph unicode="&#x3e;" horiz-adv-x="651" d="M61 967v186l549 -461v-49l-549 -461v187l363 293v12z" />
<glyph unicode="?" horiz-adv-x="727" d="M305 -14q-40 0 -69 29t-29 69t29 69t69 29t69 -29t29 -69t-29 -69t-69 -29zM215 1006l-143 -41v159q0 48 10 93t32.5 87.5t55 74t81 50.5t107.5 19q297 0 297 -406v-2q-3 -113 -18 -147q-2 -6 -125.5 -160.5t-134.5 -175.5q-8 -17 -17.5 -82.5t-15.5 -122.5l-6 -57h-80 l-4 43q-5 44 -9.5 103.5t-4.5 99.5q0 33 58 115t116 148l59 66q26 28 32.5 51t6.5 76v22v58.5t-3 57t-8.5 57.5t-16.5 47.5t-27.5 40.5t-41.5 24.5t-57 10.5q-70 0 -106.5 -57.5t-36.5 -120.5v-131z" />
<glyph unicode="@" horiz-adv-x="1040" d="M786 979q-23 -81 -42 -148t-29 -100.5t-16.5 -56.5t-8.5 -29.5t-2 -7.5q-7 -25 -8 -53.5t12 -53t41 -24.5q16 0 34.5 4t46 22.5t49 49t37 89.5t15.5 138q0 57 -12 113.5t-41 112t-71 98t-108 68.5t-146 26q-76 0 -143.5 -32t-115.5 -84.5t-82.5 -119.5t-51.5 -138.5 t-17 -139.5q0 -99 25.5 -183.5t67.5 -142t96 -98.5t110 -59.5t111 -18.5q51 0 98 11t77.5 27t54 32t33.5 27l11 11l45 -55q-4 -5 -11.5 -13.5t-36.5 -30.5t-63.5 -39t-94 -30.5t-126.5 -13.5q-62 0 -127 21t-129 67t-114.5 112t-81.5 164.5t-31 215.5q0 138 43 252t114 186 t158.5 111t180.5 39v0q108 0 193 -36.5t134 -90.5t81 -124.5t43 -130.5t11 -116q0 -154 -77.5 -266.5t-202.5 -112.5q-37 0 -66 12.5t-43.5 30t-23.5 34.5t-11 29l-2 13l-5.5 -11t-17 -25.5t-30 -32t-44.5 -25t-60 -11.5q-12 0 -26.5 3.5t-35 15.5t-36.5 31t-27.5 54.5 t-11.5 80.5q0 81 33.5 164t94 140.5t128.5 57.5v0q25 0 45 -7t31 -16.5t19 -19.5t10 -17l3 -7l23 55v2h120zM569 623l58 217q0 3 -0.5 7.5t-5.5 16t-13.5 20.5t-27.5 16t-45 7q-46 0 -83.5 -43.5t-55 -97.5t-17.5 -98q0 -54 19.5 -84t47.5 -37q19 -5 38.5 1t34 18t26.5 25 t18 23z" />
<glyph unicode="A" horiz-adv-x="667" d="M330 1182l-74 -758h158l-68 758h-16zM213 0h-172l174 1434h244l168 -1434h-170l-27 264h-190z" />
<glyph unicode="B" horiz-adv-x="700" d="M375 834q37 0 64.5 27.5t27.5 64.5l-2 266q0 38 -26 64t-64 26h-111v-448h111zM465 240l2 348q0 37 -27.5 64.5t-64.5 27.5h-111v-530h111q38 0 64 26.5t26 63.5zM639 938q0 -79 -47.5 -129.5t-114.5 -50.5q65 0 113.5 -53.5t48.5 -131.5v-335q0 -98 -70 -168t-168 -70 h-309v1434h309q98 0 168 -70t70 -168v-258z" />
<glyph unicode="C" horiz-adv-x="679" d="M444 565l174 -37v-305q0 -98 -69.5 -167.5t-167.5 -69.5h-72q-98 0 -167.5 69.5t-69.5 167.5v987q0 98 69.5 168t167.5 70h72q98 0 167.5 -70t69.5 -168v-211l-174 -38v245q0 38 -26 64t-64 26h-20q-37 0 -63.5 -26t-26.5 -64v-981q0 -37 26.5 -63.5t63.5 -26.5h20 q38 0 64 26.5t26 63.5v340z" />
<glyph unicode="D" horiz-adv-x="710" d="M465 240v952q0 38 -26 64t-64 26h-111v-1132h111q38 0 64 26.5t26 63.5zM401 1434q98 0 168 -70t70 -168v-958q0 -98 -70 -168t-168 -70h-309v1434h309z" />
<glyph unicode="E" horiz-adv-x="622" d="M264 172h277v-172h-449v1434h449v-172h-277v-474h246v-172h-246v-444z" />
<glyph unicode="F" horiz-adv-x="602" d="M92 1434h449v-172h-277v-474h246v-172h-246v-616h-172v1434z" />
<glyph unicode="G" d="M618 1100l-174 -64v170q0 38 -26 64t-64 26h-20q-37 0 -63.5 -26t-26.5 -64v-981q0 -37 26.5 -63.5t63.5 -26.5h20q38 0 64 26.5t26 63.5v400h-106v166h280v-568q0 -98 -69.5 -167.5t-167.5 -69.5h-72q-98 0 -167.5 69.5t-69.5 167.5v987q0 98 69.5 168t167.5 70h72 q98 0 167.5 -70t69.5 -168v-110z" />
<glyph unicode="H" horiz-adv-x="753" d="M264 1434v-646h223v646h175v-1434h-175v616h-223v-616h-172v1434h172z" />
<glyph unicode="I" horiz-adv-x="356" d="M264 0h-172v1434h172v-1434z" />
<glyph unicode="J" horiz-adv-x="679" d="M424 1434h174v-1211q0 -98 -70 -167.5t-168 -69.5h-71q-98 0 -168 69.5t-70 167.5v275l172 51v-324q0 -37 26.5 -63.5t63.5 -26.5h21q38 0 64 26.5t26 63.5v1209z" />
<glyph unicode="K" horiz-adv-x="772" d="M731 1434l-285 -627l283 -807h-190l-193 590l-80 -207v-383h-174v1434h174v-641l277 641h188z" />
<glyph unicode="L" horiz-adv-x="624" d="M274 1434v-1262h299v-172h-471v1434h172z" />
<glyph unicode="M" horiz-adv-x="954" d="M696 1434h166v-1434h-180v854h-10l-187 -729h-16l-188 729h-9v-854h-180v1434h164l217 -877h8z" />
<glyph unicode="N" horiz-adv-x="796" d="M264 0h-172v1434h148l280 -883h10v883h175v-1434h-154l-277 864h-10v-864z" />
<glyph unicode="O" d="M381 1448q98 0 167.5 -70t69.5 -168v-987q0 -98 -69.5 -167.5t-167.5 -69.5h-72q-98 0 -167.5 69.5t-69.5 167.5v987q0 98 69.5 168t167.5 70h72zM444 225v981q0 38 -26 64t-64 26h-20q-37 0 -63.5 -26t-26.5 -64v-981q0 -37 26.5 -63.5t63.5 -26.5h20q38 0 64 26.5 t26 63.5z" />
<glyph unicode="P" horiz-adv-x="677" d="M465 856v336q0 38 -26.5 64t-63.5 26h-113v-516h113q37 0 63.5 26.5t26.5 63.5zM92 1434h307q98 0 168 -70t70 -168v-342q0 -92 -60.5 -159.5t-150.5 -76.5q-8 -2 -51 -2h-113v-616h-170v1434z" />
<glyph unicode="Q" d="M356 135q37 0 63.5 26.5t26.5 63.5v981q0 38 -26.5 64t-63.5 26h-20q-38 0 -64 -26t-26 -64v-981q0 -37 26 -63.5t64 -26.5h20zM72 1210q0 98 69.5 168t167.5 70h72q98 0 167.5 -70t69.5 -168v-987q0 -60 -29 -112t-77 -82l106 -164l-131 -62l-122 183h-37q-33 0 -39 2 q-91 8 -154 75.5t-63 159.5v987z" />
<glyph unicode="R" horiz-adv-x="698" d="M262 1282v-526h113q37 0 63.5 26.5t26.5 63.5v346q0 38 -26.5 64t-63.5 26h-113zM455 621l202 -621h-163l-175 594h-61v-594h-166v1434h307q98 0 168 -70t70 -168v-379q0 -77 -51 -133.5t-131 -62.5z" />
<glyph unicode="S" horiz-adv-x="671" d="M610 1092l-174 -52v166q0 38 -26 64t-64 26h-20q-37 0 -63.5 -26t-26.5 -64v-215q1 -18 2.5 -26t7.5 -20t18 -23l295 -228q47 -43 49 -108v-363q0 -98 -69.5 -167.5t-167.5 -69.5h-72q-98 0 -168 69.5t-70 167.5v246l172 51v-295q0 -37 27 -63.5t64 -26.5h20 q38 0 64 26.5t26 63.5v314q0 49 -26 71l-299 238q-46 40 -46 108v254q0 98 70 168t168 70h72q98 0 167.5 -70t69.5 -168v-118z" />
<glyph unicode="T" horiz-adv-x="641" d="M51 1434h539v-172h-184v-1262h-173v1262h-182v172z" />
<glyph unicode="U" d="M444 1434h174v-1211q0 -98 -69.5 -167.5t-167.5 -69.5h-72q-98 0 -167.5 69.5t-69.5 167.5v1211h172v-1209q0 -37 26.5 -63.5t63.5 -26.5h20q38 0 64 26.5t26 63.5v1209z" />
<glyph unicode="V" horiz-adv-x="681" d="M475 1434h187l-242 -1434h-158l-242 1434h187l129 -1051h10z" />
<glyph unicode="W" horiz-adv-x="1069" d="M860 1434h189l-234 -1434h-166l-108 809h-15l-104 -809h-166l-236 1434h189l125 -1014h10l115 1014h153l115 -1014h10z" />
<glyph unicode="X" horiz-adv-x="751" d="M367 539l-109 -539h-182l188 719l-203 715h191l117 -553h14l119 553h188l-201 -715l187 -719h-180l-111 539h-18z" />
<glyph unicode="Y" horiz-adv-x="702" d="M264 0v553l-244 881h201l127 -641h8l125 641h201l-244 -881v-553h-174z" />
<glyph unicode="Z" horiz-adv-x="675" d="M61 1272v162h539l-307 -1272h321v-162h-542l307 1272h-318z" />
<glyph unicode="[" horiz-adv-x="413" d="M20 1671h373v-127h-237v-1655h237v-127h-373v1909z" />
<glyph unicode="\" horiz-adv-x="561" d="M451 0l-451 1434h111l450 -1434h-110z" />
<glyph unicode="]" horiz-adv-x="413" d="M393 -238h-373v127h238v1655h-238v127h373v-1909z" />
<glyph unicode="^" horiz-adv-x="559" d="M266 1434h29l264 -332h-121l-155 194h-7l-153 -194h-123z" />
<glyph unicode="_" horiz-adv-x="856" d="M815 0v-133h-774v133h774z" />
<glyph unicode="`" horiz-adv-x="344" d="M303 1495h-82l-180 147h127z" />
<glyph unicode="a" horiz-adv-x="667" d="M330 997l-72 -573h154l-66 573h-16zM211 0h-170l178 1229h234l174 -1229h-170l-27 264h-190z" />
<glyph unicode="b" horiz-adv-x="700" d="M375 731q37 0 64.5 27.5t27.5 64.5l-2 164q0 38 -26 64t-64 26h-111v-346h111zM465 240l2 245q0 37 -27.5 65t-64.5 28h-111v-428h111q38 0 64 26.5t26 63.5zM639 836q0 -80 -47.5 -130.5t-114.5 -50.5q65 0 113.5 -53t48.5 -131v-233q0 -98 -70 -168t-168 -70h-309v1229 h309q98 0 168 -70t70 -168v-155z" />
<glyph unicode="c" horiz-adv-x="679" d="M444 524l174 -37v-264q0 -98 -69.5 -167.5t-167.5 -69.5h-72q-98 0 -167.5 69.5t-69.5 167.5v783q0 98 69.5 167.5t167.5 69.5h72q98 0 167.5 -69.5t69.5 -167.5v-211l-174 -39v245q0 38 -26 64.5t-64 26.5h-20q-37 0 -63.5 -26.5t-26.5 -64.5v-776q0 -37 26.5 -63.5 t63.5 -26.5h20q38 0 64 26.5t26 63.5v299z" />
<glyph unicode="d" horiz-adv-x="710" d="M465 240v747q0 38 -26 64t-64 26h-111v-927h111q38 0 64 26.5t26 63.5zM401 1229q98 0 168 -70t70 -168v-753q0 -98 -70 -168t-168 -70h-309v1229h309z" />
<glyph unicode="e" horiz-adv-x="622" d="M264 172h277v-172h-449v1229h449v-172h-277v-393h246v-172h-246v-320z" />
<glyph unicode="f" horiz-adv-x="602" d="M92 1229h449v-172h-277v-393h246v-172h-246v-492h-172v1229z" />
<glyph unicode="g" d="M618 895l-174 -64v170q0 38 -26 64.5t-64 26.5h-20q-37 0 -63.5 -26.5t-26.5 -64.5v-776q0 -37 26.5 -63.5t63.5 -26.5h20q38 0 64 26.5t26 63.5v273h-106v166h280v-441q0 -98 -69.5 -167.5t-167.5 -69.5h-72q-98 0 -167.5 69.5t-69.5 167.5v783q0 98 69.5 167.5 t167.5 69.5h72q98 0 167.5 -69.5t69.5 -167.5v-111z" />
<glyph unicode="h" horiz-adv-x="753" d="M264 1229v-565h223v565h175v-1229h-175v492h-223v-492h-172v1229h172z" />
<glyph unicode="i" horiz-adv-x="356" d="M264 0h-172v1229h172v-1229z" />
<glyph unicode="j" horiz-adv-x="679" d="M424 1229h174v-1006q0 -98 -70 -167.5t-168 -69.5h-71q-98 0 -168 69.5t-70 167.5v275l172 51v-324q0 -37 26.5 -63.5t63.5 -26.5h21q38 0 64 26.5t26 63.5v1004z" />
<glyph unicode="k" horiz-adv-x="772" d="M731 1229l-285 -524l283 -705h-190l-193 520l-80 -155v-365h-174v1229h174v-529l277 529h188z" />
<glyph unicode="l" horiz-adv-x="624" d="M274 1229v-1057h299v-172h-471v1229h172z" />
<glyph unicode="m" horiz-adv-x="954" d="M696 1229h166v-1229h-180v731h-10l-187 -596h-16l-188 596h-9v-731h-180v1229h164l217 -744h8z" />
<glyph unicode="n" horiz-adv-x="796" d="M264 0h-172v1229h148l280 -748h10v748h175v-1229h-148l-283 741h-10v-741z" />
<glyph unicode="o" d="M381 1243q98 0 167.5 -69.5t69.5 -167.5v-783q0 -98 -69.5 -167.5t-167.5 -69.5h-72q-98 0 -167.5 69.5t-69.5 167.5v783q0 98 69.5 167.5t167.5 69.5h72zM444 225v776q0 38 -26 64.5t-64 26.5h-20q-37 0 -63.5 -26.5t-26.5 -64.5v-776q0 -37 26.5 -63.5t63.5 -26.5h20 q38 0 64 26.5t26 63.5z" />
<glyph unicode="p" horiz-adv-x="677" d="M465 754v233q0 38 -26.5 64t-63.5 26h-113v-413h113q37 0 63.5 26.5t26.5 63.5zM92 1229h307q98 0 168 -70t70 -168v-239q0 -92 -61.5 -159.5t-151.5 -76.5q-8 -2 -47 -2h-115v-514h-170v1229z" />
<glyph unicode="q" d="M356 135q37 0 63.5 26.5t26.5 63.5v776q0 38 -26.5 64.5t-63.5 26.5h-20q-38 0 -64 -26.5t-26 -64.5v-776q0 -37 26 -63.5t64 -26.5h20zM72 1006q0 98 69.5 167.5t167.5 69.5h72q98 0 167.5 -69.5t69.5 -167.5v-783q0 -60 -29 -112t-77 -82l106 -164l-131 -62l-122 183 h-37q-33 0 -39 2q-91 8 -154 75.5t-63 159.5v783z" />
<glyph unicode="r" horiz-adv-x="698" d="M262 1077v-424h113q37 0 63.5 26.5t26.5 63.5v244q0 38 -26.5 64t-63.5 26h-113zM455 518l202 -518h-163l-175 492h-61v-492h-166v1229h307q98 0 168 -70t70 -168v-276q0 -77 -51 -134t-131 -63z" />
<glyph unicode="s" horiz-adv-x="671" d="M440 836l-4 2v163q0 38 -26 64.5t-64 26.5h-20q-37 0 -63.5 -26.5t-26.5 -64.5v-133q1 -18 2.5 -26t7.5 -20t18 -23l295 -228q47 -43 49 -108v-240q0 -98 -69.5 -167.5t-167.5 -69.5h-72q-98 0 -168 69.5t-70 167.5v199l172 51v-248q0 -37 27 -63.5t64 -26.5h20 q38 0 64 26.5t26 63.5v191q0 49 -26 71l-299 238q-46 40 -46 109v172q0 98 70 167.5t168 69.5h72q98 0 167.5 -69.5t69.5 -167.5v-119z" />
<glyph unicode="t" horiz-adv-x="641" d="M51 1229h539v-172h-184v-1057h-173v1057h-182v172z" />
<glyph unicode="u" d="M444 1229h174v-1006q0 -98 -69.5 -167.5t-167.5 -69.5h-72q-98 0 -167.5 69.5t-69.5 167.5v1006h172v-1004q0 -37 26.5 -63.5t63.5 -26.5h20q38 0 64 26.5t26 63.5v1004z" />
<glyph unicode="v" horiz-adv-x="681" d="M475 1229h187l-242 -1229h-158l-242 1229h187l129 -846h10z" />
<glyph unicode="w" horiz-adv-x="1069" d="M860 1229h189l-234 -1229h-166l-108 768h-15l-104 -768h-166l-236 1229h189l125 -809h10l115 809h153l115 -809h10z" />
<glyph unicode="x" horiz-adv-x="751" d="M367 436l-109 -436h-182l188 616l-203 613h191l117 -451h14l119 451h188l-201 -613l187 -616h-180l-111 436h-18z" />
<glyph unicode="y" horiz-adv-x="702" d="M264 0v553l-244 676h201l127 -436h8l125 436h201l-244 -676v-553h-174z" />
<glyph unicode="z" horiz-adv-x="675" d="M61 1067v162h539l-307 -1067h321v-162h-542l307 1067h-318z" />
<glyph unicode="{" horiz-adv-x="552" d="M285 545q0 37 -21 66t-50.5 43t-59.5 23t-51 11l-21 2v53q8 1 22 2.5t49 11t61.5 23.5t48.5 43t22 66q0 36 -25.5 94.5t-55.5 113t-55.5 128t-25.5 135.5q0 249 340 248h8v-72h-34.5t-37.5 -3t-43 -8.5t-37 -18.5t-34.5 -31t-21 -47t-9.5 -66q0 -56 17.5 -114t42 -106 t49 -92.5t42 -87t17.5 -75.5q0 -36 -11 -66.5t-26.5 -48.5t-32 -31.5t-27 -18.5t-12.5 -5v0l4 -2q4 -2 10.5 -5.5t14.5 -9t17 -13.5t18 -17.5t17 -22.5t14.5 -27.5t10 -33.5t3.5 -39q0 -33 -17.5 -75.5t-42 -87t-49 -92.5t-42 -106t-17.5 -114q0 -37 9.5 -66t21 -47 t34.5 -31t37 -18.5t43 -8.5t37.5 -3h34.5v-72q-132 0 -204 29q-144 57 -144 219q0 62 25.5 135.5t55.5 128t55.5 113t25.5 94.5z" />
<glyph unicode="|" horiz-adv-x="272" d="M190 -195h-108v1823h108v-1823z" />
<glyph unicode="}" horiz-adv-x="552" d="M268 889q0 -37 21 -66t50.5 -43.5t59.5 -23.5t51 -11l21 -2v-53q-8 0 -22 -2t-49 -11t-61.5 -23t-48.5 -43t-22 -66q0 -36 25.5 -94.5t55.5 -113t55.5 -128t25.5 -135.5q0 -249 -340 -248h-8v72h34.5t37.5 3t43 8.5t37 18.5t34.5 31t21 47t9.5 66q0 68 -26.5 142 t-58.5 126t-58.5 110t-26.5 97q0 20 3.5 39t10 33.5t14.5 27.5t17.5 22.5t18.5 17.5t17.5 13.5t15 9t10.5 5.5l4 2v0q-2 0 -12.5 5t-27.5 18.5t-32.5 31.5t-27 48.5t-11.5 66.5q0 40 26.5 97.5t58.5 109.5t58.5 126t26.5 142q0 37 -9.5 66t-21 47t-34.5 31t-37 18.5t-43 8.5 t-37.5 3h-34.5v72q132 0 204 -29q144 -57 144 -219q0 -62 -25.5 -135.5t-55.5 -128t-55.5 -113t-25.5 -94.5z" />
<glyph unicode="~" horiz-adv-x="890" d="M705 717h124q0 -38 -12.5 -76t-37.5 -73.5t-71 -58t-106 -22.5q-39 0 -74.5 15t-63 36t-53.5 42t-57 36t-63 15q-41 0 -77 -31t-36 -86h-117q0 103 67 168.5t163 65.5q43 0 88.5 -23t77.5 -50t70.5 -50t68.5 -23q53 0 81 30.5t28 84.5z" />
<glyph unicode="&#xa1;" horiz-adv-x="372" d="M145 1137h80l51 -758v-379h-182v379zM186 1239q-43 0 -73.5 30.5t-30.5 73.5t30.5 74t73.5 31t74 -31t31 -74t-31 -73.5t-74 -30.5z" />
<glyph unicode="&#xa2;" horiz-adv-x="679" d="M618 889l-174 -27v137q0 38 -26 64.5t-64 26.5h-20q-37 0 -63.5 -26.5t-26.5 -64.5v-559q0 -37 26.5 -63.5t63.5 -26.5h20q38 0 64 26.5t26 63.5v232l174 -23v-211q0 -91 -60.5 -158.5t-149.5 -76.5v-203h-125v203q-89 9 -150 76.5t-61 158.5v566q0 91 61 158.5t150 76.5 v195h125v-195q89 -9 149.5 -76.5t60.5 -158.5v-115z" />
<glyph unicode="&#xa3;" horiz-adv-x="774" d="M690 1077l-170 -53v190q0 35 -24.5 59.5t-59.5 24.5h-16q-34 0 -59 -24.5t-25 -59.5v-454h207v-92h-207v-205q0 -83 -15.5 -152.5t-30.5 -98.5l-16 -28l2 -2q3 -1 8.5 -4t13 -6.5t17.5 -7.5t21 -7.5t24.5 -7t26.5 -6.5t28 -4.5t29 -1.5q76 0 76 84v182l170 -43v-149 q0 -95 -62.5 -160t-158.5 -65q-48 0 -142.5 34.5t-136.5 34.5q-39 0 -81.5 -10.5t-65.5 -20.5l-23 -10v31q6 7 16 18.5t35 48.5t44 75t35 91.5t16 102.5v287h-82v92h82v465q0 92 67.5 157.5t155.5 65.5h78q91 0 157 -65t66 -158v-148z" />
<glyph unicode="&#xa4;" horiz-adv-x="882" d="M442 477q93 0 159.5 68t66.5 162t-66 159.5t-160 65.5t-161.5 -66t-67.5 -159q0 -94 67.5 -162t161.5 -68zM733 481l129 -129l-65 -67l-131 127q-99 -76 -224 -76q-126 0 -225 76l-129 -127l-68 67l127 129q-73 95 -73 226q0 124 76 223h-3l-127 129l68 67l129 -129 q97 78 225 78q127 0 224 -78l131 129l65 -67l-129 -129q78 -97 78 -223q0 -129 -78 -226z" />
<glyph unicode="&#xa5;" horiz-adv-x="702" d="M438 553v-145h142v-82h-142v-93h142v-81h-142v-152h-174v152h-141v81h141v93h-141v82h141v145l-244 881h201l127 -641h8l125 641h201z" />
<glyph unicode="&#xa6;" horiz-adv-x="272" d="M190 803h-108v825h108v-825zM82 541h108v-736h-108v736z" />
<glyph unicode="&#xa7;" horiz-adv-x="679" d="M252 627q19 -17 166 -133q37 25 37 57v276q0 35 -25 60v0q-3 2 -19 15.5t-42.5 35t-51.5 41.5q-39 -9 -65.5 -42.5t-26.5 -76.5v-166q0 -17 1 -24.5t7 -19t19 -23.5zM618 1225l-159 -41v133q0 50 -32.5 83.5t-84.5 33.5q-51 0 -84 -33.5t-33 -83.5v-53q0 -17 1 -25 t7 -19.5t19 -23.5l319 -254l10.5 -10.5t15 -17.5t11.5 -25.5t6 -38.5v-295q0 -109 -84 -149l41 -33l10.5 -10.5t15 -17.5t11.5 -25.5t6 -38.5v-162q0 -96 -66.5 -167t-180.5 -71h-58q-106 0 -177 72.5t-71 165.5v205l160 41v-250q0 -48 34 -82.5t85 -34.5q53 0 84 33.5 t31 83.5v143q0 34 -25 59v0l-330 271q-34 22 -34 86v182q0 71 42 128t107 79l-115 94q-34 22 -34 86v70q0 93 72 165t175 72h58q108 0 177.5 -71t69.5 -166v-88z" />
<glyph unicode="&#xa8;" horiz-adv-x="593" d="M145 1704q43 0 74 -31t31 -74t-31 -73.5t-74 -30.5t-73.5 30.5t-30.5 73.5t30.5 74t73.5 31zM449 1704q43 0 73.5 -31t30.5 -74t-30.5 -73.5t-73.5 -30.5t-74 30.5t-31 73.5t31 74t74 31z" />
<glyph unicode="&#xa9;" horiz-adv-x="532" d="M266 1448q94 0 160 -65.5t66 -159.5t-66 -160t-160 -66t-159.5 66t-65.5 160t65.5 159.5t159.5 65.5zM266 1038q76 0 130.5 54t54.5 131q0 76 -54 130t-131 54q-76 0 -130 -53.5t-54 -130.5t54 -131t130 -54zM281 1200l61 -10v-55q0 -28 -19 -47t-47 -19h-20 q-28 0 -47 19t-19 47v178q0 28 19 46.5t47 18.5h20q28 0 47 -18.5t19 -46.5v-49l-61 -13v60q0 4 -4 8t-9 4h-4q-4 0 -8 -3.5t-4 -8.5v-174q0 -5 4 -9t8 -4h4q4 0 8.5 4t4.5 9v63z" />
<glyph unicode="&#xab;" horiz-adv-x="604" d="M543 604v-133l-258 229v35l258 228v-129l-131 -113v-6zM299 471l-258 229v35l258 228v-129l-133 -113v-6l133 -111v-133z" />
<glyph unicode="&#xac;" horiz-adv-x="927" d="M61 956h805v-483h-137v356h-668v127z" />
<glyph unicode="&#xad;" horiz-adv-x="610" d="M549 758v-148h-488v148h488z" />
<glyph unicode="&#xae;" horiz-adv-x="532" d="M254 1081h-51v281q0 8 6 8h67q26 0 43 -19t17 -46v-37q0 -45 -37 -56l47 -131h-59l-33 111v-111zM254 1315v-62h16q4 0 8.5 4.5t4.5 8.5v37q0 4 -4 8t-9 4h-16zM266 1448q94 0 160 -65.5t66 -159.5t-66 -160t-160 -66t-159.5 66t-65.5 160t65.5 159.5t159.5 65.5z M266 1038q76 0 130.5 54t54.5 131q0 76 -54 130t-131 54q-76 0 -130 -53.5t-54 -130.5t54 -131t130 -54z" />
<glyph unicode="&#xb0;" horiz-adv-x="344" d="M172 1462q54 0 92.5 -38.5t38.5 -92.5t-38.5 -92.5t-92.5 -38.5t-92.5 38.5t-38.5 92.5t38.5 92.5t92.5 38.5zM172 1253q32 0 55 23t23 55t-23 55t-55 23t-55 -23t-23 -55t23 -55t55 -23z" />
<glyph unicode="&#xb1;" horiz-adv-x="860" d="M799 356v-147h-738v147h738zM799 864v-147h-295v-295h-148v295h-295v147h295v295h148v-295h295z" />
<glyph unicode="&#xb4;" horiz-adv-x="344" d="M41 1495l135 147h127l-180 -147h-82z" />
<glyph unicode="&#xb5;" horiz-adv-x="909" d="M662 967h155v-967h-155v137q-2 -5 -6 -14t-21 -31t-38.5 -39t-59.5 -31t-82 -14q-41 0 -77.5 10.5t-59 25.5t-39.5 30.5t-24 25.5l-7 11v-598h-156v1454h156v-570q0 -125 51 -193.5t156 -68.5t156 84t51 230v518z" />
<glyph unicode="&#xb6;" horiz-adv-x="860" d="M416 766v516h-113q-37 0 -63.5 -26t-26.5 -64v-336q0 -37 26.5 -63.5t63.5 -26.5h113zM279 1434h489v-1434h-102v1282h-80v-1282h-170v616h-137q-98 0 -168 70t-70 168v342q0 98 70 168t168 70z" />
<glyph unicode="&#xb8;" horiz-adv-x="337" d="M143 0h68l-45 -72q53 0 92 -45.5t39 -101.5q0 -63 -43.5 -105.5t-106.5 -42.5q-30 0 -56.5 12.5t-38.5 24.5l-11 13l41 41q22 -27 65 -27q38 0 61 25t23 59q0 43 -27.5 70.5t-68.5 27.5q-23 0 -39.5 -9.5t-21.5 -19.5l-6 -10l-23 6z" />
<glyph unicode="&#xbb;" horiz-adv-x="604" d="M61 829v134l258 -230v-35l-258 -227v129l134 111v8zM305 963l258 -230v-35l-258 -227v129l133 111v8l-133 110v134z" />
<glyph unicode="&#xbf;" horiz-adv-x="727" d="M422 1448q40 0 69 -29t29 -69t-29 -69.5t-69 -29.5t-69 29.5t-29 69.5t29 69t69 29zM514 428l141 41v-160q0 -60 -16.5 -116t-49.5 -103t-90 -75.5t-130 -28.5q-297 0 -297 405v2q3 114 18 148q2 6 125.5 160.5t134.5 175.5q9 17 18.5 82.5t15.5 122.5l5 57h80 q1 -5 5.5 -45.5t8.5 -100t4 -100.5q0 -33 -58.5 -115.5t-116.5 -148.5l-58 -66q-25 -28 -31 -50.5t-6 -76.5q0 -133 7 -177q22 -131 130 -139q7 -1 15 -1q70 0 107.5 57.5t37.5 120.5v131z" />
<glyph unicode="&#xc0;" horiz-adv-x="665" d="M330 1182l-74 -758h158l-68 758h-16zM211 0h-170l172 1434h246l166 -1434h-170l-25 264h-190zM373 1495h-80l-180 147h125z" />
<glyph unicode="&#xc1;" horiz-adv-x="665" d="M330 1182l-74 -758h158l-68 758h-16zM211 0h-170l172 1434h246l166 -1434h-170l-25 264h-190zM293 1495l135 147h125l-180 -147h-80z" />
<glyph unicode="&#xc2;" horiz-adv-x="665" d="M330 1182l-76 -758h160l-70 758h-14zM211 0h-170l172 1434h244l168 -1434h-170l-25 264h-192zM319 1642h29l178 -147h-104l-86 72h-6l-84 -72h-107z" />
<glyph unicode="&#xc3;" horiz-adv-x="665" d="M330 1182l-74 -758h158l-68 758h-16zM213 0h-172l174 1434h244l166 -1434h-168l-27 264h-190zM479 1632h62q0 -56 -32.5 -96.5t-86.5 -40.5q-33 0 -58.5 15.5t-38.5 34.5t-32 34.5t-41 15.5q-25 0 -43.5 -21t-18.5 -63h-63q0 72 39.5 108t85.5 36q25 0 50 -16t42 -35.5 t38 -35.5t38 -16q26 0 42.5 21.5t16.5 58.5z" />
<glyph unicode="&#xc4;" horiz-adv-x="665" d="M330 1182l-74 -758h158l-68 758h-16zM211 0h-170l172 1434h246l166 -1434h-170l-25 264h-190zM180 1704q44 0 74.5 -31t30.5 -74t-30.5 -73.5t-74.5 -30.5q-43 0 -73.5 30.5t-30.5 73.5t30.5 74t73.5 31zM483 1704q44 0 74.5 -31t30.5 -74t-30.5 -73.5t-74.5 -30.5 q-43 0 -73.5 30.5t-30.5 73.5t30.5 74t73.5 31z" />
<glyph unicode="&#xc5;" horiz-adv-x="667" d="M330 1182l-74 -758h158l-68 758h-16zM213 0h-172l174 1434h244l168 -1434h-170l-27 264h-190zM334 1757q54 0 92.5 -38.5t38.5 -92.5t-38.5 -92.5t-92.5 -38.5t-92.5 38.5t-38.5 92.5t38.5 92.5t92.5 38.5zM334 1548q32 0 55 23t23 55t-23 55t-55 23t-55 -23t-23 -55 t23 -55t55 -23z" />
<glyph unicode="&#xc6;" horiz-adv-x="1048" d="M324 391h182v565h-8zM956 1262h-276v-474h244v-172h-244v-444h276v-172h-450v225h-238l-73 -225h-175l490 1434h446v-172z" />
<glyph unicode="&#xc7;" horiz-adv-x="679" d="M618 999l-174 -38v245q0 38 -26.5 64t-63.5 26h-20q-37 0 -63.5 -26t-26.5 -64v-981q0 -37 26.5 -63.5t63.5 -26.5h20q37 0 63.5 26.5t26.5 63.5v340l174 -37v-305q0 -98 -70 -167.5t-167 -69.5h-4l-37 -58q53 0 93 -46t40 -101q0 -63 -43.5 -105.5t-105.5 -42.5 q-31 0 -58 12.5t-38 24.5l-11 13l41 41q21 -27 66 -27q37 0 59.5 25t22.5 59q0 43 -28 70.5t-69 27.5q-23 0 -39.5 -9.5t-21.5 -19.5l-6 -10l-21 6l86 140q-97 0 -166 69.5t-69 167.5v987q0 98 69.5 168t167.5 70h72q97 0 167 -70t70 -168v-211z" />
<glyph unicode="&#xc8;" horiz-adv-x="622" d="M264 172h277v-172h-449v1434h449v-172h-277v-474h244v-172h-244v-444zM356 1495h-80l-180 147h125z" />
<glyph unicode="&#xc9;" horiz-adv-x="622" d="M264 172h277v-172h-449v1434h449v-172h-277v-474h244v-172h-244v-444zM276 1495l136 147h125l-181 -147h-80z" />
<glyph unicode="&#xca;" horiz-adv-x="624" d="M266 172h277v-172h-451v1434h451v-172h-277v-474h244v-172h-244v-444zM305 1642h29l178 -147h-104l-86 72h-7l-84 -72h-106z" />
<glyph unicode="&#xcb;" horiz-adv-x="686" d="M297 172h276v-172h-448v1434h448v-172h-276v-474h244v-172h-244v-444zM197 1704q43 0 73.5 -31t30.5 -74t-30.5 -73.5t-73.5 -30.5t-74 30.5t-31 73.5t31 74t74 31zM500 1704q43 0 73.5 -31t30.5 -74t-30.5 -73.5t-73.5 -30.5t-74 30.5t-31 73.5t31 74t74 31z" />
<glyph unicode="&#xcc;" horiz-adv-x="368" d="M276 0h-174v1434h174v-1434zM229 1495h-79l-181 147h125z" />
<glyph unicode="&#xcd;" horiz-adv-x="368" d="M266 0v1434h-174v-1434h174zM139 1495l135 147h125l-180 -147h-80z" />
<glyph unicode="&#xce;" horiz-adv-x="358" d="M266 0v1434h-174v-1434h174zM166 1642h29l178 -147h-105l-86 72h-6l-84 -72h-106z" />
<glyph unicode="&#xcf;" horiz-adv-x="356" d="M264 0h-174v1434h174v-1434zM27 1704q43 0 73.5 -31t30.5 -74t-30.5 -73.5t-73.5 -30.5q-44 0 -74.5 30.5t-30.5 73.5t30.5 74t74.5 31zM330 1704q43 0 73.5 -31t30.5 -74t-30.5 -73.5t-73.5 -30.5q-44 0 -74.5 30.5t-30.5 73.5t30.5 74t74.5 31z" />
<glyph unicode="&#xd0;" horiz-adv-x="833" d="M514 1434q98 0 168 -70t70 -168v-958q0 -98 -70 -168t-168 -70h-309v616h-123v172h123v646h309zM578 240v952q0 38 -26.5 64t-64.5 26h-110v-494h123v-172h-123v-466h110q38 0 64.5 26.5t26.5 63.5z" />
<glyph unicode="&#xd1;" horiz-adv-x="796" d="M266 0h-174v1434h148l280 -883h12v883h173v-1434h-154l-277 864h-8v-864zM545 1632h61q0 -56 -32.5 -96.5t-88.5 -40.5q-32 0 -57.5 15.5t-39 34.5t-32.5 34.5t-41 15.5q-24 0 -42.5 -21t-18.5 -63h-61q0 72 38.5 108t83.5 36q26 0 51.5 -16t42 -35.5t37 -35.5t37.5 -16 q26 0 44 21.5t18 58.5z" />
<glyph unicode="&#xd2;" d="M381 1448q98 0 167.5 -70t69.5 -168v-987q0 -98 -69.5 -167.5t-167.5 -69.5h-72q-98 0 -167.5 69.5t-69.5 167.5v987q0 98 69.5 168t167.5 70h72zM444 225v981q0 38 -26 64t-64 26h-20q-37 0 -63.5 -26t-26.5 -64v-981q0 -37 26.5 -63.5t63.5 -26.5h20q38 0 64 26.5 t26 63.5zM385 1495h-80l-180 147h125z" />
<glyph unicode="&#xd3;" d="M72 1210q0 98 69.5 168t167.5 70h72q98 0 167.5 -70t69.5 -168v-987q0 -98 -69.5 -167.5t-167.5 -69.5h-72q-98 0 -167.5 69.5t-69.5 167.5v987zM244 1206v-981q0 -37 26.5 -63.5t63.5 -26.5h20q38 0 64 26.5t26 63.5v981q0 38 -26 64t-64 26h-20q-37 0 -63.5 -26 t-26.5 -64zM305 1495l135 147h125l-180 -147h-80z" />
<glyph unicode="&#xd4;" d="M332 1642h28l179 -147h-103l-86 72h-6l-86 -72h-106zM72 1210q0 98 70 168t167 70h72q98 0 167.5 -70t69.5 -168v-987q0 -98 -69.5 -167.5t-167.5 -69.5h-72q-97 0 -167 69.5t-70 167.5v987zM246 1206v-981q0 -37 26.5 -63.5t63.5 -26.5h20q37 0 63.5 26.5t26.5 63.5v981 q0 38 -26.5 64t-63.5 26h-20q-37 0 -63.5 -26t-26.5 -64z" />
<glyph unicode="&#xd5;" d="M492 1632h61q0 -56 -32.5 -96.5t-88.5 -40.5q-32 0 -57.5 15.5t-39 34.5t-32.5 34.5t-41 15.5q-24 0 -42.5 -21t-18.5 -63h-62q0 72 39 108t84 36q26 0 51.5 -16t42 -35.5t37 -35.5t37.5 -16q26 0 44 21.5t18 58.5zM72 1210q0 98 69.5 168t167.5 70h72q98 0 167.5 -70 t69.5 -168v-987q0 -98 -69.5 -167.5t-167.5 -69.5h-72q-98 0 -167.5 69.5t-69.5 167.5v987zM246 1206v-981q0 -37 26 -63.5t64 -26.5h20q37 0 63.5 26.5t26.5 63.5v981q0 38 -26.5 64t-63.5 26h-20q-38 0 -64 -26t-26 -64z" />
<glyph unicode="&#xd6;" d="M193 1704q43 0 73.5 -31t30.5 -74t-30.5 -73.5t-73.5 -30.5t-74 30.5t-31 73.5t31 74t74 31zM496 1704q43 0 73.5 -31t30.5 -74t-30.5 -73.5t-73.5 -30.5t-74 30.5t-31 73.5t31 74t74 31zM72 1210q0 98 69.5 168t167.5 70h72q97 0 167 -70t70 -168v-987q0 -98 -70 -167.5 t-167 -69.5h-72q-98 0 -167.5 69.5t-69.5 167.5v987zM244 1206v-981q0 -37 26.5 -63.5t63.5 -26.5h20q37 0 63.5 26.5t26.5 63.5v981q0 38 -26.5 64t-63.5 26h-20q-37 0 -63.5 -26t-26.5 -64z" />
<glyph unicode="&#xd7;" horiz-adv-x="747" d="M686 475l-102 -104l-209 209l-209 -209l-105 104l209 209l-209 209l105 104l209 -209l209 209l102 -104l-207 -209z" />
<glyph unicode="&#xd8;" horiz-adv-x="837" d="M821 1434l-129 -269v-942q0 -98 -70 -167.5t-167 -69.5h-72q-65 0 -120.5 32.5t-86.5 85.5l-51 -104h-111l131 268v942q0 98 70 168t168 70h72q63 0 118 -32.5t86 -86.5l52 105h110zM317 1206v-581l201 411v170q0 38 -26.5 64t-63.5 26h-20q-37 0 -64 -26t-27 -64z M518 225v584l-201 -414v-170q0 -37 27 -63.5t64 -26.5h20q37 0 63.5 26.5t26.5 63.5z" />
<glyph unicode="&#xd9;" d="M444 1434h174v-1211q0 -98 -69.5 -167.5t-167.5 -69.5h-72q-98 0 -167.5 69.5t-69.5 167.5v1211h172v-1209q0 -37 26.5 -63.5t63.5 -26.5h20q38 0 64 26.5t26 63.5v1209zM385 1495h-80l-180 147h125z" />
<glyph unicode="&#xda;" d="M444 1434h174v-1211q0 -98 -69.5 -167.5t-167.5 -69.5h-72q-98 0 -167.5 69.5t-69.5 167.5v1211h172v-1209q0 -37 26.5 -63.5t63.5 -26.5h20q38 0 64 26.5t26 63.5v1209zM305 1495l135 147h125l-180 -147h-80z" />
<glyph unicode="&#xdb;" d="M446 1434h172v-1211q0 -98 -69.5 -167.5t-167.5 -69.5h-72q-97 0 -167 69.5t-70 167.5v1211h174v-1209q0 -37 26.5 -63.5t63.5 -26.5h20q37 0 63.5 26.5t26.5 63.5v1209zM332 1642h28l179 -147h-103l-86 72h-6l-86 -72h-106z" />
<glyph unicode="&#xdc;" d="M444 1434h174v-1211q0 -98 -70 -167.5t-167 -69.5h-72q-98 0 -167.5 69.5t-69.5 167.5v1211h172v-1209q0 -37 26.5 -63.5t63.5 -26.5h20q37 0 63.5 26.5t26.5 63.5v1209zM193 1704q43 0 73.5 -31t30.5 -74t-30.5 -73.5t-73.5 -30.5t-74 30.5t-31 73.5t31 74t74 31z M496 1704q43 0 73.5 -31t30.5 -74t-30.5 -73.5t-73.5 -30.5t-74 30.5t-31 73.5t31 74t74 31z" />
<glyph unicode="&#xdd;" horiz-adv-x="702" d="M264 0v553l-244 881h199l127 -641h10l125 641h201l-244 -881v-553h-174zM311 1495l135 147h125l-180 -147h-80z" />
<glyph unicode="&#xde;" horiz-adv-x="677" d="M465 549v336q0 37 -26.5 63.5t-63.5 26.5h-113v-516h113q37 0 63.5 26.5t26.5 63.5zM399 1124q98 0 168 -69.5t70 -167.5v-342q0 -97 -70 -167.5t-168 -70.5h-137v-307h-170v1434h170v-310h137z" />
<glyph unicode="&#xdf;" horiz-adv-x="999" d="M600 860q7 -2 18.5 -6.5t46 -21.5t65.5 -38.5t68.5 -60t65 -83t46 -110t18.5 -139.5q0 -183 -105 -288q-107 -113 -301 -113h-170v94h129q307 0 307 307q0 84 -29 156t-72 116.5t-93.5 76.5t-92 45.5t-69.5 13.5h-10h-41v86h41h10q82 0 139.5 61t57.5 177 q0 118 -53 178.5t-130 62.5q-112 -3 -166.5 -99.5t-54.5 -309.5v-965h-133v989q0 102 17 183t53 144t98.5 97.5t147.5 34.5h81q130 0 204.5 -88.5t74.5 -226.5q0 -60 -17.5 -110t-42 -78.5t-49 -49t-41.5 -27.5z" />
<glyph unicode="&#xe0;" horiz-adv-x="665" d="M373 1290h-80l-180 148h125zM330 997l-74 -573h156l-66 573h-16zM211 0h-170l178 1229h234l172 -1229h-170l-25 264h-192z" />
<glyph unicode="&#xe1;" horiz-adv-x="665" d="M293 1290l135 148h125l-180 -148h-80zM330 997l-74 -573h156l-66 573h-16zM211 0h-170l178 1229h234l172 -1229h-170l-25 264h-192z" />
<glyph unicode="&#xe2;" horiz-adv-x="665" d="M319 1438h29l178 -148h-102l-86 72h-6l-86 -72h-107zM330 997l-72 -573h154l-66 573h-16zM211 0h-170l178 1229h234l172 -1229h-168l-27 264h-190z" />
<glyph unicode="&#xe3;" horiz-adv-x="665" d="M477 1427h62q0 -56 -31.5 -96.5t-87.5 -40.5q-32 0 -57.5 16t-39 34.5t-32.5 34.5t-41 16q-24 0 -43 -21t-19 -63h-61q0 72 39 107.5t84 35.5q32 0 63.5 -25.5t57.5 -51t47 -25.5q26 0 42.5 21t16.5 58zM330 997l-72 -573h154l-66 573h-16zM211 0h-170l178 1229h234 l172 -1229h-168l-27 264h-190z" />
<glyph unicode="&#xe4;" horiz-adv-x="665" d="M180 1499q43 0 74 -30.5t31 -73.5t-31 -74t-74 -31t-73.5 31t-30.5 74t30.5 73.5t73.5 30.5zM483 1499q43 0 74 -30.5t31 -73.5t-31 -74t-74 -31t-73.5 31t-30.5 74t30.5 73.5t73.5 30.5zM330 997l-74 -573h156l-68 573h-14zM211 0h-170l176 1229h236l172 -1229h-170 l-25 264h-192z" />
<glyph unicode="&#xe5;" horiz-adv-x="667" d="M334 1552q54 0 92.5 -38.5t38.5 -92.5t-38.5 -92.5t-92.5 -38.5t-92.5 38.5t-38.5 92.5t38.5 92.5t92.5 38.5zM334 1343q32 0 55 23t23 55t-23 55t-55 23t-55 -23t-23 -55t23 -55t55 -23zM330 997l-72 -573h154l-66 573h-16zM211 0h-170l178 1229h234l174 -1229h-170 l-27 264h-190z" />
<glyph unicode="&#xe6;" horiz-adv-x="1038" d="M326 391h170v463h-9zM946 1057h-276v-371h243v-172h-243v-342h276v-172h-450v225h-226l-73 -225h-177l469 1229h457v-172z" />
<glyph unicode="&#xe7;" horiz-adv-x="679" d="M618 795l-172 -39v245q0 38 -26.5 64.5t-63.5 26.5h-20q-37 0 -63.5 -26.5t-26.5 -64.5v-776q0 -37 26.5 -63.5t63.5 -26.5h20q37 0 63.5 26.5t26.5 63.5v299l172 -37v-264q0 -98 -69.5 -167.5t-167.5 -69.5h-2l-37 -58q53 0 92 -45.5t39 -101.5q0 -63 -43 -105.5 t-106 -42.5q-30 0 -57 12.5t-39 24.5l-11 13l41 41q23 -27 66 -27q38 0 61 25t23 59q0 43 -28 70.5t-69 27.5q-23 0 -39.5 -9.5t-21.5 -19.5l-6 -10l-23 6l88 140q-98 0 -167.5 69.5t-69.5 167.5v783q0 98 70 167.5t167 69.5h72q98 0 167.5 -69.5t69.5 -167.5v-211z" />
<glyph unicode="&#xe8;" horiz-adv-x="622" d="M264 172h277v-172h-449v1229h449v-172h-277v-371h244v-172h-244v-342zM356 1290h-80l-180 148h125z" />
<glyph unicode="&#xe9;" horiz-adv-x="622" d="M264 172h277v-172h-449v1229h449v-172h-277v-371h244v-172h-244v-342zM276 1290l136 148h125l-181 -148h-80z" />
<glyph unicode="&#xea;" horiz-adv-x="686" d="M297 172h276v-172h-448v1229h448v-172h-276v-371h244v-172h-244v-342zM197 1499q43 0 73.5 -30.5t30.5 -73.5t-30.5 -74t-73.5 -31t-74 31t-31 74t31 73.5t74 30.5zM500 1499q43 0 73.5 -30.5t30.5 -73.5t-30.5 -74t-73.5 -31t-74 31t-31 74t31 73.5t74 30.5z" />
<glyph unicode="&#xeb;" horiz-adv-x="686" d="M297 172h276v-172h-448v1229h448v-172h-276v-371h244v-172h-244v-342zM197 1499q43 0 73.5 -30.5t30.5 -73.5t-30.5 -74t-73.5 -31t-74 31t-31 74t31 73.5t74 30.5zM500 1499q43 0 73.5 -30.5t30.5 -73.5t-30.5 -74t-73.5 -31t-74 31t-31 74t31 73.5t74 30.5z" />
<glyph unicode="&#xec;" horiz-adv-x="368" d="M276 0h-174v1229h174v-1229zM229 1290h-79l-181 148h125z" />
<glyph unicode="&#xed;" horiz-adv-x="368" d="M266 0v1229h-174v-1229h174zM139 1290l135 148h125l-180 -148h-80z" />
<glyph unicode="&#xee;" horiz-adv-x="358" d="M266 0v1229h-174v-1229h174zM166 1438h29l178 -148h-105l-86 72h-6l-84 -72h-106z" />
<glyph unicode="&#xef;" horiz-adv-x="356" d="M264 0h-174v1229h174v-1229zM27 1499q43 0 73.5 -30.5t30.5 -73.5t-30.5 -74t-73.5 -31q-44 0 -74.5 31t-30.5 74t30.5 73.5t74.5 30.5zM330 1499q43 0 73.5 -30.5t30.5 -73.5t-30.5 -74t-73.5 -31q-44 0 -74.5 31t-30.5 74t30.5 73.5t74.5 30.5z" />
<glyph unicode="&#xf0;" horiz-adv-x="833" d="M514 1229q98 0 168 -70t70 -168v-753q0 -98 -70 -168t-168 -70h-309v514h-123v172h123v543h309zM578 240v747q0 38 -26.5 64t-64.5 26h-110v-391h123v-172h-123v-364h110q38 0 64.5 26.5t26.5 63.5z" />
<glyph unicode="&#xf1;" horiz-adv-x="796" d="M543 1427h61q0 -56 -31.5 -96.5t-87.5 -40.5q-32 0 -57.5 16t-39 34.5t-32.5 34.5t-41 16q-24 0 -42.5 -21t-18.5 -63h-61q0 72 38.5 107.5t83.5 35.5q26 0 51 -16t41.5 -35t37.5 -35t38 -16q26 0 43 21t17 58zM264 0h-172v1229h148l280 -748h10v748h175v-1229h-146 l-285 741h-10v-741z" />
<glyph unicode="&#xf2;" d="M381 1243q98 0 167.5 -69.5t69.5 -167.5v-783q0 -98 -69.5 -167.5t-167.5 -69.5h-72q-98 0 -167.5 69.5t-69.5 167.5v783q0 98 69.5 167.5t167.5 69.5h72zM444 225v776q0 38 -26 64.5t-64 26.5h-20q-37 0 -63.5 -26.5t-26.5 -64.5v-776q0 -37 26.5 -63.5t63.5 -26.5h20 q38 0 64 26.5t26 63.5zM385 1290h-80l-180 148h125z" />
<glyph unicode="&#xf3;" d="M72 1006q0 98 69.5 167.5t167.5 69.5h72q98 0 167.5 -69.5t69.5 -167.5v-783q0 -98 -69.5 -167.5t-167.5 -69.5h-72q-98 0 -167.5 69.5t-69.5 167.5v783zM244 1001v-776q0 -37 26.5 -63.5t63.5 -26.5h20q38 0 64 26.5t26 63.5v776q0 38 -26 64.5t-64 26.5h-20 q-37 0 -63.5 -26.5t-26.5 -64.5zM305 1290l135 148h125l-180 -148h-80z" />
<glyph unicode="&#xf4;" d="M332 1438h28l179 -148h-103l-86 72h-6l-86 -72h-106zM72 1006q0 98 70 167.5t167 69.5h72q98 0 167.5 -69.5t69.5 -167.5v-783q0 -98 -69.5 -167.5t-167.5 -69.5h-72q-97 0 -167 69.5t-70 167.5v783zM246 1001v-776q0 -37 26.5 -63.5t63.5 -26.5h20q37 0 63.5 26.5 t26.5 63.5v776q0 38 -26.5 64.5t-63.5 26.5h-20q-37 0 -63.5 -26.5t-26.5 -64.5z" />
<glyph unicode="&#xf5;" d="M492 1427h61q0 -56 -32.5 -96.5t-88.5 -40.5q-32 0 -57.5 16t-39 34.5t-32.5 34.5t-41 16q-24 0 -42.5 -21t-18.5 -63h-62q0 72 39 107.5t84 35.5q32 0 63.5 -25.5t57.5 -51t47 -25.5q26 0 44 21t18 58zM72 1006q0 98 69.5 167.5t167.5 69.5h72q98 0 167.5 -69.5 t69.5 -167.5v-783q0 -98 -69.5 -167.5t-167.5 -69.5h-72q-98 0 -167.5 69.5t-69.5 167.5v783zM246 1001v-776q0 -37 26 -63.5t64 -26.5h20q37 0 63.5 26.5t26.5 63.5v776q0 38 -26.5 64.5t-63.5 26.5h-20q-38 0 -64 -26.5t-26 -64.5z" />
<glyph unicode="&#xf6;" d="M193 1499q43 0 73.5 -30.5t30.5 -73.5t-30.5 -74t-73.5 -31t-74 31t-31 74t31 73.5t74 30.5zM496 1499q43 0 73.5 -30.5t30.5 -73.5t-30.5 -74t-73.5 -31t-74 31t-31 74t31 73.5t74 30.5zM72 1006q0 98 69.5 167.5t167.5 69.5h72q97 0 167 -69.5t70 -167.5v-783 q0 -98 -70 -167.5t-167 -69.5h-72q-98 0 -167.5 69.5t-69.5 167.5v783zM244 1001v-776q0 -37 26.5 -63.5t63.5 -26.5h20q37 0 63.5 26.5t26.5 63.5v776q0 38 -26.5 64.5t-63.5 26.5h-20q-37 0 -63.5 -26.5t-26.5 -64.5z" />
<glyph unicode="&#xf7;" horiz-adv-x="808" d="M61 758h687v-148h-687v148zM403 838q-43 0 -73.5 30.5t-30.5 73.5q0 44 30.5 74.5t73.5 30.5q44 0 74.5 -30.5t30.5 -74.5q0 -43 -30.5 -73.5t-74.5 -30.5zM403 528q44 0 74.5 -30t30.5 -74q0 -43 -30.5 -74t-74.5 -31q-43 0 -73.5 31t-30.5 74q0 44 30.5 74t73.5 30z " />
<glyph unicode="&#xf8;" horiz-adv-x="847" d="M827 1229l-129 -268v-738q0 -98 -70 -167.5t-167 -69.5h-72q-65 0 -120.5 32.5t-86.5 85.5l-51 -104h-111l132 268v738q0 98 69.5 167.5t167.5 69.5h72q63 0 118.5 -32.5t86.5 -86.5l51 105h110zM324 1001v-479l200 412v67q0 38 -26.5 64.5t-63.5 26.5h-20 q-37 0 -63.5 -26.5t-26.5 -64.5zM524 225v482l-200 -414v-68q0 -37 26.5 -63.5t63.5 -26.5h20q37 0 63.5 26.5t26.5 63.5z" />
<glyph unicode="&#xf9;" d="M444 1229h174v-1006q0 -98 -69.5 -167.5t-167.5 -69.5h-72q-98 0 -167.5 69.5t-69.5 167.5v1006h172v-1004q0 -37 26.5 -63.5t63.5 -26.5h20q38 0 64 26.5t26 63.5v1004zM385 1290h-80l-180 148h125z" />
<glyph unicode="&#xfa;" d="M444 1229h174v-1006q0 -98 -69.5 -167.5t-167.5 -69.5h-72q-98 0 -167.5 69.5t-69.5 167.5v1006h172v-1004q0 -37 26.5 -63.5t63.5 -26.5h20q38 0 64 26.5t26 63.5v1004zM305 1290l135 148h125l-180 -148h-80z" />
<glyph unicode="&#xfb;" d="M446 1229h172v-1006q0 -98 -69.5 -167.5t-167.5 -69.5h-72q-97 0 -167 69.5t-70 167.5v1006h174v-1004q0 -37 26.5 -63.5t63.5 -26.5h20q37 0 63.5 26.5t26.5 63.5v1004zM332 1438h28l179 -148h-103l-86 72h-6l-86 -72h-106z" />
<glyph unicode="&#xfc;" d="M444 1229h174v-1006q0 -98 -70 -167.5t-167 -69.5h-72q-98 0 -167.5 69.5t-69.5 167.5v1006h172v-1004q0 -37 26.5 -63.5t63.5 -26.5h20q37 0 63.5 26.5t26.5 63.5v1004zM193 1499q43 0 73.5 -30.5t30.5 -73.5t-30.5 -74t-73.5 -31t-74 31t-31 74t31 73.5t74 30.5z M496 1499q43 0 73.5 -30.5t30.5 -73.5t-30.5 -74t-73.5 -31t-74 31t-31 74t31 73.5t74 30.5z" />
<glyph unicode="&#xfd;" horiz-adv-x="702" d="M311 1290l135 148h125l-180 -148h-80zM264 0v553l-244 676h201l125 -436h10l125 436h201l-244 -676v-553h-174z" />
<glyph unicode="&#xfe;" horiz-adv-x="677" d="M465 549v131q0 37 -26.5 63.5t-63.5 26.5h-113v-311h113q37 0 63.5 26.5t26.5 63.5zM399 920q98 0 168 -70t70 -168v-137q0 -97 -70 -167.5t-168 -70.5h-137v-307h-170v1229h170v-309h137z" />
<glyph unicode="&#xff;" horiz-adv-x="702" d="M199 1499q44 0 74 -30.5t30 -73.5t-30 -74t-74 -31q-43 0 -74 31t-31 74t31 73.5t74 30.5zM502 1499q44 0 74 -30.5t30 -73.5t-30 -74t-74 -31q-43 0 -74 31t-31 74t31 73.5t74 30.5zM264 0v553l-244 676h199l127 -436h10l125 436h201l-244 -676v-553h-174z" />
<glyph unicode="&#x141;" horiz-adv-x="747" d="M397 172h299v-172h-471v637l-123 -98v104l123 100v691h172v-551l205 164v-105l-205 -166v-604z" />
<glyph unicode="&#x142;" horiz-adv-x="747" d="M397 172h299v-172h-471v432l-123 -98v104l123 101v690h172v-551l205 164v-105l-205 -166v-399z" />
<glyph unicode="&#x152;" horiz-adv-x="987" d="M244 1192v-952q0 -37 26.5 -63.5t63.5 -26.5h110v1017v115h-110q-37 0 -63.5 -26t-26.5 -64zM618 1262v-474h244v-172h-244v-444h277v-172h-586q-98 0 -167.5 70t-69.5 168v958q0 98 69.5 168t167.5 70h586v-172h-277z" />
<glyph unicode="&#x153;" horiz-adv-x="987" d="M244 987v-747q0 -37 26.5 -63.5t63.5 -26.5h110v815v112h-110q-37 0 -63.5 -26t-26.5 -64zM618 1057v-395h244v-173h-244v-317h277v-172h-586q-98 0 -167.5 70t-69.5 168v753q0 98 69.5 168t167.5 70h586v-172h-277z" />
<glyph unicode="&#x160;" horiz-adv-x="671" d="M610 1092l-172 -52v166q0 38 -26.5 64t-63.5 26h-20q-38 0 -64 -26t-26 -64v-215q0 -43 28 -69l293 -228q47 -43 49 -108v-363q0 -98 -69.5 -167.5t-167.5 -69.5h-72q-98 0 -168 69.5t-70 167.5v246l175 51v-295q0 -37 26 -63.5t64 -26.5h20q37 0 63.5 26.5t26.5 63.5 v314q-3 50 -28 71l-297 238q-48 39 -48 108v254q0 98 70 168t168 70h72q98 0 167.5 -70t69.5 -168v-118zM350 1495h-28l-179 147h103l86 -71h6l86 71h106z" />
<glyph unicode="&#x161;" horiz-adv-x="671" d="M350 1290h-28l-179 148h103l86 -72h6l86 72h106zM440 836l-2 2v163q0 38 -26.5 64.5t-63.5 26.5h-20q-38 0 -64 -26.5t-26 -64.5v-133q0 -24 5 -38.5t23 -30.5l293 -228q47 -43 49 -108v-240q0 -98 -69.5 -167.5t-167.5 -69.5h-72q-98 0 -168 69.5t-70 167.5v199l175 51 v-248q0 -37 26 -63.5t64 -26.5h20q37 0 63.5 26.5t26.5 63.5v191q-3 50 -28 71l-297 238q-48 39 -48 109v172q0 98 70 167.5t168 69.5h72q98 0 167.5 -69.5t69.5 -167.5v-119z" />
<glyph unicode="&#x178;" horiz-adv-x="702" d="M264 0v553l-244 881h199l127 -641h10l125 641h201l-244 -881v-553h-174zM199 1704q43 0 73.5 -31t30.5 -74t-30.5 -73.5t-73.5 -30.5t-74 30.5t-31 73.5t31 74t74 31zM502 1704q43 0 73.5 -31t30.5 -74t-30.5 -73.5t-73.5 -30.5t-74 30.5t-31 73.5t31 74t74 31z" />
<glyph unicode="&#x17d;" horiz-adv-x="675" d="M61 1272v162h539l-307 -1272h321v-162h-542l305 1272h-316zM350 1495h-28l-179 147h105l86 -71h6l84 71h106z" />
<glyph unicode="&#x17e;" horiz-adv-x="675" d="M61 1067v162h539l-307 -1067h321v-162h-542l305 1067h-316zM350 1290h-28l-179 148h105l86 -72h6l84 72h106z" />
<glyph unicode="&#x192;" horiz-adv-x="925" d="M670 1671q50 0 94.5 -17t73 -41t49.5 -48t30 -41l9 -17l-92 -41q-2 5 -6 12.5t-18.5 27t-31.5 34.5t-45 27t-59 12q-164 0 -164 -240v-612h176v-78h-176v-604q0 -130 -68 -206.5t-186 -76.5q-50 0 -94.5 16.5t-73 40.5t-49.5 48t-30 41l-9 16l92 41q2 -4 6 -11.5 t18.5 -26.5t31 -33.5t44 -26.5t58.5 -12q77 0 114 54.5t37 184.5v555h-161v78h161v662q0 128 74.5 205t194.5 77z" />
<glyph unicode="&#x2c6;" horiz-adv-x="468" d="M221 1642h29l178 -147h-104l-86 72h-7l-84 -72h-106z" />
<glyph unicode="&#x2c7;" horiz-adv-x="468" d="M248 1495h-29l-178 147h102l86 -71h7l86 71h106z" />
<glyph unicode="&#x2d8;" horiz-adv-x="409" d="M203 1495q-34 0 -63.5 12.5t-47 30.5t-29.5 36.5t-17 31.5l-5 12h82q1 -3 2 -7.5t7 -15.5t14 -20t23.5 -16t33.5 -7q29 0 49.5 16.5t26.5 33.5l6 16h84q0 -4 -5 -16.5t-18 -31t-31 -35t-47.5 -28.5t-64.5 -12z" />
<glyph unicode="&#x2d9;" horiz-adv-x="290" d="M145 1448q43 0 74 -31t31 -74t-31 -73.5t-74 -30.5t-73.5 30.5t-30.5 73.5t30.5 74t73.5 31z" />
<glyph unicode="&#x2da;" horiz-adv-x="344" d="M172 1757q54 0 92.5 -38.5t38.5 -92.5t-38.5 -92.5t-92.5 -38.5t-92.5 38.5t-38.5 92.5t38.5 92.5t92.5 38.5zM172 1548q32 0 55 23t23 55t-23 55t-55 23t-55 -23t-23 -55t23 -55t55 -23z" />
<glyph unicode="&#x2db;" horiz-adv-x="374" d="M264 -158l70 -28q-1 -5 -4 -13t-15 -29t-27.5 -37t-45.5 -29t-66 -13q-56 0 -95.5 41.5t-39.5 99.5q0 31 12 59t29.5 46.5t34.5 33t29 21.5l12 6h69q-4 -2 -11.5 -6t-26.5 -17.5t-33.5 -29.5t-26.5 -41.5t-12 -52.5t17 -48.5t46 -21.5q21 0 37.5 6t25 14.5t13.5 17.5 t6 15z" />
<glyph unicode="&#x2dc;" horiz-adv-x="495" d="M393 1632h62q0 -56 -32.5 -96.5t-86.5 -40.5q-33 0 -58.5 15.5t-39 34.5t-33 34.5t-41.5 15.5q-24 0 -42 -21t-18 -63h-63q0 72 39 108t84 36q26 0 51.5 -16t42.5 -35.5t38 -35.5t38 -16q24 0 41.5 21.5t17.5 58.5z" />
<glyph unicode="&#x2dd;" horiz-adv-x="514" d="M213 1286l135 148h125l-180 -148h-80zM41 1286l135 148h125l-180 -148h-80z" />
<glyph unicode="&#x3c0;" horiz-adv-x="890" d="M829 852q0 -80 -51.5 -146.5t-140.5 -80.5v-623h-123v639q-30 15 -79.5 53t-57.5 43v-735h-123v756q-72 -18 -72 -109h-121q0 99 61 165.5t165 66.5q45 0 90 -22.5t76 -49.5t70 -49.5t73 -22.5q43 0 78 31.5t35 83.5h120z" />
<glyph unicode="&#x2000;" horiz-adv-x="878" />
<glyph unicode="&#x2001;" horiz-adv-x="1757" />
<glyph unicode="&#x2002;" horiz-adv-x="878" />
<glyph unicode="&#x2003;" horiz-adv-x="1757" />
<glyph unicode="&#x2004;" horiz-adv-x="585" />
<glyph unicode="&#x2005;" horiz-adv-x="439" />
<glyph unicode="&#x2006;" horiz-adv-x="292" />
<glyph unicode="&#x2007;" horiz-adv-x="292" />
<glyph unicode="&#x2008;" horiz-adv-x="219" />
<glyph unicode="&#x2009;" horiz-adv-x="351" />
<glyph unicode="&#x200a;" horiz-adv-x="97" />
<glyph unicode="&#x2010;" horiz-adv-x="610" d="M549 758v-148h-488v148h488z" />
<glyph unicode="&#x2011;" horiz-adv-x="610" d="M549 758v-148h-488v148h488z" />
<glyph unicode="&#x2012;" horiz-adv-x="610" d="M549 758v-148h-488v148h488z" />
<glyph unicode="&#x2013;" horiz-adv-x="720" d="M659 758v-148h-598v148h598z" />
<glyph unicode="&#x2014;" horiz-adv-x="860" d="M799 758v-148h-738v148h738z" />
<glyph unicode="&#x2018;" horiz-adv-x="307" d="M240 1448v-37q-5 -1 -13.5 -3t-29.5 -12.5t-37 -25.5t-29.5 -45.5t-13.5 -69.5q2 4 6.5 10t21 15.5t37.5 9.5q84 0 84 -102q0 -44 -26.5 -72.5t-79.5 -28.5q-46 0 -82.5 42t-36.5 118q0 92 69 149t130 52z" />
<glyph unicode="&#x2019;" horiz-adv-x="307" d="M68 1090v36q5 1 13 3t29 12.5t37.5 25.5t29.5 45.5t13 69.5q-2 -4 -6.5 -10t-21 -15.5t-37.5 -9.5q-84 0 -84 103q0 42 27.5 70t78.5 28q48 0 83.5 -41t35.5 -119q0 -92 -69 -148.5t-129 -49.5z" />
<glyph unicode="&#x201a;" horiz-adv-x="307" d="M68 -166v37q5 1 13 3t29 12.5t37.5 25.5t29.5 45.5t13 69.5q-2 -4 -6.5 -10t-21 -15.5t-37.5 -9.5q-45 0 -64.5 25.5t-19.5 76.5q0 42 27.5 70.5t78.5 28.5q48 0 83.5 -41t35.5 -119q0 -92 -69 -149t-129 -50z" />
<glyph unicode="&#x201c;" horiz-adv-x="589" d="M240 1448v-37q-5 -1 -13.5 -3t-29.5 -12.5t-37 -25.5t-29.5 -45.5t-13.5 -69.5q2 4 6.5 10t21 15.5t37.5 9.5q84 0 84 -102q0 -44 -26.5 -72.5t-79.5 -28.5q-46 0 -82.5 42t-36.5 118q0 92 69 149t130 52zM522 1448v-37q-5 -1 -13.5 -3t-29.5 -12.5t-37 -25.5 t-29.5 -45.5t-13.5 -69.5q2 4 6.5 10t21.5 15.5t38 9.5q84 0 84 -102q0 -44 -27 -72.5t-80 -28.5q-46 0 -82 42t-36 118q0 92 68.5 149t129.5 52z" />
<glyph unicode="&#x201d;" horiz-adv-x="589" d="M350 1090v36q5 1 13.5 3t29.5 12.5t37 25.5t29.5 45.5t13.5 69.5q-2 -4 -6.5 -10t-21 -15.5t-37.5 -9.5q-84 0 -84 103q0 42 27.5 70t78.5 28q48 0 83.5 -41t35.5 -119q0 -92 -69 -148.5t-130 -49.5zM68 1090v36q5 1 13 3t29 12.5t37.5 25.5t29.5 45.5t13 69.5 q-2 -4 -6.5 -10t-21 -15.5t-37.5 -9.5q-84 0 -84 103q0 42 27.5 70t78.5 28q48 0 83.5 -41t35.5 -119q0 -92 -69 -148.5t-129 -49.5z" />
<glyph unicode="&#x201e;" horiz-adv-x="589" d="M350 -166v37q5 1 13.5 3t29.5 12.5t37 25.5t29.5 45.5t13.5 69.5q-2 -4 -6.5 -10t-21 -15.5t-37.5 -9.5q-45 0 -64.5 25.5t-19.5 76.5q0 44 27 71.5t79 27.5q48 0 83.5 -41t35.5 -117q0 -92 -69 -149t-130 -52zM68 -166v37q5 1 13 3t29 12.5t37.5 25.5t29.5 45.5t13 69.5 q-2 -4 -6.5 -10t-21 -15.5t-37.5 -9.5q-45 0 -64.5 25.5t-19.5 76.5q0 44 27 71.5t79 27.5q48 0 83.5 -41t35.5 -117q0 -92 -68.5 -149t-129.5 -52z" />
<glyph unicode="&#x2020;" horiz-adv-x="704" d="M643 1036v-106h-205v-930h-172v930h-205v106h205v398h172v-398h205z" />
<glyph unicode="&#x2021;" horiz-adv-x="704" d="M643 930h-205v-393h205v-107h-205v-430h-172v430h-205v107h205v393h-205v106h205v398h172v-398h205v-106z" />
<glyph unicode="&#x2022;" horiz-adv-x="458" d="M82 717q0 61 43 104t104 43q62 0 105 -43t43 -104t-43.5 -104.5t-104.5 -43.5t-104 43t-43 105z" />
<glyph unicode="&#x2026;" horiz-adv-x="897" d="M145 195q43 0 74 -31t31 -74t-31 -73.5t-74 -30.5t-73.5 30.5t-30.5 73.5t30.5 74t73.5 31zM449 195q43 0 73.5 -31t30.5 -74t-30.5 -73.5t-73.5 -30.5t-74 30.5t-31 73.5t31 74t74 31zM752 195q43 0 73.5 -31t30.5 -74t-30.5 -73.5t-73.5 -30.5t-74 30.5t-31 73.5t31 74 t74 31z" />
<glyph unicode="&#x202f;" horiz-adv-x="351" />
<glyph unicode="&#x2030;" horiz-adv-x="1499" d="M879 147v406q0 26 -18.5 43.5t-43.5 17.5h-16q-26 0 -44 -17.5t-18 -43.5v-406q0 -26 18 -43.5t44 -17.5h16q25 0 43.5 17.5t18.5 43.5zM836 715q66 0 111.5 -46.5t45.5 -111.5v-414q0 -65 -45.5 -111t-111.5 -46h-54q-66 0 -112.5 46t-46.5 111v414q0 65 46.5 111.5 t112.5 46.5h54zM1311 147v406q0 26 -18.5 43.5t-43.5 17.5h-16q-25 0 -43.5 -17.5t-18.5 -43.5v-406q0 -26 18.5 -43.5t43.5 -17.5h16q25 0 43.5 17.5t18.5 43.5zM1268 715q66 0 112.5 -46.5t46.5 -111.5v-414q0 -65 -46.5 -111t-112.5 -46h-54q-66 0 -112.5 46t-46.5 111 v414q0 65 46.5 111.5t112.5 46.5h54zM326 881v405q0 26 -18 44t-44 18h-16q-25 0 -42.5 -18t-17.5 -44v-405q0 -26 17.5 -44t42.5 -18h16q26 0 44 18t18 44zM285 1448q64 0 110.5 -46.5t46.5 -111.5v-413q0 -65 -46.5 -111.5t-110.5 -46.5h-56q-64 0 -110.5 46.5 t-46.5 111.5v413q0 65 46.5 111.5t110.5 46.5h56zM240 0h-111l696 1434h111z" />
<glyph unicode="&#x2044;" horiz-adv-x="561" d="M111 0h-111l451 1434h110z" />
<glyph unicode="&#x205f;" horiz-adv-x="439" />
<glyph unicode="&#x20ac;" horiz-adv-x="755" d="M694 1020l-172 -39v225q0 38 -26.5 64t-63.5 26h-20q-37 0 -63.5 -26t-26.5 -64v-317h229v-92h-229v-70h229v-92h-229v-410q0 -37 26.5 -63.5t63.5 -26.5h20q37 0 63.5 26.5t26.5 63.5v320l172 -37v-285q0 -98 -69.5 -167.5t-167.5 -69.5h-72q-97 0 -167.5 69.5 t-70.5 167.5v412h-75v92h75v70h-75v92h75v321q0 98 70.5 168t167.5 70h72q98 0 167.5 -70t69.5 -168v-190z" />
<glyph unicode="&#x2122;" horiz-adv-x="550" d="M41 1434h186v-76h-55v-322h-76v322h-55v76zM336 1036h-80v398h76l51 -213l51 213h76v-398h-82v185l-43 -168h-6l-43 168v-185z" />
<glyph unicode="&#x2212;" horiz-adv-x="860" d="M799 758v-148h-738v148h738z" />
<glyph unicode="&#x221a;" horiz-adv-x="1193" d="M1026 1434h127l-610 -1434h-103l-172 565l-96 -203h-131l197 371h92l172 -528z" />
<glyph unicode="&#x221e;" horiz-adv-x="1472" d="M1190 838h-354q-39 0 -75 -36t-36 -75v-20q0 -39 36 -75t75 -36h354q36 0 63 36t27 75v20q0 39 -27 75t-63 36zM281 606h198q37 0 63.5 31t26.5 70v20q0 39 -26 68.5t-64 29.5h-198q-36 0 -63.5 -30.5t-27.5 -67.5v-20q0 -38 27.5 -69.5t63.5 -31.5zM477 969 q78 0 124 -44.5t46 -80.5q1 62 63.5 103.5t129.5 41.5h354q98 0 168 -69.5t70 -167.5v-72q0 -97 -70 -167.5t-168 -70.5h-354q-69 0 -130.5 42.5t-62.5 105.5q0 -37 -46 -81t-124 -44h-198q-100 0 -169 60t-69 155v72q0 96 68.5 156.5t169.5 60.5h198z" />
<glyph unicode="&#x222b;" horiz-adv-x="925" d="M670 1671q50 0 94.5 -17t73 -41t49.5 -48t30 -41l9 -17l-92 -41q-2 5 -6 12.5t-18.5 27t-31.5 34.5t-45 27t-59 12q-164 0 -164 -240v-1294q0 -130 -68 -206.5t-186 -76.5q-50 0 -94.5 16.5t-73 40.5t-49.5 48t-30 41l-9 16l92 41q2 -4 6 -11.5t18.5 -26.5t31 -33.5 t44 -26.5t58.5 -12q77 0 114 54.5t37 184.5v1295q0 128 74.5 205t194.5 77z" />
<glyph unicode="&#x2248;" horiz-adv-x="890" d="M705 829h124q0 -36 -12.5 -69.5t-37.5 -62.5t-71 -46.5t-106 -17.5q-47 0 -91.5 19t-73 41.5t-68 41.5t-78.5 19q-42 0 -77.5 -27.5t-35.5 -83.5h-117q0 102 64.5 153.5t165.5 51.5q43 0 88 -19t76.5 -42.5t70 -42.5t68.5 -19q111 0 111 104zM705 586h124 q0 -37 -12.5 -70t-37.5 -62.5t-71 -47t-106 -17.5q-47 0 -91.5 19t-73 41.5t-68 41.5t-78.5 19q-42 0 -77.5 -27.5t-35.5 -83.5h-117q0 102 64.5 153.5t165.5 51.5q43 0 88 -19t76.5 -42.5t70 -42.5t68.5 -19q54 0 82.5 27t28.5 78z" />
<glyph unicode="&#x2260;" horiz-adv-x="720" d="M659 725h-229l-49 -100h278v-148h-350l-61 -127h-96l63 127h-154v148h226l47 100h-273v147h345l67 138h94l-65 -138h157v-147z" />
<glyph unicode="&#x2264;" horiz-adv-x="671" d="M610 958l-331 -186v-12l331 -189v-186l-549 356v50l549 354v-187zM61 338h549v-148h-549v148z" />
<glyph unicode="&#x2265;" horiz-adv-x="671" d="M61 958v187l549 -354v-50l-549 -356v186l332 189v12zM610 338v-148h-549v148h549z" />
<glyph unicode="&#x25ca;" horiz-adv-x="950" d="M758 713v12l-283 420l-282 -420v-12l282 -424zM475 1372l434 -641v-24l-434 -646l-434 646v24z" />
<glyph unicode="&#x25fc;" horiz-adv-x="1228" d="M0 1229h1229v-1229h-1229v1229z" />
<glyph horiz-adv-x="0" />
</font>
</defs>
</svg>
