<?xml version="1.0" standalone="no"?>
<!DOCTYPE svg PUBLIC "-//W3C//DTD SVG 1.1//EN" "http://www.w3.org/Graphics/SVG/1.1/DTD/svg11.dtd" >
<svg xmlns="http://www.w3.org/2000/svg">
<metadata></metadata>
<defs>
<font id="franchiselight" horiz-adv-x="663" >
<font-face units-per-em="2048" ascent="1536" descent="-512" />
<missing-glyph horiz-adv-x="286" />
<glyph unicode=" "  horiz-adv-x="286" />
<glyph unicode="&#x09;" horiz-adv-x="286" />
<glyph unicode="&#xa0;" horiz-adv-x="286" />
<glyph unicode="!" horiz-adv-x="339" d="M207 246h-74l-24 997v191h122v-191zM170 141q32 0 55 -23t23 -55t-23 -54.5t-55 -22.5t-55 22.5t-23 54.5t23 55t55 23z" />
<glyph unicode="&#x22;" horiz-adv-x="421" d="M244 1434h127l-84 -295h-43v295zM51 1139v295h127l-84 -295h-43z" />
<glyph unicode="#" horiz-adv-x="1159" d="M1087 795h-317l-25 -152h342v-102h-360l-57 -330h-103l58 330h-152l-57 -330h-103l58 330h-299v102h317l25 152h-342v102h360l57 330h103l-57 -330h151l57 330h103l-58 -330h299v-102zM643 643l25 152h-152l-24 -152h151z" />
<glyph unicode="$" horiz-adv-x="647" d="M575 1102l-106 -41v96q0 54 -38.5 92.5t-92.5 38.5h-25q-54 0 -92.5 -38.5t-38.5 -92.5v-166q0 -17 1 -24.5t7 -19t19 -23.5l319 -254l10.5 -10.5t15 -17.5t11.5 -25.5t6 -38.5v-295q0 -87 -59.5 -149.5t-146.5 -67.5v-107h-82v107q-88 3 -149.5 66t-61.5 151v190l106 41 v-235q0 -54 38.5 -93t92.5 -39h25q54 0 92.5 39t38.5 93v276q0 34 -25 59v0l-329 271q-35 22 -35 84v184q0 87 60 149.5t147 67.5v105h82v-105q88 -3 149 -66t61 -151v-51z" />
<glyph unicode="%" horiz-adv-x="1044" d="M889 135v428q0 38 -28 66t-66 28h-17q-38 0 -65 -28t-27 -66v-428q0 -37 27 -64.5t65 -27.5h17q38 0 66 27.5t28 64.5zM809 715q64 0 109 -45.5t45 -108.5v-422q0 -63 -45 -108t-109 -45h-45q-63 0 -108.5 45t-45.5 108v422q0 63 45.5 108.5t108.5 45.5h45zM360 868v428 q0 38 -28 66.5t-66 28.5h-16q-38 0 -65 -28t-27 -67v-428q0 -37 27 -64.5t65 -27.5h16q38 0 66 27.5t28 64.5zM281 1448q64 0 108.5 -45.5t44.5 -108.5v-422q0 -63 -44.5 -108t-108.5 -45h-45q-63 0 -108.5 45t-45.5 108v422q0 63 45.5 108.5t108.5 45.5h45zM201 0h-54 l697 1434h53z" />
<glyph unicode="&#x26;" horiz-adv-x="774" d="M485 580l197 -52v-82l-90 23v-266q0 -89 -64 -153t-153 -64h-66q-89 0 -153 64t-64 153v383q0 60 48 115t122 55q-73 0 -121.5 53t-48.5 113v309q0 89 64 153t153 64h66q89 0 153 -64t64 -153v-266l-107 41v229q0 54 -38.5 92.5t-92.5 38.5h-24q-54 0 -92.5 -38.5 t-38.5 -92.5v-297q0 -57 39 -96t96 -39h90v-88h-90q-57 0 -96 -39t-39 -96v-381q0 -54 38.5 -92.5t92.5 -38.5h24q54 0 92.5 38.5t38.5 92.5v381z" />
<glyph unicode="'" horiz-adv-x="229" d="M51 1139v295h127l-84 -295h-43z" />
<glyph unicode="(" horiz-adv-x="417" d="M352 -141q-7 4 -18.5 13t-44.5 43.5t-63.5 76.5t-67.5 115t-63.5 156t-45 202.5t-18.5 251.5q0 104 11 200t29.5 170t42.5 140.5t51 114.5t53.5 88.5t50.5 66.5t42.5 44t29.5 26l11 8l35 -37q-6 -4 -15.5 -12t-37.5 -40t-53.5 -71.5t-56.5 -109t-53.5 -149t-38 -195 t-15.5 -244.5t15 -244t38.5 -196t52.5 -148.5t58 -109t52.5 -70.5t38.5 -41l15 -12z" />
<glyph unicode=")" horiz-adv-x="417" d="M66 1575q7 -4 18.5 -13t44.5 -43.5t63.5 -76.5t67.5 -115t63.5 -156t45 -202.5t18.5 -251.5q0 -104 -11 -200t-29.5 -170t-42.5 -140.5t-51 -114.5t-53.5 -88.5t-50.5 -66.5t-42.5 -44t-29.5 -26l-11 -8l-35 37q6 4 15.5 12t37.5 40t53.5 71.5t56.5 109t53.5 149t38 195 t15.5 244.5t-15 244t-38.5 196t-52.5 148.5t-58 109t-52.5 70.5t-38.5 41l-15 12z" />
<glyph unicode="*" horiz-adv-x="440" d="M240 1227l10 -146h-60l11 144l-121 -80l-29 51l133 64l-133 59l31 53l119 -84l-13 146h60l-10 -144l118 80l31 -51l-131 -64l133 -59l-33 -53z" />
<glyph unicode="+" horiz-adv-x="843" d="M772 659v-81h-309v-310h-82v310h-309v81h309v310h82v-310h309z" />
<glyph unicode="," horiz-adv-x="282" d="M72 -135v31q4 0 10.5 1.5t23.5 9.5t30 20t23.5 36t10.5 55q-14 -26 -51 -26q-68 0 -68 80q0 36 22 58t64 22q36 0 65 -33t29 -94q0 -75 -55 -120t-104 -40z" />
<glyph unicode="-" horiz-adv-x="630" d="M559 659v-81h-487v81h487z" />
<glyph unicode="." horiz-adv-x="258" d="M129 141q32 0 55 -23t23 -55t-23 -54.5t-55 -22.5t-55 22.5t-23 54.5t23 55t55 23z" />
<glyph unicode="/" horiz-adv-x="524" d="M63 0h-53l451 1434h53z" />
<glyph unicode="0" horiz-adv-x="704" d="M385 1448q89 0 153 -64t64 -153v-1028q0 -89 -64 -153t-153 -64h-66q-89 0 -153 64t-64 153v1028q0 89 64 153t153 64h66zM496 199v1036q0 54 -38.5 92.5t-92.5 38.5h-25q-54 0 -92.5 -38.5t-38.5 -92.5v-1036q0 -54 38.5 -92.5t92.5 -38.5h25q54 0 92.5 38.5t38.5 92.5z " />
<glyph unicode="1" horiz-adv-x="444" d="M236 0v1208q-10 -8 -27.5 -19t-69 -29.5t-98.5 -18.5v80q69 0 147 69.5t78 143.5h76v-1434h-106z" />
<glyph unicode="2" horiz-adv-x="665" d="M186 96h387v-96h-471q-18 18 -18 102q0 74 38 175t92 192t107.5 171t91.5 128l38 47q9 14 11.5 23t2.5 36v361q0 54 -38.5 92.5t-92.5 38.5h-25q-54 0 -92.5 -38.5t-38.5 -92.5v-125l-106 -29v150q0 89 64 153t153 64h65q89 0 153 -64t64 -153v-391q0 -5 -1.5 -11t-3 -11 t-5.5 -13t-7 -12.5t-9 -14t-9.5 -14.5t-11.5 -16.5t-12 -16.5h-2l-60 -81q-59 -80 -113 -161t-102.5 -194.5t-48.5 -198.5z" />
<glyph unicode="3" horiz-adv-x="684" d="M592 922q0 -60 -48.5 -113t-121.5 -53q74 0 122 -55t48 -115v-383q0 -89 -64 -153t-153 -64h-66q-89 0 -153 64t-64 153v205l107 28v-237q0 -54 38.5 -92.5t92.5 -38.5h24q54 0 92.5 38.5t38.5 92.5v381q0 57 -39 96t-96 39h-90v88h90q57 0 96 39t39 96v297 q0 54 -38.5 92.5t-92.5 38.5h-24q-54 0 -92.5 -38.5t-38.5 -92.5v-127l-107 -27v150q0 89 64 153t153 64h66q89 0 153 -64t64 -153v-309z" />
<glyph unicode="4" horiz-adv-x="704" d="M414 408v759l-11 -2q-27 -142 -89.5 -331t-111.5 -308l-48 -118h260zM612 319h-102v-319h-96v319h-363v62q11 27 30.5 74.5t71.5 183.5t95 260t86 275.5t61 259.5h115v-1026h102v-89z" />
<glyph unicode="5" horiz-adv-x="684" d="M381 901q66 0 110 -20t65 -55.5t28.5 -71t7.5 -80.5v-471q0 -89 -64 -153t-153 -64h-66q-89 0 -153 64t-64 153v53l107 27v-84q0 -54 38.5 -92.5t92.5 -38.5h24q54 0 92.5 38.5t38.5 92.5v471q0 62 -38 100.5t-93 38.5h-24q-53 0 -92 -42t-39 -97v-84l-107 26v822h451 v-97h-344v-528q3 4 8 10t22.5 22t37 28t50.5 22t64 10z" />
<glyph unicode="6" horiz-adv-x="684" d="M330 809q-53 0 -92 -42t-39 -97v-471q0 -54 38.5 -92.5t92.5 -38.5h24q54 0 92.5 38.5t38.5 92.5v471q0 62 -38 100.5t-93 38.5h-24zM592 1137l-107 -41v139q0 54 -38.5 92.5t-92.5 38.5h-24q-54 0 -92.5 -38.5t-38.5 -92.5v-424q7 9 17.5 19t34.5 28.5t58 30.5t72 12 q66 0 110 -20t65 -55.5t28.5 -71t7.5 -80.5v-471q0 -89 -64 -153t-153 -64h-66q-89 0 -153 64t-64 153v1028q0 89 64 153t153 64h66q89 0 153 -64t64 -153v-94z" />
<glyph unicode="7" horiz-adv-x="591" d="M530 1434v-84l-24 -62q-106 -307 -152 -747q-28 -263 -28 -541h-109q0 223 20.5 443.5t50.5 375.5t59.5 278.5t50.5 184.5l20 61h-367v91h479z" />
<glyph unicode="8" horiz-adv-x="684" d="M350 803q57 0 96 39t39 96v297q0 54 -38.5 92.5t-92.5 38.5h-24q-54 0 -92.5 -38.5t-38.5 -92.5v-297q0 -57 39 -96t96 -39h16zM592 922q0 -36 -15 -66.5t-37 -48t-44 -30t-37 -17.5l-15 -4q49 -1 84 -29t49.5 -65t14.5 -76v-383q0 -89 -64 -153t-153 -64h-66 q-89 0 -153 64t-64 153v383q0 39 14.5 76t49.5 65t84 29q-6 2 -16 5t-35.5 16.5t-45 30.5t-35.5 47.5t-16 66.5v309q0 89 64 153t153 64h66q89 0 153 -64t64 -153v-309zM485 580q0 57 -39 96t-96 39h-16q-57 0 -96 -39t-39 -96v-381q0 -54 38.5 -92.5t92.5 -38.5h24 q54 0 92.5 38.5t38.5 92.5v381z" />
<glyph unicode="9" horiz-adv-x="684" d="M354 625q53 0 92 42t39 97v471q0 54 -38.5 92.5t-92.5 38.5h-24q-54 0 -92.5 -38.5t-38.5 -92.5v-471q0 -62 38 -100.5t93 -38.5h24zM92 297l107 41v-139q0 -54 38.5 -92.5t92.5 -38.5h24q54 0 92.5 38.5t38.5 92.5v424q-12 -14 -27 -29.5t-60.5 -38.5t-94.5 -23 q-66 0 -110 20t-65 56t-28.5 71.5t-7.5 80.5v471q0 89 64 153t153 64h66q89 0 153 -64t64 -153v-1028q0 -89 -64 -153t-153 -64h-66q-89 0 -153 64t-64 153v94z" />
<glyph unicode=":" horiz-adv-x="258" d="M129 643q-32 0 -55 23t-23 55t23 55t55 23t55 -23t23 -55t-23 -55t-55 -23zM129 344q-32 0 -55 23t-23 55t23 55t55 23t55 -23t23 -55t-23 -55t-55 -23z" />
<glyph unicode=";" horiz-adv-x="282" d="M137 500q36 0 65 -33t29 -94q0 -75 -55 -120t-104 -40v31q4 0 10.5 1.5t23.5 10t30 20.5t23.5 36t10.5 55q-14 -27 -51 -27q-68 0 -68 80q0 36 22 58t64 22zM129 643q-32 0 -55 23t-23 55t23 55t55 23t55 -23t23 -55t-23 -55t-55 -23z" />
<glyph unicode="&#x3c;" horiz-adv-x="671" d="M600 248v-115l-549 463v45l549 463v-115l-448 -364v-13z" />
<glyph unicode="=" horiz-adv-x="741" d="M670 672h-598v82h598v-82zM670 483h-598v82h598v-82z" />
<glyph unicode="&#x3e;" horiz-adv-x="671" d="M72 989v115l549 -463v-45l-549 -463v115l448 364v13z" />
<glyph unicode="?" horiz-adv-x="714" d="M82 965v178q0 145 70.5 225t197.5 80q140 0 210.5 -83.5t70.5 -260.5v-2q6 -207 -6 -236q-6 -13 -70.5 -77t-131.5 -134t-79 -96q-4 -7 -10 -86t-10 -154l-5 -75h-63q-18 239 -18 311q0 20 61 92.5t123 134.5l61 62q27 26 33 45.5t6 64.5v42v63.5t-1 58t-3 52.5t-6 46.5 t-10.5 40t-16 33.5t-22 26.5t-29 19.5t-37.5 12t-47 4q-82 0 -122 -59.5t-40 -137.5v-149zM289 -14q-32 0 -55 22.5t-23 54.5t23 55t55 23t55 -23t23 -55t-23 -54.5t-55 -22.5z" />
<glyph unicode="@" horiz-adv-x="1060" d="M797 979q-37 -128 -62 -215t-31 -106.5t-6 -20.5q-7 -25 -8 -53.5t12 -53t41 -24.5q16 0 34.5 4t46.5 22.5t49.5 49t37 89.5t15.5 138q0 57 -12.5 113.5t-41 112t-71 98t-108.5 68.5t-146 26q-76 0 -143.5 -32t-115.5 -84.5t-82.5 -119.5t-51.5 -138.5t-17 -139.5 q0 -99 25.5 -183.5t67.5 -142t96 -98.5t110 -59.5t111 -18.5q51 0 98 11t77.5 27t54 32t33.5 27l11 11l45 -55q-4 -5 -11.5 -13.5t-36 -30.5t-63 -39t-94 -30.5t-126.5 -13.5q-62 0 -127 21t-129.5 67t-114.5 112t-81.5 164.5t-31.5 215.5q0 138 43 252t114 186t158.5 111 t180.5 39v0q108 0 193 -36.5t134.5 -90.5t81.5 -124.5t43 -130.5t11 -116q0 -99 -33 -184.5t-98.5 -140t-149.5 -54.5q-37 0 -66 12.5t-43 30t-23 34.5t-11 29l-2 13l-5.5 -11t-17.5 -25.5t-30.5 -32t-44.5 -25t-60 -11.5q-12 0 -26.5 3.5t-35 15.5t-36.5 31t-27.5 54.5 t-11.5 80.5q0 81 33.5 164t94 140.5t128.5 57.5v0q25 0 45 -7t31 -16.5t19 -19.5t10 -17l3 -7l23 55v2h121zM580 623l57 217q0 3 -0.5 7.5t-5.5 16t-13.5 20.5t-27.5 16t-45 7q-46 0 -83.5 -43.5t-55 -97.5t-17.5 -98q0 -54 20 -84t48 -37q19 -5 38.5 1t34 18t26.5 25t18 23 z" />
<glyph unicode="A" horiz-adv-x="628" d="M207 371h221l-96 917h-17zM393 1434l185 -1434h-99l-35 279h-254l-38 -279h-101l195 1434h147z" />
<glyph unicode="B" horiz-adv-x="673" d="M360 803q57 0 96.5 39t39.5 96v283q0 54 -38.5 92.5t-92.5 38.5h-156v-549h151zM602 922q0 -60 -48.5 -113t-121.5 -53q74 0 122 -55t48 -115v-369q0 -89 -64 -153t-153 -64h-283v1434h283q89 0 153 -64t64 -153v-295zM360 715h-151v-633h156q54 0 92.5 38.5t38.5 92.5 v367q0 57 -39.5 96t-96.5 39z" />
<glyph unicode="C" horiz-adv-x="653" d="M475 565l107 -41v-321q0 -89 -64 -153t-153 -64h-66q-89 0 -153 64t-64 153v1028q0 89 64 153t153 64h66q89 0 153 -64t64 -153v-225l-107 -41v270q0 54 -38.5 92.5t-92.5 38.5h-25q-54 0 -92.5 -38.5t-38.5 -92.5v-1036q0 -54 38.5 -92.5t92.5 -38.5h25q54 0 92.5 38.5 t38.5 92.5v366z" />
<glyph unicode="D" horiz-adv-x="684" d="M496 213v1008q0 54 -38.5 92.5t-92.5 38.5h-156v-1270h156q54 0 92.5 38.5t38.5 92.5zM385 1434q89 0 153 -64t64 -153v-1000q0 -89 -64 -153t-153 -64h-283v1434h283z" />
<glyph unicode="E" horiz-adv-x="591" d="M102 0v1434h398v-107h-291v-596h256v-106h-256v-519h291v-106h-398z" />
<glyph unicode="F" horiz-adv-x="571" d="M209 1327v-596h256v-106h-256v-625h-107v1434h398v-107h-291z" />
<glyph unicode="G" d="M582 1102l-107 -41v174q0 54 -38.5 92.5t-92.5 38.5h-25q-54 0 -92.5 -38.5t-38.5 -92.5v-1036q0 -54 38.5 -92.5t92.5 -38.5h25q54 0 92.5 38.5t38.5 92.5v434h-156v98h263v-528q0 -89 -64 -153t-153 -64h-66q-89 0 -153 64t-64 153v1028q0 89 64 153t153 64h66 q89 0 153 -64t64 -153v-129z" />
<glyph unicode="H" horiz-adv-x="727" d="M209 1434v-703h309v703h107v-1434h-107v627h-309v-627h-107v1434h107z" />
<glyph unicode="I" horiz-adv-x="311" d="M209 0h-107v1434h107v-1434z" />
<glyph unicode="J" horiz-adv-x="653" d="M455 1434h106v-1231q0 -89 -64 -153t-153 -64h-65q-89 0 -153.5 64t-64.5 153v258l107 41v-303q0 -54 38.5 -92.5t92.5 -38.5h25q54 0 92.5 38.5t38.5 92.5v1235z" />
<glyph unicode="K" horiz-adv-x="731" d="M336 696l-127 -329v-367h-107v1434h107v-816l354 816h115l-283 -621l285 -813h-119z" />
<glyph unicode="L" horiz-adv-x="593" d="M532 0h-419v1434h106v-1328h313v-106z" />
<glyph unicode="M" horiz-adv-x="946" d="M479 129h-12l-248 905h-10v-1034h-107v1434h99l268 -990h8l268 990h99v-1434h-107v1034h-10z" />
<glyph unicode="N" horiz-adv-x="772" d="M209 0h-107v1434h99l350 -1100h14v1100h105v-1434h-113l-338 1034h-10v-1034z" />
<glyph unicode="O" d="M365 1448q89 0 153 -64t64 -153v-1028q0 -89 -64 -153t-153 -64h-66q-89 0 -153 64t-64 153v1028q0 89 64 153t153 64h66zM475 199v1036q0 54 -38.5 92.5t-92.5 38.5h-25q-54 0 -92.5 -38.5t-38.5 -92.5v-1036q0 -54 38.5 -92.5t92.5 -38.5h25q54 0 92.5 38.5t38.5 92.5z " />
<glyph unicode="P" horiz-adv-x="649" d="M492 862v359q0 54 -38.5 92.5t-93.5 38.5h-155v-621h155q55 0 93.5 38.5t38.5 92.5zM381 1434q90 0 153.5 -63.5t63.5 -153.5v-351q0 -90 -63.5 -153.5t-153.5 -63.5h-176v-649h-103v1434h279z" />
<glyph unicode="Q" d="M475 199v1036q0 54 -38.5 92.5t-92.5 38.5h-25q-54 0 -92.5 -38.5t-38.5 -92.5v-1036q0 -54 38.5 -92.5t92.5 -38.5h25q54 0 92.5 38.5t38.5 92.5zM582 203q0 -65 -35.5 -118.5t-93.5 -80.5l110 -168l-69 -33l-123 183h-6h-66q-89 0 -153 64t-64 153v1028q0 89 64 153 t153 64h66q89 0 153 -64t64 -153v-1028z" />
<glyph unicode="R" horiz-adv-x="661" d="M205 1352v-621h155q55 0 93.5 38.5t38.5 92.5v359q0 54 -38.5 92.5t-93.5 38.5h-155zM610 0h-102l-199 649h-104v-649h-103v1434h279q90 0 153.5 -63.5t63.5 -153.5v-351q0 -82 -53.5 -143t-132.5 -72z" />
<glyph unicode="S" horiz-adv-x="647" d="M575 1102l-106 -41v174q0 54 -38.5 92.5t-92.5 38.5h-25q-54 0 -92.5 -38.5t-38.5 -92.5v-244q0 -17 1 -24.5t7 -19t19 -23.5l319 -254l10.5 -10.5t15 -17.5t11.5 -25.5t6 -38.5v-375q0 -89 -64 -153t-153 -64h-65q-89 0 -153 64t-64 153v258l106 41v-303 q0 -54 38.5 -92.5t92.5 -38.5h25q54 0 92.5 38.5t38.5 92.5v356q0 18 -6.5 33t-12.5 20l-6 6q10 -8 -72 59.5t-170 139.5l-87 72q-35 22 -35 84v262q0 89 64 153t153 64h65q89 0 153 -64t64 -153v-129z" />
<glyph unicode="T" horiz-adv-x="614" d="M553 1327h-195v-1327h-106v1327h-191v107h492v-107z" />
<glyph unicode="U" d="M475 1434h107v-1231q0 -89 -64 -153t-153 -64h-66q-89 0 -153 64t-64 153v1231h106v-1235q0 -54 38.5 -92.5t92.5 -38.5h25q54 0 92.5 38.5t38.5 92.5v1235z" />
<glyph unicode="V" horiz-adv-x="608" d="M356 0h-104l-221 1434h100l168 -1143h12l168 1143h99z" />
<glyph unicode="W" horiz-adv-x="985" d="M483 1092l-147 -1092h-105l-200 1434h100l150 -1162h10l151 1162h99l151 -1162h13l149 1162h100l-202 -1434h-105l-147 1092h-17z" />
<glyph unicode="X" horiz-adv-x="729" d="M354 582l-137 -582h-117l195 719l-223 715h133l153 -611h13l151 611h135l-225 -715l197 -719h-119l-135 582h-21z" />
<glyph unicode="Y" horiz-adv-x="659" d="M276 551l-245 883h129l166 -715h10l164 715h129l-244 -883v-551h-109v551z" />
<glyph unicode="Z" horiz-adv-x="649" d="M72 1339v95h481l-324 -1340h349v-94h-486l326 1339h-346z" />
<glyph unicode="[" horiz-adv-x="378" d="M98 1614v-1796h250v-56h-317v1909h317v-57h-250z" />
<glyph unicode="\" horiz-adv-x="524" d="M461 0l-451 1434h53l451 -1434h-53z" />
<glyph unicode="]" horiz-adv-x="378" d="M281 -182v1796h-250v57h317v-1909h-317v56h250z" />
<glyph unicode="^" horiz-adv-x="577" d="M283 1434h12l272 -332h-90l-186 235h-4l-187 -235h-90z" />
<glyph unicode="_" horiz-adv-x="876" d="M825 0v-82h-774v82h774z" />
<glyph unicode="`" horiz-adv-x="317" d="M266 1495h-59l-156 127h94z" />
<glyph unicode="a" horiz-adv-x="628" d="M211 371h213l-92 712h-17zM383 1229l195 -1229h-97l-37 279h-254l-40 -279h-99l205 1229h127z" />
<glyph unicode="b" horiz-adv-x="673" d="M360 700q57 0 96.5 39.5t39.5 96.5v180q0 54 -38.5 92.5t-92.5 38.5h-156v-447h151zM602 819q0 -60 -48.5 -113t-121.5 -53q74 0 122 -55t48 -115v-266q0 -89 -64 -153t-153 -64h-283v1229h283q89 0 153 -64t64 -153v-193zM360 612h-151v-530h156q54 0 92.5 38.5 t38.5 92.5v264q0 57 -39.5 96t-96.5 39z" />
<glyph unicode="c" horiz-adv-x="653" d="M475 524l107 -41v-280q0 -89 -64 -153t-153 -64h-66q-89 0 -153 64t-64 153v823q0 89 64 153t153 64h66q89 0 153 -64t64 -153v-225l-107 -41v270q0 54 -38.5 92.5t-92.5 38.5h-25q-54 0 -92.5 -38.5t-38.5 -92.5v-831q0 -54 38.5 -92.5t92.5 -38.5h25q54 0 92.5 38.5 t38.5 92.5v325z" />
<glyph unicode="d" horiz-adv-x="684" d="M496 213v803q0 54 -38.5 92.5t-92.5 38.5h-156v-1065h156q54 0 92.5 38.5t38.5 92.5zM385 1229q89 0 153 -64t64 -153v-795q0 -89 -64 -153t-153 -64h-283v1229h283z" />
<glyph unicode="e" horiz-adv-x="591" d="M102 0v1229h398v-107h-291v-487h256v-107h-256v-422h291v-106h-398z" />
<glyph unicode="f" horiz-adv-x="571" d="M209 1122v-487h256v-107h-256v-528h-107v1229h398v-107h-291z" />
<glyph unicode="g" d="M582 897l-107 -41v174q0 54 -38.5 92.5t-92.5 38.5h-25q-54 0 -92.5 -38.5t-38.5 -92.5v-831q0 -54 38.5 -92.5t92.5 -38.5h25q54 0 92.5 38.5t38.5 92.5v338h-156v98h263v-432q0 -89 -64 -153t-153 -64h-66q-89 0 -153 64t-64 153v823q0 89 64 153t153 64h66 q89 0 153 -64t64 -153v-129z" />
<glyph unicode="h" horiz-adv-x="727" d="M209 1229v-594h309v594h107v-1229h-107v530h-309v-530h-107v1229h107z" />
<glyph unicode="i" horiz-adv-x="311" d="M209 0h-107v1229h107v-1229z" />
<glyph unicode="j" horiz-adv-x="653" d="M455 1229h106v-1026q0 -89 -64 -153t-153 -64h-65q-89 0 -153.5 64t-64.5 153v258l107 41v-303q0 -54 38.5 -92.5t92.5 -38.5h25q54 0 92.5 38.5t38.5 92.5v1030z" />
<glyph unicode="k" horiz-adv-x="731" d="M336 594l-127 -248v-346h-107v1229h107v-692l354 692h115l-283 -518l285 -711h-119z" />
<glyph unicode="l" horiz-adv-x="593" d="M532 0h-419v1229h106v-1123h313v-106z" />
<glyph unicode="m" horiz-adv-x="946" d="M479 150h-12l-248 741h-10v-891h-107v1229h99l268 -826h8l268 826h99v-1229h-107v891h-10z" />
<glyph unicode="n" horiz-adv-x="772" d="M209 0h-107v1229h99l350 -932h14v932h105v-1229h-99l-352 891h-10v-891z" />
<glyph unicode="o" d="M365 1243q89 0 153 -64t64 -153v-823q0 -89 -64 -153t-153 -64h-66q-89 0 -153 64t-64 153v823q0 89 64 153t153 64h66zM475 199v831q0 54 -38.5 92.5t-92.5 38.5h-25q-54 0 -92.5 -38.5t-38.5 -92.5v-831q0 -54 38.5 -92.5t92.5 -38.5h25q54 0 92.5 38.5t38.5 92.5z" />
<glyph unicode="p" horiz-adv-x="649" d="M492 760v256q0 54 -38.5 92.5t-93.5 38.5h-155v-518h155q55 0 93.5 38.5t38.5 92.5zM381 1229q90 0 153.5 -63.5t63.5 -153.5v-248q0 -90 -63.5 -153.5t-153.5 -63.5h-176v-547h-103v1229h279z" />
<glyph unicode="q" d="M475 199v831q0 54 -38.5 92.5t-92.5 38.5h-25q-54 0 -92.5 -38.5t-38.5 -92.5v-831q0 -54 38.5 -92.5t92.5 -38.5h25q54 0 92.5 38.5t38.5 92.5zM582 203q0 -65 -35.5 -118.5t-93.5 -80.5l110 -168l-69 -33l-123 183h-6h-66q-89 0 -153 64t-64 153v823q0 89 64 153 t153 64h66q89 0 153 -64t64 -153v-823z" />
<glyph unicode="r" horiz-adv-x="661" d="M205 1147v-518h155q55 0 93.5 38.5t38.5 92.5v256q0 54 -38.5 92.5t-93.5 38.5h-155zM610 0h-102l-199 547h-104v-547h-103v1229h279q90 0 153.5 -63.5t63.5 -153.5v-248q0 -82 -53.5 -143t-132.5 -72z" />
<glyph unicode="s" horiz-adv-x="647" d="M575 897l-106 -41v174q0 54 -38.5 92.5t-92.5 38.5h-25q-54 0 -92.5 -38.5t-38.5 -92.5v-162q0 -17 1 -24.5t7 -19t19 -23.5l319 -254l10.5 -10.5t15 -17.5t11.5 -25.5t6 -38.5v-252q0 -89 -64 -153t-153 -64h-65q-89 0 -153 64t-64 153v217l106 41v-262 q0 -54 38.5 -92.5t92.5 -38.5h25q54 0 92.5 38.5t38.5 92.5v233q0 18 -6.5 33t-12.5 21l-6 6q10 -8 -72 59.5t-170 138.5l-87 72q-35 22 -35 84v180q0 89 64 153t153 64h65q89 0 153 -64t64 -153v-129z" />
<glyph unicode="t" horiz-adv-x="614" d="M553 1122h-195v-1122h-106v1122h-191v107h492v-107z" />
<glyph unicode="u" d="M475 1229h107v-1026q0 -89 -64 -153t-153 -64h-66q-89 0 -153 64t-64 153v1026h106v-1030q0 -54 38.5 -92.5t92.5 -38.5h25q54 0 92.5 38.5t38.5 92.5v1030z" />
<glyph unicode="v" horiz-adv-x="608" d="M356 0h-104l-221 1229h100l168 -938h12l168 938h99z" />
<glyph unicode="w" horiz-adv-x="985" d="M483 1010l-147 -1010h-105l-200 1229h100l150 -957h10l151 957h99l151 -957h13l149 957h100l-202 -1229h-105l-147 1010h-17z" />
<glyph unicode="x" horiz-adv-x="729" d="M354 479l-137 -479h-117l195 616l-223 613h133l153 -508h13l151 508h135l-225 -613l197 -616h-119l-135 479h-21z" />
<glyph unicode="y" horiz-adv-x="659" d="M276 551l-245 678h129l166 -510h10l164 510h129l-244 -678v-551h-109v551z" />
<glyph unicode="z" horiz-adv-x="649" d="M72 1135v94h481l-324 -1135h349v-94h-486l326 1135h-346z" />
<glyph unicode="{" horiz-adv-x="507" d="M295 545q0 37 -21 66t-50.5 43t-59.5 23t-51 11l-21 2v53q8 1 22 2.5t49 11t61.5 23.5t48.5 43t22 66q0 36 -25.5 94.5t-55.5 113t-55.5 128t-25.5 135.5q0 51 12 92t28.5 66.5t44.5 44t49.5 27t53.5 13t47.5 5t39.5 0.5h8v-72h-6q-22 0 -34.5 -0.5t-37.5 -3.5t-40.5 -9 t-36 -19t-32 -31t-20 -46.5t-8.5 -64.5q0 -68 26.5 -142t57.5 -126t57.5 -110t26.5 -97q0 -36 -11.5 -66.5t-27 -48.5t-32.5 -31.5t-27.5 -18.5t-12.5 -5v0l4 -2q4 -2 10.5 -5.5t15 -9t17.5 -13.5t18.5 -17.5t17.5 -22.5t14.5 -27.5t10 -33.5t3.5 -39q0 -39 -26.5 -97 t-57.5 -110t-57.5 -126t-26.5 -142q0 -50 16 -85t36 -52t54 -26t53 -10t50 -1h6v-72q-101 0 -154 21q-129 52 -129 227q0 62 25.5 135.5t55.5 128t55.5 113t25.5 94.5z" />
<glyph unicode="|" horiz-adv-x="237" d="M92 1628h53v-1823h-53v1823z" />
<glyph unicode="}" horiz-adv-x="507" d="M215 889q0 -37 20.5 -66t50.5 -43.5t59.5 -23.5t50.5 -11l20 -2v-53q-8 0 -21.5 -2t-48.5 -11t-61.5 -23t-48 -43t-21.5 -66q0 -36 25.5 -94.5t55.5 -113t55.5 -128t25.5 -135.5q0 -51 -12 -92t-29 -66.5t-45 -44t-49.5 -27t-54 -13t-47.5 -5t-40 -0.5h-8v72h34.5t37.5 3 t43 8.5t37 18.5t34.5 31t21 47t9.5 66q0 68 -26.5 142t-58.5 126t-58.5 110t-26.5 97q0 20 3.5 39t10 33.5t14.5 27.5t17.5 22.5t18.5 17.5t17.5 13.5t15 9t10.5 5.5l4 2v0q-2 0 -12.5 5t-27.5 18.5t-32.5 31.5t-27 48.5t-11.5 66.5q0 40 26.5 97.5t58.5 109.5t58.5 126 t26.5 142q0 37 -9.5 66t-21 47t-34.5 31t-37 18.5t-43 8.5t-37.5 3h-34.5v72q101 0 155 -21q130 -52 130 -227q0 -62 -25.5 -135.5t-55.5 -128t-55.5 -113t-25.5 -94.5z" />
<glyph unicode="~" horiz-adv-x="784" d="M618 690h95q0 -29 -9 -56.5t-29 -52.5t-56.5 -40t-86.5 -15q-40 0 -79 17.5t-65.5 38t-61 38t-66.5 17.5q-35 0 -68.5 -27.5t-33.5 -68.5h-86q0 76 54 123t134 47q35 0 74 -17.5t67.5 -39t62.5 -39t60 -17.5q53 0 73.5 24.5t20.5 67.5z" />
<glyph unicode="&#xa1;" horiz-adv-x="339" d="M133 1188h74l24 -998v-190h-122v190zM170 1292q-32 0 -55 23t-23 55t23 55t55 23t55 -23t23 -55t-23 -55t-55 -23z" />
<glyph unicode="&#xa2;" horiz-adv-x="653" d="M582 883l-107 -17v160q0 54 -38.5 92.5t-92.5 38.5h-25q-54 0 -92.5 -38.5t-38.5 -92.5v-610q0 -54 38.5 -92.5t92.5 -38.5h25q54 0 92.5 38.5t38.5 92.5v252l107 -15v-233q0 -87 -61 -150.5t-148 -66.5v-203h-82v203q-88 3 -148.5 66t-60.5 151v602q0 88 60.5 151 t148.5 66v195h82v-195q87 -3 148 -66.5t61 -150.5v-139z" />
<glyph unicode="&#xa3;" horiz-adv-x="688" d="M594 362v-186q0 -80 -55.5 -135t-130.5 -55q-48 0 -144 34.5t-127 34.5q-22 0 -48 -6.5t-41 -12.5l-15 -7l-2 22q4 5 11.5 15t26 43t33 69t26 92t11.5 113v877q0 76 60 132t129 56h78q74 0 131 -55t57 -133v-121l-100 -41v151q0 49 -35 84t-84 35h-17q-49 0 -83.5 -34.5 t-34.5 -84.5v-854q0 -65 -15.5 -130.5t-30.5 -98.5l-16 -33q11 -7 29.5 -18t73.5 -29t106 -18q107 0 107 118v197zM41 668v53h399v-53h-399z" />
<glyph unicode="&#xa4;" horiz-adv-x="829" d="M416 471q96 0 164.5 69.5t68.5 166.5t-68 165t-165 68t-166.5 -68.5t-69.5 -164.5q0 -97 69.5 -166.5t166.5 -69.5zM682 500l117 -117l-60 -61l-118 116q-87 -69 -205 -69q-116 0 -207 69l-117 -116l-61 61l116 117q-69 91 -69 207q0 113 72 204h-3l-116 117l61 62 l117 -117q91 69 207 69q114 0 205 -69l118 117l60 -62l-117 -117q70 -93 70 -204q0 -114 -70 -207z" />
<glyph unicode="&#xa5;" horiz-adv-x="659" d="M385 551v-154h145v-53h-145v-102h145v-54h-145v-188h-109v188h-145v54h145v102h-145v53h145v154l-245 883h129l166 -715h10l164 715h129z" />
<glyph unicode="&#xa6;" horiz-adv-x="237" d="M145 803h-53v825h53v-825zM92 541h53v-736h-53v736z" />
<glyph unicode="&#xa7;" horiz-adv-x="647" d="M440 328zM440 897zM575 1245l-106 -41v133q0 57 -39 94t-104 37t-104.5 -37t-39.5 -94v-63q0 -17 1 -25t7 -19.5t19 -23.5l319 -254l10.5 -10.5t15 -17.5t11.5 -25.5t6 -38.5v-295q0 -109 -84 -149l41 -33l10.5 -10.5t15 -17.5t11.5 -25.5t6 -38.5v-193q0 -89 -64 -153 t-153 -64h-65q-89 0 -153 64t-64 153v258l106 41v-303q0 -56 40.5 -93.5t107.5 -37.5q66 0 102.5 37t36.5 94v174q0 35 -25 60v0l-329 270q-35 22 -35 86v182q0 71 42 128t107 79l-114 94q-35 22 -35 86v80q0 90 63.5 153.5t153.5 63.5h65q90 0 153.5 -63.5t63.5 -153.5v-88 zM209 637q28 -25 192 -154q64 29 64 78v277q0 34 -25 59v0q-6 6 -127 104q-54 0 -92.5 -38t-38.5 -93v-165q0 -17 1 -25t7 -19.5t19 -23.5z" />
<glyph unicode="&#xa8;" horiz-adv-x="524" d="M129 1651q32 0 55 -23t23 -55t-23 -55t-55 -23t-55 23t-23 55t23 55t55 23zM395 1651q32 0 55 -23t23 -55t-23 -55t-55 -23t-55 23t-23 55t23 55t55 23z" />
<glyph unicode="&#xa9;" horiz-adv-x="552" d="M276 1448q94 0 160 -65.5t66 -159.5t-66 -160t-160 -66t-159.5 66t-65.5 160t65.5 159.5t159.5 65.5zM276 1038q76 0 130.5 54t54.5 131q0 76 -54 130t-131 54q-76 0 -130 -53.5t-54 -130.5t54 -131t130 -54zM291 1200l61 -10v-55q0 -28 -18.5 -47t-46.5 -19h-21 q-28 0 -46.5 19t-18.5 47v178q0 28 18.5 46.5t46.5 18.5h21q28 0 46.5 -18.5t18.5 -46.5v-49l-61 -13v60q0 5 -3.5 8.5t-8.5 3.5h-5q-4 0 -8 -3.5t-4 -8.5v-174q0 -5 4 -9t8 -4h5q4 0 8 4t4 9v63z" />
<glyph unicode="&#xab;" horiz-adv-x="575" d="M260 709v16l244 217v-92l-156 -131v-4l156 -131v-92zM295 492l-244 217v16l244 217v-92l-156 -131v-4l156 -131v-92z" />
<glyph unicode="&#xac;" horiz-adv-x="905" d="M72 905h762v-448h-95v356h-667v92z" />
<glyph unicode="&#xad;" horiz-adv-x="630" d="M559 659v-81h-487v81h487z" />
<glyph unicode="&#xae;" horiz-adv-x="552" d="M264 1081h-51v281q0 8 6 8h68q26 0 42.5 -19t16.5 -46v-37q0 -45 -37 -56l47 -131h-59l-33 111v-111zM264 1315v-62h17q4 0 8 4t4 9v37q0 5 -3.5 8.5t-8.5 3.5h-17zM276 1448q94 0 160 -65.5t66 -159.5t-66 -160t-160 -66t-159.5 66t-65.5 160t65.5 159.5t159.5 65.5z M276 1038q76 0 130.5 54t54.5 131q0 76 -54 130t-131 54q-76 0 -130 -53.5t-54 -130.5t54 -131t130 -54z" />
<glyph unicode="&#xb0;" horiz-adv-x="364" d="M182 1462q54 0 92.5 -38.5t38.5 -92.5t-38.5 -92.5t-92.5 -38.5t-92.5 38.5t-38.5 92.5t38.5 92.5t92.5 38.5zM182 1253q32 0 55 23t23 55t-23 55t-55 23t-55 -23t-23 -55t23 -55t55 -23z" />
<glyph unicode="&#xb1;" horiz-adv-x="843" d="M772 276v-81h-700v81h700zM772 731v-82h-309v-309h-82v309h-309v82h309v309h82v-309h309z" />
<glyph unicode="&#xb4;" horiz-adv-x="317" d="M51 1495l121 127h94l-155 -127h-60z" />
<glyph unicode="&#xb5;" horiz-adv-x="827" d="M621 967h104v-967h-104v137q-2 -5 -6 -14t-21 -31t-38.5 -39t-59.5 -31t-82 -14q-41 0 -77.5 10.5t-59 25.5t-39.5 30.5t-24 25.5l-7 11v-598h-105v1454h105v-590q0 -125 51 -194.5t156 -69.5t156 84.5t51 230.5v539z" />
<glyph unicode="&#xb6;" horiz-adv-x="786" d="M444 731v621h-155q-54 0 -92.5 -38.5t-38.5 -92.5v-359q0 -54 38.5 -92.5t92.5 -38.5h155zM268 1434h416v-1434h-53v1352h-84v-1352h-103v649h-176q-89 0 -153 64t-64 153v351q0 89 64 153t153 64z" />
<glyph unicode="&#xb8;" horiz-adv-x="356" d="M152 0h59l-47 -51q53 0 97 -46.5t44 -101.5q0 -62 -41.5 -101.5t-105.5 -39.5q-33 0 -59.5 13t-36.5 27l-11 13l31 35q27 -31 72 -31q38 0 65 25.5t27 58.5q0 42 -30.5 70.5t-72.5 28.5q-23 0 -39.5 -10t-21.5 -20l-6 -9l-19 6z" />
<glyph unicode="&#xbb;" horiz-adv-x="575" d="M315 725v-16l-243 -217v92l155 131v4l-155 131v92zM281 942l243 -217v-16l-243 -217v92l155 131v4l-155 131v92z" />
<glyph unicode="&#xbf;" horiz-adv-x="714" d="M633 469v-178q0 -145 -70.5 -225t-197.5 -80q-140 0 -210.5 83.5t-70.5 260.5v2q-6 206 6 235q6 14 135.5 143.5t145.5 163.5q4 7 10 86t10 154l4 76h64q18 -239 18 -311q0 -20 -61.5 -92.5t-123.5 -134.5l-61 -62q-27 -26 -32.5 -45.5t-5.5 -65.5v-42v-63.5t1 -58t3 -52 t6 -46t10.5 -40t16 -33.5t22 -26.5t29 -19.5t37.5 -12t47 -4q56 0 94 31.5t52.5 74t14.5 91.5v149zM426 1448q31 0 54.5 -23t23.5 -55t-23.5 -55t-54.5 -23q-32 0 -55 23t-23 55t23 55t55 23z" />
<glyph unicode="&#xc0;" horiz-adv-x="628" d="M207 371h221l-96 917h-15zM395 1434l183 -1434h-99l-33 279h-256l-38 -279h-101l195 1434h149zM344 1495h-59l-156 127h94z" />
<glyph unicode="&#xc1;" horiz-adv-x="628" d="M207 371h221l-96 917h-15zM395 1434l183 -1434h-99l-33 279h-256l-38 -279h-101l195 1434h149zM285 1495l121 127h94l-156 -127h-59z" />
<glyph unicode="&#xc2;" horiz-adv-x="628" d="M207 371h221l-96 917h-17zM395 1434l183 -1434h-99l-33 279h-256l-38 -279h-101l195 1434h149zM309 1622h13l155 -127h-65l-95 72h-4l-94 -72h-65z" />
<glyph unicode="&#xc3;" horiz-adv-x="628" d="M207 371h221l-96 917h-17zM395 1434l183 -1434h-99l-33 279h-256l-38 -279h-101l195 1434h149zM442 1610h50q0 -48 -27.5 -81.5t-71.5 -33.5q-23 0 -42 9t-31.5 22t-23.5 26t-24.5 22t-29.5 9q-22 0 -39 -18.5t-17 -55.5h-47q0 63 32.5 91t70.5 28q27 0 54 -22.5 t51.5 -45t43.5 -22.5q22 0 36.5 19.5t14.5 52.5z" />
<glyph unicode="&#xc4;" horiz-adv-x="628" d="M207 371h221l-96 917h-17zM393 1434l185 -1434h-99l-35 279h-256l-36 -279h-101l195 1434h147zM180 1651q32 0 55 -23t23 -55t-23 -55t-55 -23t-55 23t-23 55t23 55t55 23zM446 1651q32 0 55 -23t23 -55t-23 -55t-55 -23t-54.5 23t-22.5 55t22.5 55t54.5 23z" />
<glyph unicode="&#xc5;" horiz-adv-x="628" d="M207 371h221l-96 917h-17zM395 1434l183 -1434h-99l-33 279h-256l-38 -279h-101l195 1434h149zM315 1757q54 0 92.5 -38.5t38.5 -92.5t-38.5 -92.5t-92.5 -38.5q-55 0 -93 38.5t-38 92.5t38 92.5t93 38.5zM315 1548q32 0 55 23t23 55t-23 55t-55 23t-54.5 -23t-22.5 -55 t22.5 -55t54.5 -23z" />
<glyph unicode="&#xc6;" horiz-adv-x="993" d="M260 371h234v704h-13zM891 1327h-293v-596h258v-106h-258v-519h293v-106h-397v279h-263l-88 -279h-112l469 1434h391v-107z" />
<glyph unicode="&#xc7;" horiz-adv-x="653" d="M475 565l107 -41v-321q0 -90 -63.5 -153.5t-153.5 -63.5h-66q-89 0 -153 64t-64 153v1028q0 89 64 153t153 64h66q90 0 153.5 -63.5t63.5 -153.5v-225l-107 -41v270q0 54 -38 92.5t-93 38.5h-25q-54 0 -92.5 -38.5t-38.5 -92.5v-1036q0 -54 38.5 -92.5t92.5 -38.5h25 q55 0 93 38.5t38 92.5v366zM307 0l-96 -133l20 -6q2 4 6 10.5t21.5 17.5t40.5 11q42 0 72 -28.5t30 -70.5q0 -33 -27.5 -58.5t-66.5 -25.5q-19 0 -37 7.5t-26 15.5l-8 8l-31 -35q1 -2 4 -5.5t12.5 -13t20.5 -16.5t30.5 -12.5t40.5 -5.5q62 0 104 39.5t42 101.5 q0 55 -43.5 101.5t-96.5 46.5l46 51h-58z" />
<glyph unicode="&#xc8;" horiz-adv-x="591" d="M102 0v1434h398v-107h-293v-596h258v-106h-258v-519h293v-106h-398zM330 1495h-60l-155 127h94z" />
<glyph unicode="&#xc9;" horiz-adv-x="591" d="M102 0v1434h398v-107h-293v-596h258v-106h-258v-519h293v-106h-398zM270 1495l121 127h94l-155 -127h-60z" />
<glyph unicode="&#xca;" horiz-adv-x="591" d="M102 0v1434h398v-107h-291v-596h258v-106h-258v-519h291v-106h-398zM295 1622h12l156 -127h-66l-94 72h-4l-94 -72h-66z" />
<glyph unicode="&#xcb;" horiz-adv-x="616" d="M115 0v1434h397v-107h-291v-596h256v-106h-256v-519h291v-106h-397zM180 1651q32 0 55 -23t23 -55t-23 -55t-55 -23t-55 23t-23 55t23 55t55 23zM446 1651q32 0 55 -23t23 -55t-23 -55t-55 -23t-54.5 23t-22.5 55t22.5 55t54.5 23z" />
<glyph unicode="&#xcc;" horiz-adv-x="319" d="M217 0h-106v1434h106v-1434zM195 1495h-60l-155 127h94z" />
<glyph unicode="&#xcd;" horiz-adv-x="321" d="M209 0h-107v1434h107v-1434zM127 1495l121 127h94l-156 -127h-59z" />
<glyph unicode="&#xce;" horiz-adv-x="317" d="M213 0h-107v1434h107v-1434zM154 1622h12l156 -127h-66l-94 72h-4l-95 -72h-65z" />
<glyph unicode="&#xcf;" horiz-adv-x="311" d="M209 0h-107v1434h107v-1434zM23 1651q32 0 54.5 -23t22.5 -55t-22.5 -55t-54.5 -23t-55 23t-23 55t23 55t55 23zM289 1651q32 0 55 -23t23 -55t-23 -55t-55 -23t-55 23t-23 55t23 55t55 23z" />
<glyph unicode="&#xd0;" horiz-adv-x="806" d="M498 1434q89 0 153 -64t64 -153v-1000q0 -89 -64 -153t-153 -64h-283v625h-123v96h123v713h283zM608 213v1008q0 54 -38.5 92.5t-92.5 38.5h-155v-631h133v-96h-133v-543h155q54 0 92.5 38.5t38.5 92.5z" />
<glyph unicode="&#xd1;" horiz-adv-x="772" d="M207 0h-105v1434h99l350 -1100h12v1100h107v-1434h-113l-338 1034h-12v-1034zM514 1610h47q0 -48 -26.5 -81.5t-71.5 -33.5q-28 0 -50 13.5t-34.5 30.5t-30.5 30.5t-37 13.5q-21 0 -37 -18.5t-16 -55.5h-49q0 63 32.5 91t69.5 28q27 0 54.5 -22.5t52 -45t43.5 -22.5 q23 0 38 19.5t15 52.5z" />
<glyph unicode="&#xd2;" d="M365 1448q89 0 153 -64t64 -153v-1028q0 -89 -64 -153t-153 -64h-66q-89 0 -153 64t-64 153v1028q0 89 64 153t153 64h66zM475 199v1036q0 54 -38.5 92.5t-92.5 38.5h-25q-54 0 -92.5 -38.5t-38.5 -92.5v-1036q0 -54 38.5 -92.5t92.5 -38.5h25q54 0 92.5 38.5t38.5 92.5z M362 1495h-59l-156 127h95z" />
<glyph unicode="&#xd3;" d="M82 1231q0 89 64 153t153 64h66q89 0 153 -64t64 -153v-1028q0 -89 -64 -153t-153 -64h-66q-89 0 -153 64t-64 153v1028zM188 1235v-1036q0 -54 38.5 -92.5t92.5 -38.5h25q54 0 92.5 38.5t38.5 92.5v1036q0 54 -38.5 92.5t-92.5 38.5h-25q-54 0 -92.5 -38.5t-38.5 -92.5z M303 1495l121 127h94l-156 -127h-59z" />
<glyph unicode="&#xd4;" d="M326 1622h12l156 -127h-66l-94 72h-4l-94 -72h-66zM82 1231q0 90 63.5 153.5t153.5 63.5h66q89 0 153 -64t64 -153v-1028q0 -89 -64 -153t-153 -64h-66q-90 0 -153.5 63.5t-63.5 153.5v1028zM188 1235v-1036q0 -54 38 -92.5t93 -38.5h25q54 0 92.5 38.5t38.5 92.5v1036 q0 54 -38.5 92.5t-92.5 38.5h-25q-55 0 -93 -38.5t-38 -92.5z" />
<glyph unicode="&#xd5;" d="M459 1610h47q0 -48 -26.5 -81.5t-71.5 -33.5q-28 0 -50 13.5t-34.5 30.5t-29.5 30.5t-36 13.5q-22 0 -38.5 -18.5t-16.5 -55.5h-47q0 63 32 91t70 28q26 0 53.5 -22.5t52 -45t42.5 -22.5q22 0 37.5 19.5t15.5 52.5zM82 1231q0 90 63.5 153.5t153.5 63.5h66q89 0 153 -64 t64 -153v-1028q0 -89 -64 -153t-153 -64h-66q-90 0 -153.5 63.5t-63.5 153.5v1028zM188 1235v-1036q0 -54 38 -92.5t93 -38.5h25q54 0 92.5 38.5t38.5 92.5v1036q0 54 -38.5 92.5t-92.5 38.5h-25q-55 0 -93 -38.5t-38 -92.5z" />
<glyph unicode="&#xd6;" d="M199 1651q32 0 54.5 -23t22.5 -55t-22.5 -55t-54.5 -23t-55 23t-23 55t23 55t55 23zM465 1651q32 0 55 -23t23 -55t-23 -55t-55 -23t-55 23t-23 55t23 55t55 23zM82 1231q0 89 64 153t153 64h66q89 0 153 -64t64 -153v-1028q0 -89 -64 -153t-153 -64h-66q-89 0 -153 64 t-64 153v1028zM188 1235v-1036q0 -54 38.5 -92.5t92.5 -38.5h25q54 0 92.5 38.5t38.5 92.5v1036q0 54 -38.5 92.5t-92.5 38.5h-25q-54 0 -92.5 -38.5t-38.5 -92.5z" />
<glyph unicode="&#xd7;" horiz-adv-x="696" d="M625 399l-58 -57l-219 219l-219 -219l-57 57l219 219l-219 220l57 57l219 -219l219 219l58 -57l-219 -220z" />
<glyph unicode="&#xd8;" horiz-adv-x="858" d="M831 1434l-153 -316v-915q0 -89 -64 -153t-153 -64h-66q-67 0 -121 37t-79 98l-60 -121h-110l153 315v916q0 89 64 153t153 64h66q66 0 121 -37.5t80 -97.5l59 121h110zM285 1235v-700l286 591v109q0 54 -38.5 92.5t-92.5 38.5h-24q-54 0 -92.5 -38.5t-38.5 -92.5z M571 199v698l-286 -590v-108q0 -54 38.5 -92.5t92.5 -38.5h24q54 0 92.5 38.5t38.5 92.5z" />
<glyph unicode="&#xd9;" d="M475 1434h107v-1231q0 -89 -64 -153t-153 -64h-66q-89 0 -153 64t-64 153v1231h106v-1235q0 -54 38.5 -92.5t92.5 -38.5h25q54 0 92.5 38.5t38.5 92.5v1235zM362 1495h-59l-156 127h95z" />
<glyph unicode="&#xda;" d="M475 1434h107v-1231q0 -89 -64 -153t-153 -64h-66q-89 0 -153 64t-64 153v1231h106v-1235q0 -54 38.5 -92.5t92.5 -38.5h25q54 0 92.5 38.5t38.5 92.5v1235zM303 1495l121 127h94l-156 -127h-59z" />
<glyph unicode="&#xdb;" d="M475 1434h107v-1231q0 -89 -64 -153t-153 -64h-66q-89 0 -153 64t-64 153v1231h106v-1235q0 -54 38.5 -92.5t92.5 -38.5h25q54 0 92.5 38.5t38.5 92.5v1235zM326 1622h12l156 -127h-66l-94 72h-4l-94 -72h-66z" />
<glyph unicode="&#xdc;" d="M475 1434h107v-1231q0 -90 -63.5 -153.5t-153.5 -63.5h-66q-89 0 -153 64t-64 153v1231h106v-1235q0 -54 38.5 -92.5t92.5 -38.5h25q55 0 93 38.5t38 92.5v1235zM199 1651q32 0 54.5 -23t22.5 -55t-22.5 -55t-54.5 -23t-55 23t-23 55t23 55t55 23zM465 1651q32 0 55 -23 t23 -55t-23 -55t-55 -23t-55 23t-23 55t23 55t55 23z" />
<glyph unicode="&#xdd;" horiz-adv-x="659" d="M276 551l-245 883h131l164 -715h10l164 715h129l-244 -883v-551h-109v551zM301 1495l121 127h94l-156 -127h-59z" />
<glyph unicode="&#xde;" horiz-adv-x="649" d="M492 537v358q0 55 -38 93t-94 38h-155v-620h155q55 0 93.5 38.5t38.5 92.5zM381 1108q91 0 154 -63t63 -154v-350q0 -90 -63.5 -153.5t-153.5 -63.5h-176v-324h-103v1434h103v-326h176z" />
<glyph unicode="&#xdf;" horiz-adv-x="978" d="M569 860q7 -2 18.5 -6.5t46 -21.5t65.5 -38.5t68.5 -60t65 -83t46 -110t18.5 -139.5q0 -182 -106 -291.5t-299 -109.5h-130v94h130q307 0 307 307q0 71 -20.5 133t-53.5 105t-72.5 77t-80.5 53.5t-74 29.5t-56 10h-51v86h51q82 0 139.5 61t57.5 177q0 121 -54.5 181 t-133.5 60h-29q-115 0 -171 -96t-56 -313v-965h-93v989q0 102 17 183t53 144t98.5 97.5t147.5 34.5h41q130 0 204 -88.5t74 -226.5q0 -60 -17.5 -110t-42 -78.5t-49 -49t-42.5 -27.5z" />
<glyph unicode="&#xe0;" horiz-adv-x="628" d="M344 1290h-59l-156 127h94zM211 371h213l-92 712h-17zM383 1229l195 -1229h-97l-37 279h-254l-40 -279h-99l205 1229h127z" />
<glyph unicode="&#xe1;" horiz-adv-x="628" d="M285 1290l121 127h94l-156 -127h-59zM211 371h213l-92 712h-17zM383 1229l195 -1229h-97l-37 279h-254l-40 -279h-99l205 1229h127z" />
<glyph unicode="&#xe2;" horiz-adv-x="628" d="M307 1417h12l156 -127h-65l-95 72h-4l-94 -72h-65zM211 371h213l-92 712h-17zM383 1229l195 -1229h-97l-37 279h-254l-40 -279h-99l205 1229h127z" />
<glyph unicode="&#xe3;" horiz-adv-x="628" d="M444 1405h48q0 -48 -27.5 -81.5t-71.5 -33.5q-28 0 -51 14t-35 30t-29 30t-36 14q-22 0 -39 -18.5t-17 -54.5h-47q0 63 32.5 90.5t70.5 27.5q27 0 54 -22.5t51.5 -45t43.5 -22.5q23 0 38 19.5t15 52.5zM211 371h213l-92 712h-15zM383 1229l195 -1229h-97l-35 279h-256 l-40 -279h-99l205 1229h127z" />
<glyph unicode="&#xe4;" horiz-adv-x="628" d="M180 1446q32 0 55 -23t23 -55t-23 -55t-55 -23t-55 23t-23 55t23 55t55 23zM446 1446q32 0 55 -23t23 -55t-23 -55t-55 -23t-54.5 23t-22.5 55t22.5 55t54.5 23zM211 371h213l-92 712h-17zM383 1229l195 -1229h-97l-37 279h-256l-38 -279h-99l205 1229h127z" />
<glyph unicode="&#xe5;" horiz-adv-x="628" d="M313 1552q54 0 92.5 -38.5t38.5 -92.5t-38.5 -92.5t-92.5 -38.5t-92.5 38.5t-38.5 92.5t38.5 92.5t92.5 38.5zM313 1343q32 0 55 23t23 55t-23 55t-55 23t-54.5 -23t-22.5 -55t22.5 -55t54.5 -23zM211 371h213l-92 712h-17zM383 1229l195 -1229h-97l-37 279h-256 l-38 -279h-99l205 1229h127z" />
<glyph unicode="&#xe6;" horiz-adv-x="972" d="M262 371h211v602h-12zM870 1122h-292v-493h258v-107h-258v-416h292v-106h-397v279h-240l-88 -279h-114l428 1229h411v-107z" />
<glyph unicode="&#xe7;" horiz-adv-x="653" d="M582 801l-107 -41v270q0 54 -38.5 92.5t-92.5 38.5h-25q-54 0 -92.5 -38.5t-38.5 -92.5v-831q0 -54 38.5 -92.5t92.5 -38.5h25q54 0 92.5 38.5t38.5 92.5v325l107 -41v-280q0 -89 -64 -153t-153 -64h-13l-33 -37q52 0 96 -47t44 -101q0 -62 -42 -101.5t-106 -39.5 q-21 0 -39.5 5.5t-30 13t-20.5 15.5t-13 14l-3 5l31 35q26 -31 71 -31q38 0 66 25.5t28 58.5q0 42 -30 70.5t-72 28.5q-23 0 -40 -10t-23 -20l-5 -9l-20 6l86 119q-89 2 -152 65t-63 152v823q0 89 64 153t153 64h66q89 0 153 -64t64 -153v-225z" />
<glyph unicode="&#xe8;" horiz-adv-x="591" d="M102 0v1229h398v-107h-293v-493h258v-107h-258v-416h293v-106h-398zM330 1290h-60l-155 127h94z" />
<glyph unicode="&#xe9;" horiz-adv-x="591" d="M102 0v1229h398v-107h-293v-493h258v-107h-258v-416h293v-106h-398zM270 1290l121 127h94l-155 -127h-60z" />
<glyph unicode="&#xea;" horiz-adv-x="591" d="M102 0v1229h398v-107h-291v-493h258v-107h-258v-416h291v-106h-398zM295 1417h12l156 -127h-66l-94 72h-4l-94 -72h-66z" />
<glyph unicode="&#xeb;" horiz-adv-x="616" d="M115 0v1229h397v-107h-291v-493h256v-107h-256v-416h291v-106h-397zM180 1446q32 0 55 -23t23 -55t-23 -55t-55 -23t-55 23t-23 55t23 55t55 23zM446 1446q32 0 55 -23t23 -55t-23 -55t-55 -23t-54.5 23t-22.5 55t22.5 55t54.5 23z" />
<glyph unicode="&#xec;" horiz-adv-x="319" d="M217 0h-106v1229h106v-1229zM195 1290h-60l-155 127h94z" />
<glyph unicode="&#xed;" horiz-adv-x="321" d="M209 0h-107v1229h107v-1229zM127 1290l121 127h94l-156 -127h-59z" />
<glyph unicode="&#xee;" horiz-adv-x="317" d="M213 0h-107v1229h107v-1229zM154 1417h12l156 -127h-66l-94 72h-4l-95 -72h-65z" />
<glyph unicode="&#xef;" horiz-adv-x="311" d="M209 0h-107v1229h107v-1229zM23 1446q32 0 54.5 -23t22.5 -55t-22.5 -55t-54.5 -23t-55 23t-23 55t23 55t55 23zM289 1446q32 0 55 -23t23 -55t-23 -55t-55 -23t-55 23t-23 55t23 55t55 23z" />
<glyph unicode="&#xf0;" horiz-adv-x="806" d="M498 1229q89 0 153 -64t64 -153v-795q0 -89 -64 -153t-153 -64h-283v522h-123v96h123v611h283zM608 213v803q0 54 -38.5 92.5t-92.5 38.5h-155v-529h133v-96h-133v-440h155q54 0 92.5 38.5t38.5 92.5z" />
<glyph unicode="&#xf1;" horiz-adv-x="772" d="M514 1405h47q0 -48 -26.5 -81.5t-71.5 -33.5q-28 0 -50 14t-34.5 30t-30.5 30t-37 14q-21 0 -37 -18t-16 -55h-47q0 63 31.5 90.5t68.5 27.5q27 0 54.5 -22.5t52 -45t43.5 -22.5q23 0 38 19.5t15 52.5zM207 0h-105v1229h99l350 -932h14v932h105v-1229h-99l-352 891h-12 v-891z" />
<glyph unicode="&#xf2;" d="M365 1243q89 0 153 -64t64 -153v-823q0 -89 -64 -153t-153 -64h-66q-89 0 -153 64t-64 153v823q0 89 64 153t153 64h66zM475 199v831q0 54 -38.5 92.5t-92.5 38.5h-25q-54 0 -92.5 -38.5t-38.5 -92.5v-831q0 -54 38.5 -92.5t92.5 -38.5h25q54 0 92.5 38.5t38.5 92.5z M362 1290h-59l-156 127h95z" />
<glyph unicode="&#xf3;" d="M82 1026q0 89 64 153t153 64h66q89 0 153 -64t64 -153v-823q0 -89 -64 -153t-153 -64h-66q-89 0 -153 64t-64 153v823zM188 1030v-831q0 -54 38.5 -92.5t92.5 -38.5h25q54 0 92.5 38.5t38.5 92.5v831q0 54 -38.5 92.5t-92.5 38.5h-25q-54 0 -92.5 -38.5t-38.5 -92.5z M303 1290l121 127h94l-156 -127h-59z" />
<glyph unicode="&#xf4;" d="M326 1417h12l156 -127h-66l-94 72h-4l-94 -72h-66zM82 1026q0 90 63.5 153.5t153.5 63.5h66q89 0 153 -64t64 -153v-823q0 -89 -64 -153t-153 -64h-66q-90 0 -153.5 63.5t-63.5 153.5v823zM188 1030v-831q0 -54 38 -92.5t93 -38.5h25q54 0 92.5 38.5t38.5 92.5v831 q0 54 -38.5 92.5t-92.5 38.5h-25q-55 0 -93 -38.5t-38 -92.5z" />
<glyph unicode="&#xf5;" d="M459 1405h47q0 -48 -26.5 -81.5t-71.5 -33.5q-28 0 -50 14t-34.5 30t-29.5 30t-36 14q-22 0 -38.5 -18t-16.5 -55h-47q0 63 32 90.5t70 27.5q26 0 53.5 -22.5t52 -45t42.5 -22.5q22 0 37.5 19.5t15.5 52.5zM82 1026q0 90 63.5 153.5t153.5 63.5h66q89 0 153 -64t64 -153 v-823q0 -89 -64 -153t-153 -64h-66q-90 0 -153.5 63.5t-63.5 153.5v823zM188 1030v-831q0 -54 38 -92.5t93 -38.5h25q54 0 92.5 38.5t38.5 92.5v831q0 54 -38.5 92.5t-92.5 38.5h-25q-55 0 -93 -38.5t-38 -92.5z" />
<glyph unicode="&#xf6;" d="M199 1446q32 0 54.5 -23t22.5 -55t-22.5 -55t-54.5 -23t-55 23t-23 55t23 55t55 23zM465 1446q32 0 55 -23t23 -55t-23 -55t-55 -23t-55 23t-23 55t23 55t55 23zM82 1026q0 89 64 153t153 64h66q89 0 153 -64t64 -153v-823q0 -89 -64 -153t-153 -64h-66q-89 0 -153 64 t-64 153v823zM188 1030v-831q0 -54 38.5 -92.5t92.5 -38.5h25q54 0 92.5 38.5t38.5 92.5v831q0 54 -38.5 92.5t-92.5 38.5h-25q-54 0 -92.5 -38.5t-38.5 -92.5z" />
<glyph unicode="&#xf7;" horiz-adv-x="741" d="M72 659h598v-81h-598v81zM371 754q-32 0 -55 22.5t-23 54.5t23 55t55 23t55 -23t23 -55t-23 -54.5t-55 -22.5zM371 483q32 0 55 -22.5t23 -54.5t-23 -55t-55 -23t-55 23t-23 55t23 54.5t55 22.5z" />
<glyph unicode="&#xf8;" horiz-adv-x="868" d="M838 1229l-154 -295v-731q0 -89 -64 -153t-153 -64h-66q-67 0 -121 37t-79 98l-60 -121h-110l153 295v731q0 89 64 153t153 64h66q66 0 121 -37.5t80 -97.5l59 121h111zM291 1030v-575l287 528v47q0 54 -39 92.5t-93 38.5h-24q-54 0 -92.5 -38.5t-38.5 -92.5zM578 199 v575l-287 -528v-47q0 -54 38.5 -92.5t92.5 -38.5h24q54 0 93 38.5t39 92.5z" />
<glyph unicode="&#xf9;" d="M475 1229h107v-1026q0 -89 -64 -153t-153 -64h-66q-89 0 -153 64t-64 153v1026h106v-1030q0 -54 38.5 -92.5t92.5 -38.5h25q54 0 92.5 38.5t38.5 92.5v1030zM362 1290h-59l-156 127h95z" />
<glyph unicode="&#xfa;" d="M475 1229h107v-1026q0 -89 -64 -153t-153 -64h-66q-89 0 -153 64t-64 153v1026h106v-1030q0 -54 38.5 -92.5t92.5 -38.5h25q54 0 92.5 38.5t38.5 92.5v1030zM303 1290l121 127h94l-156 -127h-59z" />
<glyph unicode="&#xfb;" d="M475 1229h107v-1026q0 -89 -64 -153t-153 -64h-66q-89 0 -153 64t-64 153v1026h106v-1030q0 -54 38.5 -92.5t92.5 -38.5h25q54 0 92.5 38.5t38.5 92.5v1030zM326 1417h12l156 -127h-66l-94 72h-4l-94 -72h-66z" />
<glyph unicode="&#xfc;" d="M475 1229h107v-1026q0 -90 -63.5 -153.5t-153.5 -63.5h-66q-89 0 -153 64t-64 153v1026h106v-1030q0 -54 38.5 -92.5t92.5 -38.5h25q55 0 93 38.5t38 92.5v1030zM199 1446q32 0 54.5 -23t22.5 -55t-22.5 -55t-54.5 -23t-55 23t-23 55t23 55t55 23zM465 1446q32 0 55 -23 t23 -55t-23 -55t-55 -23t-55 23t-23 55t23 55t55 23z" />
<glyph unicode="&#xfd;" horiz-adv-x="659" d="M299 1290l121 127h94l-156 -127h-59zM274 551l-243 678h129l166 -510h10l162 510h131l-246 -678v-551h-109v551z" />
<glyph unicode="&#xfe;" horiz-adv-x="649" d="M492 537v153q0 55 -38 93t-94 38h-155v-415h155q55 0 93.5 38.5t38.5 92.5zM381 903q91 0 154 -63t63 -154v-145q0 -90 -63.5 -153.5t-153.5 -63.5h-176v-324h-103v1229h103v-326h176z" />
<glyph unicode="&#xff;" horiz-adv-x="661" d="M197 1446q32 0 54.5 -23t22.5 -55t-22.5 -55t-54.5 -23t-55 23t-23 55t23 55t55 23zM463 1446q32 0 55 -23t23 -55t-23 -55t-55 -23t-55 23t-23 55t23 55t55 23zM276 551l-245 678h131l164 -510h10l164 510h131l-246 -678v-551h-109v551z" />
<glyph unicode="&#x141;" horiz-adv-x="716" d="M342 106h313v-106h-419v637l-123 -98v104l123 100v691h106v-607l270 220v-105l-270 -219v-617z" />
<glyph unicode="&#x142;" horiz-adv-x="716" d="M342 106h313v-106h-419v432l-123 -98v104l123 101v690h106v-606l270 219v-105l-270 -219v-412z" />
<glyph unicode="&#x152;" horiz-adv-x="974" d="M475 1221v131h-156q-54 0 -92.5 -38.5t-38.5 -92.5v-1008q0 -54 38.5 -92.5t92.5 -38.5h156v1139zM582 1327v-596h256v-106h-256v-519h290v-106h-573q-89 0 -153 64t-64 153v1000q0 89 64 153t153 64h573v-107h-290z" />
<glyph unicode="&#x153;" horiz-adv-x="974" d="M475 1016v131h-156q-54 0 -92.5 -38.5t-38.5 -92.5v-803q0 -54 38.5 -92.5t92.5 -38.5h156v934zM582 1122v-493h256v-107h-256v-416h290v-106h-573q-89 0 -153 64t-64 153v795q0 89 64 153t153 64h573v-107h-290z" />
<glyph unicode="&#x160;" horiz-adv-x="647" d="M330 1495h-13l-155 127h65l95 -72h4l94 72h65zM575 1102l-106 -41v174q0 54 -38 92.5t-93 38.5h-25q-54 0 -92.5 -38.5t-38.5 -92.5v-244q0 -17 1 -24.5t7 -19t19 -23.5l319 -254q1 -1 7 -6.5t9.5 -9t9.5 -12t9 -16.5t5.5 -20.5t2.5 -27.5v-375q0 -90 -63.5 -153.5 t-153.5 -63.5h-65q-89 0 -153 64t-64 153v258l106 41v-303q0 -54 38.5 -92.5t92.5 -38.5h25q55 0 93 38.5t38 92.5v356q0 18 -6.5 33t-12.5 20l-6 6q10 -8 -71.5 59.5t-168.5 139.5l-87 72q-37 22 -37 84v262q0 89 64 153t153 64h65q90 0 153.5 -63.5t63.5 -153.5v-129z" />
<glyph unicode="&#x161;" horiz-adv-x="647" d="M326 1290h-13l-155 127h65l94 -71h5l94 71h65zM575 897l-106 -41v174q0 54 -38.5 92.5t-92.5 38.5h-25q-54 0 -92.5 -38.5t-38.5 -92.5v-162q0 -17 1 -24.5t7 -19t19 -23.5l319 -254l10.5 -10.5t15 -17.5t11.5 -25.5t6 -38.5v-252q0 -89 -64 -153t-153 -64h-65 q-89 0 -153 64t-64 153v217l106 41v-262q0 -54 38.5 -92.5t92.5 -38.5h25q54 0 92.5 38.5t38.5 92.5v233q0 18 -6.5 33t-12.5 21l-6 6q10 -8 -72 59.5t-170 138.5l-87 72q-35 22 -35 84v180q0 89 64 153t153 64h65q89 0 153 -64t64 -153v-129z" />
<glyph unicode="&#x178;" horiz-adv-x="661" d="M276 551l-245 883h131l164 -715h10l164 715h131l-246 -883v-551h-109v551zM199 1651q32 0 54.5 -23t22.5 -55t-22.5 -55t-54.5 -23t-55 23t-23 55t23 55t55 23zM465 1651q32 0 55 -23t23 -55t-23 -55t-55 -23t-55 23t-23 55t23 55t55 23z" />
<glyph unicode="&#x17d;" horiz-adv-x="649" d="M72 1339v95h481l-324 -1340h349v-94h-486l326 1339h-346zM332 1495h-13l-155 127h65l95 -72h4l94 72h65z" />
<glyph unicode="&#x17e;" horiz-adv-x="649" d="M72 1135v94h481l-324 -1135h349v-94h-486l326 1135h-346zM332 1290h-13l-155 127h65l95 -71h4l94 71h65z" />
<glyph unicode="&#x192;" horiz-adv-x="864" d="M629 1671q46 0 86 -14.5t64.5 -35.5t42 -42.5t24.5 -36.5l8 -14l-45 -25q-2 5 -5.5 13t-18 29t-32.5 37t-50 29t-70 13q-89 0 -131.5 -66.5t-42.5 -207.5v-648h172v-53h-172v-614q0 -72 -21.5 -131.5t-73.5 -100.5t-128 -41q-46 0 -86 15t-64.5 36t-42.5 42t-25 36l-8 15 l45 24q2 -5 5.5 -13t17.5 -28.5t32 -36.5t50 -29t69 -13q91 0 134 66.5t43 207.5v565h-175v53h175v697q0 53 12.5 100t38.5 86.5t70 62.5t102 23z" />
<glyph unicode="&#x2c6;" horiz-adv-x="425" d="M207 1622h12l156 -127h-66l-94 72h-4l-94 -72h-66z" />
<glyph unicode="&#x2c7;" horiz-adv-x="425" d="M219 1495h-12l-156 127h66l94 -72h4l94 72h66z" />
<glyph unicode="&#x2d8;" horiz-adv-x="415" d="M299 1614h66q0 -39 -48.5 -79t-109.5 -40q-60 0 -108 40t-48 79h66q0 -26 24.5 -49t65.5 -23q42 0 67 23t25 49z" />
<glyph unicode="&#x2d9;" horiz-adv-x="258" d="M129 1448q32 0 55 -23t23 -55t-23 -55t-55 -23t-55 23t-23 55t23 55t55 23z" />
<glyph unicode="&#x2da;" horiz-adv-x="364" d="M182 1757q54 0 92.5 -38.5t38.5 -92.5t-38.5 -92.5t-92.5 -38.5t-92.5 38.5t-38.5 92.5t38.5 92.5t92.5 38.5zM182 1548q32 0 55 23t23 55t-23 55t-55 23t-55 -23t-23 -55t23 -55t55 -23z" />
<glyph unicode="&#x2db;" horiz-adv-x="337" d="M229 -127l58 -23q-1 -4 -3.5 -10.5t-12 -23t-22.5 -29t-36.5 -23t-52.5 -10.5q-46 0 -77.5 33t-31.5 80q0 25 9.5 47.5t23.5 37.5t28 26.5t24 16.5l9 5h56l-10 -5t-21.5 -14.5t-27.5 -24t-21.5 -33t-9.5 -42.5t14 -38.5t37 -16.5q26 0 43 12t21 24z" />
<glyph unicode="&#x2dc;" horiz-adv-x="454" d="M356 1610h47q0 -48 -27 -81.5t-71 -33.5q-23 0 -42 9t-31.5 22t-23.5 26t-24.5 22t-29.5 9q-22 0 -39 -18.5t-17 -55.5h-47q0 63 32.5 91t70.5 28q34 0 80.5 -45t68.5 -45q23 0 38 19.5t15 52.5z" />
<glyph unicode="&#x2dd;" horiz-adv-x="450" d="M184 1307l121 127h94l-155 -127h-60zM51 1307l121 127h94l-155 -127h-60z" />
<glyph unicode="&#x3c0;" horiz-adv-x="784" d="M713 799q0 -73 -49 -119t-123 -51v-623h-82v637q-29 11 -77.5 42.5t-55.5 35.5v-715h-82v735q-78 -8 -78 -92h-94q0 29 9 56t28.5 52.5t56 40.5t86.5 15q40 0 79 -17.5t65.5 -38t61 -38t66.5 -17.5q35 0 69 28t34 69h86z" />
<glyph unicode="&#x2000;" horiz-adv-x="878" />
<glyph unicode="&#x2001;" horiz-adv-x="1757" />
<glyph unicode="&#x2002;" horiz-adv-x="878" />
<glyph unicode="&#x2003;" horiz-adv-x="1757" />
<glyph unicode="&#x2004;" horiz-adv-x="585" />
<glyph unicode="&#x2005;" horiz-adv-x="439" />
<glyph unicode="&#x2006;" horiz-adv-x="292" />
<glyph unicode="&#x2007;" horiz-adv-x="292" />
<glyph unicode="&#x2008;" horiz-adv-x="219" />
<glyph unicode="&#x2009;" horiz-adv-x="351" />
<glyph unicode="&#x200a;" horiz-adv-x="97" />
<glyph unicode="&#x2010;" horiz-adv-x="630" d="M559 659v-81h-487v81h487z" />
<glyph unicode="&#x2011;" horiz-adv-x="630" d="M559 659v-81h-487v81h487z" />
<glyph unicode="&#x2012;" horiz-adv-x="630" d="M559 659v-81h-487v81h487z" />
<glyph unicode="&#x2013;" horiz-adv-x="741" d="M670 659v-81h-598v81h598z" />
<glyph unicode="&#x2014;" horiz-adv-x="843" d="M772 659v-81h-700v81h700z" />
<glyph unicode="&#x2018;" horiz-adv-x="282" d="M211 1448v-31q-4 0 -10.5 -1.5t-23.5 -10t-30 -20.5t-23.5 -36t-10.5 -55q14 27 51 27q67 0 67 -82q0 -34 -22 -56t-64 -22q-36 0 -65 33t-29 94q0 75 55.5 120t104.5 40z" />
<glyph unicode="&#x2019;" horiz-adv-x="282" d="M72 1161v31q4 0 10.5 1.5t23.5 10t30 20.5t23.5 36t10.5 55q-14 -27 -51 -27q-68 0 -68 80q0 36 22 58t64 22q36 0 65 -33t29 -94q0 -75 -55 -120t-104 -40z" />
<glyph unicode="&#x201a;" horiz-adv-x="282" d="M72 -135v31q4 0 10.5 1.5t23.5 9.5t30 20t23.5 36t10.5 55q-14 -26 -51 -26q-68 0 -68 80q0 36 22 58t64 22q36 0 65 -33t29 -94q0 -75 -55 -120t-104 -40z" />
<glyph unicode="&#x201c;" horiz-adv-x="512" d="M211 1448v-31q-4 0 -10.5 -1.5t-23.5 -10t-30 -20.5t-23.5 -36t-10.5 -55q14 27 51 27q67 0 67 -82q0 -34 -22 -56t-64 -22q-36 0 -65 33t-29 94q0 75 55.5 120t104.5 40zM438 1448v-31q-4 0 -10.5 -1.5t-23.5 -10t-30 -20.5t-23.5 -36t-10.5 -55q16 27 53 27 q68 0 68 -82q0 -34 -22 -56t-64 -22q-38 0 -66 32.5t-28 94.5q0 74 54.5 119.5t102.5 40.5z" />
<glyph unicode="&#x201d;" horiz-adv-x="512" d="M301 1161v31q4 0 10.5 1.5t23.5 10t30 20.5t23.5 36t10.5 55q-14 -27 -51 -27q-67 0 -67 80q0 36 22 58t64 22q36 0 65 -33t29 -94q0 -75 -55.5 -120t-104.5 -40zM72 1161v31q4 0 10.5 1.5t23.5 10t30 20.5t23.5 36t10.5 55q-14 -27 -51 -27q-68 0 -68 80q0 36 22 58 t64 22q36 0 65 -33t29 -94q0 -75 -55 -120t-104 -40z" />
<glyph unicode="&#x201e;" horiz-adv-x="512" d="M301 -135v31q4 0 10.5 1.5t23.5 9.5t30 20t23.5 36t10.5 55q-14 -26 -51 -26q-67 0 -67 80q0 36 22 58t64 22q36 0 65 -33t29 -94q0 -75 -55.5 -120t-104.5 -40zM72 -135v31q4 0 10.5 1.5t23.5 9.5t30 20t23.5 36t10.5 55q-14 -26 -51 -26q-68 0 -68 80q0 36 22 58t64 22 q36 0 65 -33t29 -94q0 -75 -55 -120t-104 -40z" />
<glyph unicode="&#x2020;" horiz-adv-x="704" d="M633 1036v-82h-227v-954h-107v954h-227v82h227v398h107v-398h227z" />
<glyph unicode="&#x2021;" horiz-adv-x="704" d="M633 954h-227v-442h227v-82h-227v-430h-107v430h-227v82h227v442h-227v82h227v398h107v-398h227v-82z" />
<glyph unicode="&#x2022;" horiz-adv-x="430" d="M92 717q0 51 36 87t87 36t87 -36t36 -87t-36 -87t-87 -36t-87 36t-36 87z" />
<glyph unicode="&#x2026;" horiz-adv-x="790" d="M129 141q32 0 55 -23t23 -55t-23 -54.5t-55 -22.5t-55 22.5t-23 54.5t23 55t55 23zM395 141q32 0 55 -23t23 -55t-23 -54.5t-55 -22.5t-55 22.5t-23 54.5t23 55t55 23zM662 141q32 0 54.5 -23t22.5 -55t-22.5 -54.5t-54.5 -22.5t-55 22.5t-23 54.5t23 55t55 23z" />
<glyph unicode="&#x202f;" horiz-adv-x="351" />
<glyph unicode="&#x2030;" horiz-adv-x="1458" d="M887 135v428q0 38 -27 66t-65 28h-17q-38 0 -66 -28t-28 -66v-428q0 -37 28 -64.5t66 -27.5h17q38 0 65 27.5t27 64.5zM809 715q63 0 108.5 -45.5t45.5 -108.5v-422q0 -63 -45.5 -108t-108.5 -45h-47q-63 0 -107.5 45t-44.5 108v422q0 63 44.5 108.5t107.5 45.5h47z M1303 135v428q0 38 -28.5 66t-66.5 28h-16q-38 0 -65 -28t-27 -66v-428q0 -37 27 -64.5t65 -27.5h16q38 0 66.5 27.5t28.5 64.5zM1223 715q64 0 108.5 -45.5t44.5 -108.5v-422q0 -63 -44.5 -108t-108.5 -45h-45q-63 0 -108.5 45t-45.5 108v422q0 63 45.5 108.5t108.5 45.5 h45zM358 868v428q0 39 -27 67t-65 28h-16q-38 0 -66 -28.5t-28 -66.5v-428q0 -37 28 -64.5t66 -27.5h16q38 0 65 27.5t27 64.5zM281 1448q63 0 108 -45.5t45 -108.5v-422q0 -63 -45 -108t-108 -45h-48q-63 0 -107 45t-44 108v422q0 63 44 108.5t107 45.5h48zM201 0h-54 l697 1434h53z" />
<glyph unicode="&#x2044;" horiz-adv-x="524" d="M63 0h-53l451 1434h53z" />
<glyph unicode="&#x205f;" horiz-adv-x="439" />
<glyph unicode="&#x20ac;" horiz-adv-x="739" d="M668 1006l-107 -41v270q0 54 -38.5 92.5t-92.5 38.5h-24q-54 0 -93 -38.5t-39 -92.5v-379h250v-53h-250v-74h250v-53h-250v-477q0 -54 39 -92.5t93 -38.5h24q54 0 92.5 38.5t38.5 92.5v366l107 -41v-321q0 -89 -64 -153t-153 -64h-66q-89 0 -153 64t-64 153v473h-86v53 h86v74h-86v53h86v375q0 89 64 153t153 64h66q89 0 153 -64t64 -153v-225z" />
<glyph unicode="&#x2122;" horiz-adv-x="571" d="M51 1434h187v-76h-56v-322h-76v322h-55v76zM346 1036h-80v398h76l51 -213l51 213h76v-398h-82v185l-43 -168h-6l-43 168v-185z" />
<glyph unicode="&#x2212;" horiz-adv-x="843" d="M772 659v-81h-700v81h700z" />
<glyph unicode="&#x221a;" horiz-adv-x="1073" d="M942 1434h80l-610 -1434h-31l-129 575l-113 -213h-88l207 371h39l121 -528z" />
<glyph unicode="&#x221e;" horiz-adv-x="1503" d="M625 725q0 57 -35 95t-90 38h-236q-54 0 -92.5 -37.5t-38.5 -91.5v-24q0 -54 38.5 -92t92.5 -38h236q55 0 90 38t35 96v16zM516 944q36 0 66.5 -13t48 -31t30 -36.5t17.5 -31.5l4 -13q1 48 34.5 83.5t74.5 50t81 14.5h363q89 0 153 -64t64 -153v-66q0 -89 -64 -153 t-153 -64h-363q-40 0 -81 14t-74.5 49.5t-34.5 83.5q-2 -5 -5 -13.5t-16.5 -30t-30.5 -38t-47.5 -30t-66.5 -13.5h-248q-92 0 -154.5 54t-62.5 141v66q0 87 62.5 140.5t154.5 53.5h248zM879 881q-55 0 -100.5 -49t-45.5 -107v-16q0 -58 45.5 -107t100.5 -49h360 q52 0 91.5 48t39.5 104v24q0 56 -39.5 104t-91.5 48h-360z" />
<glyph unicode="&#x222b;" horiz-adv-x="864" d="M629 1671q46 0 86 -14.5t64.5 -35.5t42 -42.5t24.5 -36.5l8 -14l-45 -25q-2 5 -5.5 13t-18 29t-32.5 37t-50 29t-70 13q-89 0 -131.5 -66.5t-42.5 -207.5v-1315q0 -72 -21.5 -131.5t-73.5 -100.5t-128 -41q-46 0 -86 15t-64.5 36t-42.5 42t-25 36l-8 15l45 24 q2 -5 5.5 -13t17.5 -28.5t32 -36.5t50 -29t69 -13q91 0 134 66.5t43 207.5v1315q0 53 12.5 100t38.5 86.5t70 62.5t102 23z" />
<glyph unicode="&#x2248;" horiz-adv-x="784" d="M618 782h95q0 -64 -43 -109.5t-138 -45.5q-40 0 -79 16.5t-65.5 36.5t-61 36.5t-66.5 16.5q-36 0 -69 -24.5t-33 -65.5h-86q0 75 53.5 117.5t134.5 42.5q35 0 73.5 -17t66.5 -37.5t61 -37.5t59 -17q98 0 98 88zM618 590h95q0 -64 -43 -110t-138 -46q-40 0 -79 16.5 t-65.5 37t-61 37t-66.5 16.5q-36 0 -69 -24.5t-33 -65.5h-86q0 75 53 117t135 42q44 0 92.5 -27t92 -54t75.5 -27q98 0 98 88z" />
<glyph unicode="&#x2260;" horiz-adv-x="741" d="M670 662h-252l-51 -107h303v-82h-344l-64 -133h-53l63 133h-200v82h241l52 107h-293v81h334l73 154h53l-73 -154h211v-81z" />
<glyph unicode="&#x2264;" horiz-adv-x="692" d="M621 952l-428 -262v-12l428 -262v-115l-549 361v45l549 360v-115zM72 250h549v-82h-549v82z" />
<glyph unicode="&#x2265;" horiz-adv-x="692" d="M72 952v115l549 -360v-45l-549 -361v115l428 262v12zM621 250v-82h-549v82h549z" />
<glyph unicode="&#x25ca;" horiz-adv-x="860" d="M719 717v10l-289 487l-291 -487v-10l291 -498zM430 1372l379 -631v-41l-379 -639l-379 639v41z" />
<glyph unicode="&#x25fc;" horiz-adv-x="1228" d="M0 1229h1229v-1229h-1229v1229z" />
<glyph horiz-adv-x="167" />
</font>
</defs>
</svg>
